<svg width="1440" height="900" viewBox="0 0 1440 900" fill="none" xmlns="http://www.w3.org/2000/svg">
<g clip-path="url(#clip0)">
<rect width="1440" height="900" fill="url(#paint0_radial)"/>
<rect opacity="0.2" x="1501.38" y="14.9473" width="274.242" height="1040.03" transform="rotate(58.8431 1501.38 14.9473)" fill="url(#paint1_radial)"/>
<rect opacity="0.2" x="1588.28" y="223.096" width="309.39" height="914.688" transform="rotate(58.8431 1588.28 223.096)" fill="url(#paint2_radial)"/>
<rect opacity="0.2" x="1135.56" y="33.0554" width="215.104" height="635.939" transform="rotate(58.8431 1135.56 33.0554)" fill="url(#paint3_radial)"/>
<path opacity="0.05" d="M754.954 524.001L1537.7 50.7566" stroke="url(#paint4_linear)"/>
<path opacity="0.1" d="M1199.67 766.674L1622.21 511.205" stroke="url(#paint5_linear)"/>
<rect opacity="0.4" width="1440" height="900" fill="#333333"/>
</g>
<defs>
<radialGradient id="paint0_radial" cx="0" cy="0" r="1" gradientUnits="userSpaceOnUse" gradientTransform="translate(1071 450) rotate(127.954) scale(570.702 913.124)">
<stop stop-color="#3A1FA8"/>
<stop offset="1" stop-color="#101244"/>
</radialGradient>
<radialGradient id="paint1_radial" cx="0" cy="0" r="1" gradientUnits="userSpaceOnUse" gradientTransform="translate(1101.14 534.962) scale(523.664 671.734)">
<stop stop-color="#42E8E0"/>
<stop offset="1" stop-color="#42E8E0" stop-opacity="0"/>
</radialGradient>
<radialGradient id="paint2_radial" cx="0" cy="0" r="1" gradientUnits="userSpaceOnUse" gradientTransform="translate(1136.75 680.44) scale(590.779)">
<stop stop-color="#42E8E0"/>
<stop offset="1" stop-color="#42E8E0" stop-opacity="0"/>
</radialGradient>
<radialGradient id="paint3_radial" cx="0" cy="0" r="1" gradientUnits="userSpaceOnUse" gradientTransform="translate(821.626 351.025) scale(410.74)">
<stop stop-color="#42E8E0"/>
<stop offset="1" stop-color="#42E8E0" stop-opacity="0"/>
</radialGradient>
<linearGradient id="paint4_linear" x1="1296.04" y1="196.047" x2="762.036" y2="524.001" gradientUnits="userSpaceOnUse">
<stop stop-color="white"/>
<stop offset="1" stop-color="white" stop-opacity="0"/>
</linearGradient>
<linearGradient id="paint5_linear" x1="1491.76" y1="589.636" x2="1203.49" y2="766.674" gradientUnits="userSpaceOnUse">
<stop stop-color="white"/>
<stop offset="1" stop-color="white" stop-opacity="0"/>
</linearGradient>
<clipPath id="clip0">
<path d="M0 0H1440V900H0V0Z" fill="white"/>
</clipPath>
</defs>
</svg>
