<svg width="285" height="510" viewBox="0 0 285 510" fill="none" xmlns="http://www.w3.org/2000/svg">
<g opacity="0.5" filter="url(#filter0_d)">
<ellipse rx="102.869" ry="11.3948" transform="matrix(0.885938 0.463803 -0.521271 0.853391 131.984 416.756)" fill="black" fill-opacity="0.01"/>
</g>
<g filter="url(#filter1_d)">
<path d="M53.8121 49.3659C53.8121 26.5179 75.0192 26.1217 75.0192 26.1217C77.8658 25.8575 81.2817 26.6499 84.6976 28.4989L202.974 91.8922C214.787 98.2315 224.323 115.004 224.323 129.4V419.556C224.323 420.613 224.323 421.537 224.181 422.462C224.181 422.462 225.604 440.819 205.82 443.461C203.827 444.121 201.408 444.253 198.988 443.725C197.28 443.329 195.43 442.668 193.437 441.612L75.1615 378.218C63.3482 371.879 53.8121 355.106 53.8121 340.711V50.5545C53.8121 50.2904 53.8121 50.0262 53.8121 49.8941C53.8121 49.7621 53.8121 49.63 53.8121 49.3659Z" fill="url(#paint0_linear)"/>
</g>
<path opacity="0.1" fill-rule="evenodd" clip-rule="evenodd" d="M77.3721 38.6342C122.561 62.9209 155.108 79.515 197.396 102.245C207.729 107.798 211.522 118.979 211.488 127.977C211.303 176.452 211.265 231.931 211.078 280.63C210.891 329.49 211.267 374.208 211.078 423.356C211.078 432.713 199.373 440.552 189.135 435.052C145.947 411.849 117.158 396.028 72.9017 372.251C66.3334 368.722 57.6306 358.283 57.5464 343.46C56.9633 240.712 56.3807 148.069 57.1576 49.2509C57.2186 41.6335 64.9079 31.9353 77.3721 38.6342Z" fill="white"/>
<path d="M63.0637 53.8563V344.541C63.0637 353.918 70.3225 365.276 79.147 370.03L189.452 429.197C198.277 433.952 205.536 430.254 205.536 420.877V130.192C205.536 120.815 198.277 109.457 189.452 104.703L177.07 98.0995C174.65 96.7788 172.657 97.8353 172.657 100.345C172.657 105.363 168.672 107.476 163.975 104.835L104.624 73.0063C99.7847 70.3649 95.9418 64.1577 95.9418 59.139C95.9418 56.6297 93.9492 53.4601 91.5296 52.1394L79.147 45.5359C70.3225 40.7814 63.0637 44.4793 63.0637 53.8563Z" fill="url(#paint1_linear)"/>
<path opacity="0.48" d="M205.536 413.613L211.371 416.783V414.141L205.536 410.972V413.613Z" fill="#101245"/>
<path opacity="0.48" d="M62.6366 334.371L57.2281 331.466V334.239L62.6366 337.145V334.371Z" fill="#101245"/>
<path opacity="0.48" d="M206.247 146.437L211.371 149.078V146.437L206.247 143.663V146.437Z" fill="#101245"/>
<path opacity="0.48" d="M62.4944 66.6671L57.2282 63.7615V66.535L62.4944 69.3085V66.6671Z" fill="#101245"/>
<path d="M104.766 65.2144C104.766 67.1955 106.19 69.5727 108.04 70.4972C109.89 71.4217 111.313 70.7613 111.313 68.7803C111.313 66.7993 109.89 64.422 108.04 63.4975C106.19 62.573 104.766 63.2334 104.766 65.2144Z" fill="#111632"/>
<path d="M119.853 75.1194L154.012 93.345C154.724 93.7412 155.435 93.345 155.435 92.4205C155.435 91.496 154.866 90.4395 154.012 90.0433L119.853 71.8177C119.141 71.4215 118.43 71.8177 118.43 72.7422C118.43 73.6667 118.999 74.7232 119.853 75.1194Z" fill="#121835"/>
<path opacity="0.2" d="M217.776 206.264L218.061 206.132C219.342 205.472 220.196 203.755 220.196 202.17V183.945C220.196 182.492 219.199 181.699 218.061 182.36L217.776 182.492C216.495 183.152 215.641 184.869 215.641 186.454V204.68C215.641 206.264 216.637 206.925 217.776 206.264Z" fill="url(#paint2_linear)"/>
<path opacity="0.2" d="M217.776 176.416L218.06 176.284C219.341 175.624 220.195 173.907 220.195 172.322V154.097C220.195 152.644 219.199 151.851 218.06 152.512L217.776 152.644C216.495 153.304 215.641 155.021 215.641 156.606V174.831C215.641 176.284 216.637 177.077 217.776 176.416Z" fill="url(#paint3_linear)"/>
<path opacity="0.2" d="M218.061 259.752L218.345 259.62C219.626 258.96 220.48 257.243 220.48 255.658V216.83C220.48 215.377 219.484 214.584 218.345 215.245L218.061 215.377C216.78 216.037 215.926 217.754 215.926 219.339V258.167C215.783 259.752 216.78 260.413 218.061 259.752Z" fill="url(#paint4_linear)"/>
<path fill-rule="evenodd" clip-rule="evenodd" d="M73.8931 172.079C92.436 182.074 110.996 192.052 129.536 202.018C148.077 211.982 166.66 221.972 185.222 231.945C187.833 233.349 189.972 237.039 189.96 240.117C189.895 255.739 189.83 271.359 189.766 286.981C189.754 290.06 187.59 291.47 184.974 290.062C166.38 280.071 147.766 270.066 129.196 260.084C110.624 250.102 92.0304 240.109 73.4603 230.128C70.8422 228.72 68.7095 225.034 68.7326 221.96C68.8503 206.367 68.9701 190.712 69.0877 175.12C69.1109 172.046 71.2814 170.669 73.891 172.077L73.8931 172.079Z" fill="url(#paint5_linear)"/>
<path fill-rule="evenodd" clip-rule="evenodd" d="M179.931 234.727C180.28 234.914 180.561 235.389 180.559 235.805C180.557 236.221 180.261 236.384 179.925 236.203C179.565 236.011 179.294 235.542 179.296 235.126C179.298 234.708 179.584 234.541 179.931 234.727Z" fill="white"/>
<path fill-rule="evenodd" clip-rule="evenodd" d="M182.248 235.974C182.595 236.16 182.879 236.635 182.877 237.051C182.875 237.467 182.599 237.642 182.242 237.449C181.904 237.268 181.612 236.788 181.614 236.372C181.616 235.956 181.902 235.787 182.248 235.974Z" fill="white"/>
<path fill-rule="evenodd" clip-rule="evenodd" d="M184.587 237.23C184.934 237.416 185.197 237.879 185.195 238.295C185.192 238.711 184.917 238.886 184.581 238.705C184.222 238.513 183.951 238.044 183.953 237.628C183.955 237.212 184.241 237.043 184.587 237.23Z" fill="white"/>
<path fill-rule="evenodd" clip-rule="evenodd" d="M78.5614 184.424C85.8735 188.354 93.2087 192.297 100.544 196.241C101.197 196.593 101.742 197.529 101.735 198.296C101.731 199.064 101.178 199.379 100.525 199.028C93.1898 195.083 85.8546 191.14 78.5425 187.211C77.889 186.861 77.3659 185.968 77.3722 185.2C77.3785 184.432 77.9101 184.074 78.5635 184.424H78.5614Z" fill="white"/>
<path fill-rule="evenodd" clip-rule="evenodd" d="M78.5115 191.245C82.5164 193.397 86.5422 195.561 90.5681 197.725C91.2215 198.077 91.7657 199.012 91.7594 199.78C91.7531 200.548 91.2005 200.894 90.5471 200.544C86.5212 198.38 82.4933 196.214 78.4884 194.064C77.835 193.712 77.3118 192.788 77.3181 192.02C77.3244 191.253 77.856 190.895 78.5094 191.245H78.5115Z" fill="white"/>
<path opacity="0.1" d="M70.4135 212.833C82.033 207.635 92.0766 216.971 101.677 226.392C111.258 235.797 120.424 245.345 130.2 240.531C137.653 236.862 145.661 234.134 155.024 237.642C164.397 241.151 175.189 250.79 188.224 271.683" stroke="white" stroke-width="0.999799" stroke-miterlimit="22.9256" stroke-linecap="round"/>
<path fill-rule="evenodd" clip-rule="evenodd" d="M99.8994 222.803C100.912 223.348 101.706 224.773 101.7 225.957C101.692 227.143 100.885 227.672 99.872 227.127C98.8593 226.583 98.044 225.179 98.0503 223.993C98.0587 222.807 98.8866 222.257 99.8994 222.801V222.803Z" fill="white"/>
<path fill-rule="evenodd" clip-rule="evenodd" d="M158.875 236.915C159.888 237.457 160.705 238.861 160.699 240.047C160.693 241.233 159.867 241.754 158.854 241.209C157.841 240.665 157.045 239.273 157.051 238.087C157.058 236.901 157.862 236.368 158.875 236.913V236.915Z" fill="white"/>
<path d="M125.605 211.773C125.529 224.815 125.451 237.89 125.376 250.934" stroke="white" stroke-width="0.500339" stroke-miterlimit="22.9256" stroke-linecap="round"/>
<path opacity="0.1" d="M100.015 208.361C99.9396 217.83 99.8619 227.323 99.7863 236.794" stroke="white" stroke-width="0.500339" stroke-miterlimit="22.9256" stroke-linecap="round"/>
<path opacity="0.1" d="M159.156 225.421C159.08 239.814 159.002 254.243 158.927 268.639" stroke="white" stroke-width="0.500339" stroke-miterlimit="22.9256" stroke-linecap="round"/>
<path fill-rule="evenodd" clip-rule="evenodd" d="M130.199 211.907C134.204 214.059 138.228 216.223 142.254 218.387C142.907 218.739 143.451 219.674 143.447 220.444C143.443 221.214 142.892 221.527 142.239 221.177C138.213 219.013 134.187 216.849 130.182 214.697C129.529 214.347 129.006 213.454 129.01 212.685C129.014 211.915 129.546 211.557 130.199 211.909V211.907Z" fill="white"/>
<path fill-rule="evenodd" clip-rule="evenodd" d="M130.508 216.68C134.513 218.832 135.181 219.163 137.02 220.153C138.34 220.864 138.248 223.524 136.364 222.515C134.165 221.337 134.1 221.248 130.095 219.096C129.001 218.51 128.843 215.785 130.508 216.682V216.68Z" fill="#FF0478"/>
<path fill-rule="evenodd" clip-rule="evenodd" d="M124.688 237.558C126.649 238.612 128.191 241.308 128.175 243.604C128.163 245.901 126.6 246.929 124.639 245.875C122.678 244.82 121.136 242.125 121.152 239.828C121.164 237.532 122.727 236.504 124.688 237.558Z" fill="white"/>
<path fill-rule="evenodd" clip-rule="evenodd" d="M124.676 239.569C125.689 240.113 126.485 241.505 126.477 242.691C126.471 243.877 125.664 244.408 124.651 243.864C123.638 243.319 122.842 241.927 122.85 240.741C122.856 239.555 123.663 239.024 124.676 239.569Z" fill="#FF0478"/>
<path fill-rule="evenodd" clip-rule="evenodd" d="M73.3824 240.568C91.9588 250.553 110.558 260.549 129.135 270.532C147.711 280.516 166.332 290.523 184.929 300.518C187.548 301.924 189.691 305.583 189.678 308.695C189.613 324.38 189.548 340.066 189.483 355.783C189.47 358.862 187.302 360.237 184.682 358.827C166.052 348.816 147.402 338.792 128.794 328.791C110.187 318.79 91.5575 308.81 72.9495 298.809C70.3273 297.4 68.1904 293.711 68.2135 290.638C68.3332 274.981 68.4509 259.262 68.5707 243.605C68.5938 240.531 70.7664 239.16 73.3845 240.566L73.3824 240.568Z" fill="url(#paint6_linear)"/>
<path fill-rule="evenodd" clip-rule="evenodd" d="M179.628 303.294C179.977 303.481 180.261 303.988 180.259 304.404C180.257 304.789 179.96 304.984 179.622 304.801C179.263 304.608 178.99 304.107 178.992 303.722C178.994 303.306 179.28 303.106 179.628 303.292V303.294Z" fill="white"/>
<path fill-rule="evenodd" clip-rule="evenodd" d="M181.95 304.542C182.299 304.729 182.583 305.234 182.58 305.652C182.578 306.037 182.303 306.243 181.944 306.049C181.606 305.868 181.311 305.357 181.313 304.972C181.316 304.554 181.601 304.355 181.95 304.542Z" fill="white"/>
<path fill-rule="evenodd" clip-rule="evenodd" d="M184.293 305.802C184.642 305.989 184.904 306.485 184.902 306.901C184.9 307.286 184.625 307.49 184.287 307.309C183.927 307.116 183.654 306.617 183.656 306.232C183.658 305.816 183.944 305.616 184.293 305.802Z" fill="white"/>
<path fill-rule="evenodd" clip-rule="evenodd" d="M78.2026 256.884C85.2352 260.663 92.2678 264.443 99.3005 268.224C100.208 268.712 100.941 269.976 100.935 271.065C100.929 272.154 100.183 272.62 99.2753 272.132C92.2426 268.351 85.2079 264.569 78.1753 260.79C77.2676 260.302 76.5132 259.028 76.5216 257.939C76.5301 256.851 77.297 256.396 78.2047 256.882L78.2026 256.884Z" fill="#FF0478"/>
<path fill-rule="evenodd" clip-rule="evenodd" d="M78.1332 266.49C95.096 275.576 112.059 284.692 129.021 293.809C145.984 302.925 162.947 312.042 179.91 321.158C180.818 321.646 181.574 322.921 181.57 324.012C181.566 325.103 180.801 325.56 179.893 325.072C162.928 315.953 145.957 306.849 128.998 297.752C112.027 288.647 95.0686 279.517 78.1038 270.398C77.1961 269.91 76.4417 268.637 76.4501 267.548C76.4585 266.459 77.2255 266.004 78.1332 266.49Z" fill="white"/>
<path fill-rule="evenodd" clip-rule="evenodd" d="M78.0621 276.097C95.0291 285.215 112.004 294.324 128.963 303.423C145.938 312.529 162.897 321.661 179.866 330.78C180.774 331.268 181.532 332.574 181.526 333.634C181.522 334.725 180.757 335.213 179.847 334.725C162.878 325.604 145.909 316.484 128.94 307.364C111.971 298.243 95.0165 289.1 78.0327 280.003C77.1376 279.522 76.3686 278.241 76.377 277.152C76.3854 276.097 77.1523 275.609 78.06 276.097H78.0621Z" fill="white"/>
<path fill-rule="evenodd" clip-rule="evenodd" d="M77.9925 285.703C92.8078 293.666 107.659 301.663 122.483 309.615C137.292 317.557 152.158 325.534 166.994 333.507C167.902 333.995 168.66 335.302 168.654 336.362C168.65 337.452 167.883 337.909 166.975 337.421C152.137 329.448 137.277 321.49 122.457 313.527C107.64 305.563 92.7805 297.576 77.9609 289.613C77.0532 289.125 76.2968 287.851 76.3052 286.763C76.3136 285.705 77.0805 285.219 77.9904 285.707L77.9925 285.703Z" fill="white"/>
<path fill-rule="evenodd" clip-rule="evenodd" d="M52.356 91.8321C65.5829 98.9383 78.8098 106.079 92.0367 113.189C94.6443 114.591 96.7517 118.2 96.7307 121.307C96.6257 136.841 96.5227 152.408 96.4176 167.945C96.3966 171.018 94.2534 172.374 91.6417 170.97C78.3938 163.848 65.1438 156.726 51.8959 149.609C49.2841 148.205 47.1977 144.567 47.2229 141.495C47.349 125.973 47.475 110.384 47.6011 94.8612C47.6263 91.7894 49.7506 90.4323 52.356 91.8321Z" fill="url(#paint7_linear)"/>
<path fill-rule="evenodd" clip-rule="evenodd" d="M72.0756 117.408C78.6291 120.931 83.8968 130.061 83.8421 137.747C83.7875 145.432 78.4274 148.821 71.8696 145.296C65.3119 141.772 60.0653 132.667 60.1241 124.968C60.1829 117.268 65.522 113.886 72.0756 117.408Z" fill="#FF0478"/>
<path fill-rule="evenodd" clip-rule="evenodd" d="M70.2098 124.184C71.9411 127.204 73.6935 130.237 75.4459 133.235C73.662 134.335 71.8802 135.465 70.1173 136.575C70.1488 132.445 70.1782 128.347 70.2098 124.184Z" fill="#FEFEFE"/>
<path fill-rule="evenodd" clip-rule="evenodd" d="M113.872 124.744C125.71 131.107 137.55 137.471 149.388 143.834C161.226 150.198 173.085 156.575 184.948 162.977C187.552 164.383 189.691 168.001 189.678 171.112C189.613 186.667 189.55 202.256 189.485 217.814C189.472 220.893 187.325 222.221 184.702 220.804C172.835 214.4 160.942 208.036 149.085 201.663C137.226 195.288 125.367 188.915 113.511 182.542C110.899 181.138 108.766 177.485 108.787 174.409C108.888 158.871 108.987 143.301 109.085 127.763C109.104 124.656 111.266 123.342 113.874 124.744H113.872Z" fill="url(#paint8_linear)"/>
<path d="M133.423 147.338C137.378 149.463 140.964 153.289 143.536 157.693C146.108 162.161 147.705 167.231 147.68 171.911C147.655 176.56 146.011 179.886 143.406 181.572C140.801 183.224 137.189 183.18 133.23 181.053C129.271 178.926 125.704 175.08 123.111 170.663C120.539 166.195 118.965 161.138 118.995 156.46C119.024 151.813 120.648 148.444 123.254 146.792C125.88 145.151 129.467 145.215 133.423 147.338ZM142.858 158.132C140.454 153.979 137.119 150.451 133.417 148.46C129.715 146.471 126.359 146.403 123.924 147.954C121.487 149.473 119.969 152.644 119.942 156.97C119.915 161.327 121.386 166.072 123.789 170.225C126.193 174.38 129.532 177.942 133.236 179.933C136.943 181.924 140.3 181.961 142.736 180.411C145.173 178.891 146.709 175.731 146.732 171.404C146.755 167.045 145.261 162.287 142.858 158.134V158.132Z" fill="white" fill-opacity="0.41"/>
<path d="M133.411 149.261C132.759 148.911 132.236 148.018 132.24 147.25C132.245 146.481 132.774 146.123 133.425 146.473C137.59 148.711 141.345 152.755 144.041 157.388C146.736 162.052 148.417 167.393 148.392 172.296C148.367 177.168 146.638 180.676 143.904 182.421C141.17 184.167 137.39 184.128 133.222 181.887C131.389 180.903 129.622 179.567 127.985 177.948C126.305 176.305 124.754 174.378 123.415 172.308C121.804 169.77 120.491 167.006 119.6 164.181C118.73 161.463 118.261 158.704 118.276 156.075C118.28 155.305 118.812 154.948 119.463 155.3C120.117 155.649 120.638 156.573 120.633 157.343C120.621 159.587 121.028 161.927 121.753 164.214C122.499 166.543 123.605 168.907 124.985 171.032C126.094 172.786 127.414 174.429 128.822 175.796C130.187 177.108 131.679 178.232 133.238 179.068C136.754 180.957 139.922 181.02 142.231 179.561C144.541 178.103 145.993 175.121 146.014 170.986C146.035 166.883 144.625 162.363 142.345 158.471C140.067 154.514 136.92 151.151 133.406 149.263L133.411 149.261Z" fill="#FF0478"/>
<path d="M131.671 158.579C131.669 159.093 131.665 159.604 131.662 160.086C131.599 160.053 131.557 160.03 131.515 160.006C130.822 159.633 130.259 159.565 129.828 159.742C129.41 159.913 129.149 160.341 129.061 161.066C129.465 160.769 129.992 160.794 130.622 161.134C131.295 161.496 131.841 162.079 132.238 162.87C132.635 163.662 132.82 164.502 132.814 165.462C132.812 166.039 132.713 166.533 132.488 166.895C132.263 167.256 131.955 167.455 131.534 167.507C131.129 167.558 130.69 167.47 130.185 167.2C129.364 166.759 128.7 166.074 128.191 165.1C127.698 164.153 127.443 163.123 127.45 162.001C127.45 161.809 127.452 161.585 127.454 161.36C127.46 160.366 127.62 159.553 127.954 158.96C128.261 158.418 128.74 158.058 129.332 157.965C129.944 157.87 130.641 158.025 131.419 158.443C131.503 158.488 131.587 158.535 131.671 158.579ZM130.15 162.359C129.898 162.223 129.662 162.172 129.454 162.209C129.257 162.244 129.116 162.413 129.009 162.581C129.007 162.773 129.007 162.966 129.005 163.158C129 163.767 129.112 164.27 129.311 164.737C129.505 165.188 129.792 165.509 130.15 165.701C130.486 165.882 130.778 165.884 130.973 165.693C131.181 165.489 131.272 165.147 131.276 164.634C131.278 164.153 131.162 163.685 130.967 163.279C130.767 162.863 130.486 162.538 130.15 162.357V162.359ZM138.309 167.964C138.603 168.124 138.897 168.281 139.193 168.439C139.191 168.952 139.187 169.432 139.185 169.912C138.891 169.755 138.596 169.595 138.3 169.438C138.296 170.111 138.292 170.783 138.29 171.425C137.762 171.143 137.258 170.871 136.754 170.599C136.758 169.957 136.76 169.284 136.764 168.612C135.69 168.034 134.617 167.457 133.564 166.893C133.524 166.485 133.505 166.09 133.486 165.693C134.571 164.251 135.678 162.853 136.783 161.422C137.287 161.694 137.815 161.976 138.34 162.26C138.33 164.183 138.319 166.074 138.309 167.964ZM135.045 166.21C135.613 166.516 136.182 166.821 136.77 167.138C136.777 166.08 136.783 164.991 136.789 163.934C136.747 163.975 136.705 164.017 136.682 164.07C136.13 164.77 135.577 165.501 135.045 166.212V166.21Z" fill="white"/>
<path fill-rule="evenodd" clip-rule="evenodd" d="M157.145 165.299C164.466 169.232 171.789 173.167 179.109 177.133C179.76 177.485 180.284 178.376 180.281 179.145C180.277 179.915 179.75 180.242 179.096 179.89C171.774 175.955 164.451 172.02 157.131 168.087C156.479 167.737 155.956 166.844 155.96 166.076C155.965 165.306 156.494 164.949 157.145 165.299Z" fill="white"/>
<path fill-rule="evenodd" clip-rule="evenodd" d="M157.112 172.129C164.435 176.062 171.757 179.997 179.08 183.934C179.731 184.284 180.255 185.209 180.253 185.979C180.25 186.749 179.721 187.107 179.067 186.757C171.745 182.82 164.42 178.885 157.098 174.952C156.446 174.602 155.923 173.678 155.925 172.908C155.929 172.138 156.459 171.781 157.11 172.131L157.112 172.129Z" fill="white"/>
<path fill-rule="evenodd" clip-rule="evenodd" d="M157.076 178.988C164.401 182.952 171.726 186.889 179.05 190.828C179.702 191.178 180.227 192.071 180.223 192.841C180.219 193.578 179.691 193.937 179.038 193.585C171.713 189.648 164.388 185.711 157.064 181.776C156.412 181.426 155.889 180.501 155.891 179.733C155.895 178.963 156.425 178.634 157.076 178.988Z" fill="white"/>
<path fill-rule="evenodd" clip-rule="evenodd" d="M157.043 185.849C161.064 188.007 165.084 190.169 169.105 192.329C169.759 192.679 170.282 193.572 170.278 194.342C170.274 195.111 169.744 195.438 169.093 195.086C165.071 192.926 161.049 190.764 157.03 188.606C156.376 188.256 155.853 187.364 155.857 186.563C155.862 185.793 156.391 185.499 157.043 185.849Z" fill="white"/>
<path fill-rule="evenodd" clip-rule="evenodd" d="M179.666 165.732C180.013 165.919 180.296 166.391 180.294 166.776C180.292 167.161 180.006 167.362 179.66 167.175C179.313 166.988 179.029 166.483 179.031 166.098C179.033 165.713 179.319 165.546 179.666 165.732Z" fill="white"/>
<path fill-rule="evenodd" clip-rule="evenodd" d="M181.981 166.974C182.328 167.161 182.612 167.667 182.61 168.052C182.607 168.436 182.322 168.606 181.975 168.419C181.628 168.232 181.345 167.76 181.347 167.375C181.349 166.99 181.635 166.79 181.981 166.976V166.974Z" fill="white"/>
<path fill-rule="evenodd" clip-rule="evenodd" d="M184.316 168.228C184.662 168.415 184.925 168.909 184.923 169.294C184.921 169.679 184.656 169.858 184.309 169.671C183.963 169.484 183.679 169.012 183.681 168.627C183.683 168.242 183.969 168.042 184.316 168.228Z" fill="white"/>
<path fill-rule="evenodd" clip-rule="evenodd" d="M206.557 174.21C219.784 181.318 233.011 188.426 246.238 195.538C248.845 196.94 251.005 200.599 250.999 203.683C250.965 219.287 250.932 234.893 250.9 250.435C250.894 253.519 248.719 254.866 246.108 253.463C232.86 246.339 219.61 239.219 206.362 232.099C203.75 230.696 201.632 227.052 201.643 223.971C201.697 208.409 201.752 192.814 201.806 177.253C201.817 174.14 203.95 172.81 206.557 174.212V174.21Z" fill="url(#paint9_linear)"/>
<path fill-rule="evenodd" clip-rule="evenodd" d="M226.365 199.868C229.71 201.667 226.617 200.004 226.764 200.084C226.752 204.739 226.739 209.36 226.724 214.014C230.534 216.062 234.343 218.109 238.174 220.168C238.174 220.201 238.182 216.348 238.174 220.201C238.165 224.053 232.843 231.32 226.285 227.795C219.728 224.27 214.431 215.105 214.456 207.42C214.481 199.734 223.02 198.072 226.365 199.87V199.868Z" fill="white"/>
<path fill-rule="evenodd" clip-rule="evenodd" d="M229.128 198.558C235.48 202.229 240.556 211.098 240.558 218.653C236.728 216.594 232.898 214.535 229.09 212.488C229.103 207.865 229.115 203.21 229.128 198.556V198.558Z" fill="#FF0478"/>
<path d="M96.7308 100.514C96.7497 97.6947 96.7686 94.9086 96.7875 92.0584C97.5019 92.4433 98.2163 92.8263 98.9517 93.223C99.3594 95.3713 99.788 97.5294 100.217 99.6583C100.649 97.9941 101.082 96.2987 101.515 94.6034C102.23 94.9883 102.965 95.383 103.7 95.7777C103.681 98.6279 103.663 101.416 103.644 104.235C103.181 103.986 102.74 103.749 102.299 103.512C102.314 101.301 102.328 99.0906 102.343 96.8489C101.845 98.832 101.347 100.782 100.87 102.742C100.408 102.493 99.9456 102.244 99.4833 101.995C99.0148 99.5242 98.5672 97.0667 98.1197 94.5761C98.105 96.8178 98.0903 99.0284 98.0756 101.239C97.6133 100.99 97.1721 100.753 96.7308 100.516V100.514ZM104.463 98.5326C104.946 98.7932 105.43 99.0517 105.934 99.322C106.323 101.01 106.734 102.678 107.146 104.313C107.556 103.117 107.964 101.89 108.394 100.642C108.857 100.891 109.34 101.15 109.823 101.41C109.201 103.069 108.579 104.665 107.957 106.29C107.829 106.607 107.733 106.906 107.615 107.198C107.497 107.486 107.371 107.676 107.253 107.807C107.138 107.935 107.022 108.042 106.871 108.085C106.747 108.12 106.554 108.108 106.344 108.059C106.134 108.011 105.902 107.917 105.65 107.783C105.377 107.637 105.125 107.468 104.873 107.27C104.833 106.831 104.795 106.391 104.755 105.954C104.965 106.1 105.154 106.232 105.344 106.333C105.659 106.502 105.898 106.539 106.06 106.397C106.218 106.259 106.337 106.032 106.403 105.713C105.743 103.302 105.104 100.934 104.467 98.5326H104.463ZM118.232 112.07C117.791 111.833 117.371 111.608 116.95 111.382C116.952 111.094 116.955 110.773 116.957 110.453C116.744 110.692 116.49 110.83 116.194 110.847C115.898 110.865 115.625 110.799 115.33 110.641C114.721 110.315 114.213 109.79 113.78 108.973C113.357 108.174 113.158 107.256 113.164 106.263C113.17 105.238 113.378 104.542 113.788 104.219C114.204 103.893 114.74 103.926 115.37 104.266C115.959 104.583 116.461 105.141 116.879 105.913C116.885 104.919 116.892 103.895 116.898 102.868C117.36 103.117 117.822 103.366 118.285 103.613C118.268 106.465 118.249 109.284 118.232 112.072V112.07ZM114.574 106.922C114.57 107.595 114.639 108.061 114.797 108.456C115.013 109 115.318 109.379 115.717 109.593C116.032 109.762 116.299 109.741 116.52 109.543C116.744 109.339 116.86 108.954 116.864 108.314C116.868 107.608 116.768 107.041 116.56 106.607C116.352 106.173 116.078 105.866 115.742 105.685C115.406 105.505 115.15 105.534 114.921 105.726C114.704 105.907 114.58 106.315 114.576 106.924L114.574 106.922ZM120.634 109.117C120.214 108.827 119.793 108.505 119.396 108.193C119.526 107.653 119.781 107.34 120.119 107.231C120.457 107.124 120.983 107.278 121.655 107.639C122.264 107.966 122.718 108.287 123.019 108.629C123.302 108.954 123.521 109.284 123.645 109.609C123.769 109.934 123.84 110.447 123.825 111.153C123.813 111.783 123.796 112.424 123.794 113.064C123.792 113.544 123.809 113.972 123.851 114.252C123.891 114.532 123.975 114.864 124.099 115.22C123.636 114.971 123.174 114.722 122.733 114.485C122.691 114.335 122.651 114.151 122.609 113.937C122.588 113.83 122.567 113.754 122.546 113.711C122.313 113.843 122.06 113.927 121.785 113.913C121.533 113.902 121.237 113.812 120.943 113.655C120.396 113.361 119.989 112.969 119.684 112.465C119.384 111.969 119.226 111.448 119.23 110.935C119.232 110.614 119.306 110.334 119.447 110.151C119.604 109.947 119.785 109.834 120.039 109.827C120.291 109.819 120.655 109.883 121.134 110.029C121.77 110.223 122.229 110.359 122.46 110.355C122.46 110.322 122.46 110.258 122.46 110.196C122.462 109.875 122.401 109.617 122.275 109.422C122.149 109.226 121.899 108.995 121.541 108.802C121.289 108.666 121.109 108.65 120.972 108.689C120.829 108.73 120.718 108.874 120.632 109.117H120.634ZM122.453 111.413C122.285 111.386 122.01 111.335 121.632 111.228C121.254 111.121 120.999 111.083 120.873 111.11C120.705 111.147 120.598 111.283 120.596 111.508C120.594 111.732 120.672 111.973 120.802 112.199C120.943 112.442 121.136 112.636 121.367 112.76C121.598 112.885 121.852 112.928 122.063 112.844C122.233 112.778 122.348 112.642 122.403 112.512C122.458 112.377 122.447 112.117 122.449 111.734C122.449 111.639 122.451 111.541 122.451 111.413H122.453ZM124.674 113.828C125.137 114.013 125.601 114.164 126.063 114.318C126.124 114.672 126.24 114.946 126.416 115.183C126.597 115.426 126.834 115.665 127.17 115.846C127.528 116.038 127.782 116.083 127.971 116.05C128.099 116.029 128.162 115.928 128.162 115.735C128.162 115.607 128.129 115.484 128.059 115.358C128.005 115.257 127.83 115.103 127.597 114.917C126.488 114.028 125.784 113.373 125.479 112.974C125.074 112.446 124.874 111.845 124.878 111.269C124.88 110.725 125.086 110.398 125.433 110.217C125.784 110.035 126.341 110.159 127.076 110.554C127.79 110.939 128.328 111.341 128.671 111.798C129.017 112.259 129.255 112.819 129.379 113.431C128.938 113.289 128.494 113.149 128.074 113.019C128.034 112.739 127.925 112.494 127.763 112.272C127.612 112.068 127.385 111.878 127.091 111.718C126.733 111.526 126.483 111.464 126.311 111.493C126.206 111.51 126.162 111.606 126.162 111.734C126.162 111.862 126.208 111.977 126.286 112.09C126.418 112.282 126.851 112.683 127.587 113.272C128.322 113.859 128.824 114.355 129.116 114.802C129.408 115.249 129.532 115.733 129.53 116.246C129.526 116.824 129.328 117.158 128.933 117.341C128.524 117.53 127.942 117.419 127.164 117.001C126.45 116.616 125.878 116.153 125.485 115.617C125.063 115.041 124.796 114.442 124.674 113.83V113.828ZM132.133 111.086C132.127 112.111 132.121 113.169 132.115 114.195C132.56 113.791 133.108 113.797 133.718 114.123C134.054 114.304 134.325 114.518 134.579 114.779C134.848 115.057 135.033 115.35 135.165 115.64C135.285 115.902 135.382 116.2 135.434 116.491C135.485 116.769 135.493 117.199 135.491 117.744C135.485 118.961 135.476 120.18 135.47 121.333C135.008 121.084 134.546 120.835 134.104 120.6C134.111 119.542 134.117 118.453 134.123 117.362C134.127 116.721 134.1 116.313 134.046 116.099C133.995 115.902 133.896 115.702 133.753 115.523C133.623 115.362 133.459 115.204 133.27 115.103C133.039 114.979 132.833 114.946 132.638 114.989C132.451 115.029 132.32 115.14 132.234 115.35C132.148 115.562 132.104 115.955 132.102 116.468C132.096 117.493 132.089 118.486 132.085 119.513C131.623 119.264 131.161 119.015 130.719 118.778C130.736 115.99 130.751 113.171 130.768 110.35C131.209 110.587 131.671 110.836 132.133 111.083V111.086ZM136.794 122.044C136.811 119.256 136.825 116.435 136.842 113.616C137.304 113.865 137.767 114.114 138.229 114.361C138.223 115.387 138.218 116.381 138.212 117.374C138.634 117.055 139.141 117.038 139.708 117.343C140.36 117.693 140.862 118.22 141.28 118.992C141.698 119.762 141.904 120.644 141.898 121.671C141.891 122.729 141.685 123.426 141.255 123.769C140.839 124.097 140.303 124.062 139.696 123.734C139.401 123.576 139.103 123.356 138.815 123.003C138.54 122.666 138.292 122.272 138.084 121.838C138.082 122.126 138.08 122.447 138.078 122.736C137.636 122.499 137.216 122.274 136.796 122.046L136.794 122.044ZM138.179 119.606C138.174 120.248 138.265 120.771 138.422 121.152C138.66 121.721 138.964 122.118 139.364 122.334C139.679 122.503 139.933 122.48 140.143 122.272C140.355 122.064 140.463 121.64 140.467 120.998C140.471 120.292 140.368 119.723 140.16 119.291C139.952 118.858 139.679 118.55 139.343 118.37C139.006 118.189 138.733 118.202 138.5 118.399C138.29 118.576 138.181 118.999 138.176 119.608L138.179 119.606ZM142.675 122.056C142.677 121.511 142.797 121.06 143.02 120.666C143.242 120.271 143.57 120.061 143.992 120.032C144.415 120.001 144.877 120.121 145.381 120.393C146.159 120.812 146.808 121.451 147.31 122.33C147.81 123.211 148.06 124.115 148.054 125.013C148.05 125.975 147.787 126.599 147.264 126.936C146.749 127.264 146.125 127.191 145.346 126.772C144.883 126.524 144.419 126.15 143.982 125.686C143.56 125.239 143.215 124.675 143.001 124.064C142.78 123.442 142.671 122.762 142.675 122.056ZM144.104 122.921C144.1 123.53 144.203 124.068 144.453 124.523C144.703 124.978 144.997 125.297 145.354 125.489C145.711 125.682 146.005 125.68 146.26 125.495C146.514 125.31 146.621 124.887 146.625 124.276C146.627 123.668 146.527 123.129 146.276 122.674C146.026 122.219 145.732 121.898 145.375 121.708C145.018 121.515 144.722 121.517 144.469 121.702C144.215 121.887 144.108 122.311 144.104 122.921ZM150.164 124.99C149.743 124.7 149.323 124.377 148.926 124.066C149.056 123.526 149.311 123.211 149.647 123.104C149.985 122.997 150.51 123.15 151.183 123.512C151.792 123.839 152.246 124.159 152.546 124.504C152.832 124.828 153.049 125.159 153.173 125.483C153.296 125.808 153.368 126.323 153.353 127.027C153.341 127.657 153.326 128.299 153.322 128.938C153.32 129.452 153.339 129.879 153.378 130.159C153.418 130.439 153.502 130.772 153.626 131.128C153.164 130.879 152.702 130.63 152.261 130.393C152.219 130.241 152.179 130.058 152.137 129.844C152.116 129.737 152.095 129.662 152.074 129.619C151.84 129.751 151.588 129.844 151.334 129.833C151.061 129.819 150.775 129.704 150.47 129.529C149.956 129.232 149.516 128.874 149.212 128.371C148.911 127.873 148.754 127.352 148.756 126.841C148.758 126.489 148.831 126.207 148.97 126.024C149.128 125.82 149.308 125.707 149.563 125.699C149.815 125.692 150.18 125.754 150.657 125.903C151.315 126.108 151.752 126.234 152.004 126.242C152.004 126.209 152.004 126.146 152.004 126.082C152.006 125.761 151.922 125.491 151.798 125.297C151.672 125.1 151.42 124.869 151.063 124.677C150.811 124.541 150.63 124.525 150.494 124.564C150.351 124.605 150.239 124.749 150.153 124.992L150.164 124.99ZM152.006 127.299C151.817 127.262 151.542 127.212 151.164 127.103C150.786 126.996 150.531 126.957 150.405 126.984C150.237 127.021 150.13 127.157 150.13 127.383C150.128 127.64 150.216 127.875 150.357 128.116C150.487 128.341 150.67 128.542 150.903 128.666C151.134 128.791 151.389 128.833 151.599 128.752C151.769 128.686 151.891 128.557 151.937 128.388C151.975 128.25 152.002 128.005 152.004 127.62C152.004 127.525 152.004 127.428 152.006 127.299ZM156.005 132.409C155.543 132.16 155.08 131.911 154.639 131.674C154.65 129.623 154.66 127.57 154.671 125.518C155.091 125.744 155.511 125.971 155.931 126.197C155.929 126.485 155.929 126.774 155.927 127.062C156.16 126.771 156.347 126.592 156.52 126.576C156.709 126.559 156.898 126.619 157.131 126.743C157.446 126.912 157.74 127.167 158.033 127.486C157.883 127.888 157.734 128.289 157.606 128.67C157.375 128.386 157.146 128.165 156.957 128.063C156.768 127.962 156.595 127.927 156.452 127.986C156.322 128.038 156.209 128.211 156.133 128.489C156.057 128.773 156.024 129.459 156.017 130.484C156.015 131.126 156.011 131.767 156.007 132.407L156.005 132.409ZM163.361 136.359C162.941 136.134 162.521 135.908 162.1 135.681C162.103 135.393 162.103 135.072 162.105 134.752C161.892 134.991 161.638 135.129 161.344 135.146C161.048 135.164 160.754 135.086 160.459 134.929C159.871 134.614 159.346 134.073 158.93 133.272C158.512 132.469 158.285 131.544 158.291 130.517C158.295 129.491 158.501 128.793 158.934 128.483C159.348 128.186 159.884 128.221 160.514 128.561C161.102 128.876 161.605 129.436 162.023 130.175C162.027 129.212 162.033 128.188 162.037 127.161C162.479 127.399 162.941 127.647 163.403 127.896C163.388 130.717 163.376 133.538 163.361 136.361V136.359ZM159.72 131.19C159.718 131.862 159.781 132.345 159.945 132.757C160.155 133.286 160.468 133.68 160.867 133.894C161.182 134.063 161.447 134.042 161.668 133.842C161.892 133.638 162.008 133.221 162.01 132.58C162.014 131.874 161.918 131.303 161.701 130.871C161.478 130.424 161.199 130.119 160.863 129.938C160.548 129.769 160.274 129.782 160.041 129.979C159.831 130.155 159.722 130.579 159.72 131.188V131.19Z" fill="white"/>
<path fill-rule="evenodd" clip-rule="evenodd" d="M181.015 117.557C184.48 119.419 187.946 121.28 191.432 123.154C191.811 123.356 192.145 123.922 192.143 124.371C192.14 124.853 191.802 125.025 191.426 124.82C187.94 122.946 184.473 121.084 181.008 119.223C180.609 119.009 180.296 118.486 180.298 118.006C180.3 117.557 180.618 117.341 181.017 117.557H181.015Z" fill="white"/>
<path fill-rule="evenodd" clip-rule="evenodd" d="M180.998 121.406C184.463 123.269 187.93 125.129 191.416 127.006C191.794 127.208 192.128 127.774 192.126 128.256C192.124 128.705 191.786 128.909 191.41 128.705C187.922 126.831 184.457 124.968 180.99 123.105C180.591 122.892 180.278 122.336 180.28 121.888C180.282 121.408 180.599 121.192 180.998 121.406Z" fill="white"/>
<path fill-rule="evenodd" clip-rule="evenodd" d="M180.981 125.287C184.448 127.15 187.913 129.012 191.401 130.886C191.779 131.089 192.113 131.654 192.111 132.103C192.109 132.552 191.771 132.757 191.393 132.552C187.905 130.678 184.438 128.816 180.973 126.953C180.574 126.739 180.261 126.185 180.263 125.736C180.265 125.287 180.582 125.071 180.981 125.287Z" fill="white"/>
<path fill-rule="evenodd" clip-rule="evenodd" d="M72.3655 309.04C89.5615 318.283 106.758 327.526 123.954 336.766C125.477 337.585 126.714 339.731 126.704 341.526C126.675 346.429 126.645 351.333 126.618 356.203C126.607 358.028 125.351 358.831 123.825 358.013C106.619 348.766 89.4124 339.518 72.2058 330.271C70.6615 329.441 69.4239 327.296 69.4365 325.504C69.4722 320.637 69.51 315.738 69.5458 310.84C69.5584 309.048 70.8191 308.214 72.3634 309.044L72.3655 309.04Z" fill="url(#paint10_linear)"/>
<path fill-rule="evenodd" clip-rule="evenodd" d="M135.037 342.721C152.233 351.966 169.429 361.174 186.625 370.417C188.17 371.247 189.411 373.394 189.403 375.221C189.384 380.097 189.363 385.004 189.342 389.912C189.336 391.708 188.081 392.509 186.535 391.681C169.331 382.463 152.122 373.221 134.915 363.97C133.392 363.151 132.152 361.005 132.161 359.179C132.188 354.307 132.217 349.404 132.245 344.5C132.255 342.706 133.512 341.901 135.035 342.72L135.037 342.721Z" fill="url(#paint11_linear)"/>
<path fill-rule="evenodd" clip-rule="evenodd" d="M113.437 372.295C114.485 372.859 115.315 374.35 115.307 375.583C115.298 376.817 114.456 377.375 113.409 376.812C112.361 376.248 111.51 374.778 111.516 373.545C111.524 372.313 112.388 371.731 113.437 372.295Z" fill="white"/>
<path opacity="0.2" fill-rule="evenodd" clip-rule="evenodd" d="M121.165 376.45C122.203 377.008 123.043 378.505 123.037 379.738C123.031 380.972 122.177 381.526 121.139 380.968C120.101 380.41 119.261 378.946 119.267 377.712C119.274 376.477 120.127 375.892 121.165 376.45Z" fill="white"/>
<path opacity="0.2" fill-rule="evenodd" clip-rule="evenodd" d="M128.895 380.603C129.943 381.167 130.794 382.669 130.788 383.902C130.782 385.137 129.918 385.685 128.87 385.121C127.821 384.557 126.991 383.099 126.998 381.865C127.004 380.63 127.846 380.039 128.895 380.603Z" fill="white"/>
<defs>
<filter id="filter0_d" x="0.652283" y="332.055" width="262.664" height="177.403" filterUnits="userSpaceOnUse" color-interpolation-filters="sRGB">
<feFlood flood-opacity="0" result="BackgroundImageFix"/>
<feColorMatrix in="SourceAlpha" type="matrix" values="0 0 0 0 0 0 0 0 0 0 0 0 0 0 0 0 0 0 127 0"/>
<feOffset dy="4"/>
<feGaussianBlur stdDeviation="20"/>
<feColorMatrix type="matrix" values="0 0 0 0 0 0 0 0 0 0 0 0 0 0 0 0 0 0 1 0"/>
<feBlend mode="normal" in2="BackgroundImageFix" result="effect1_dropShadow"/>
<feBlend mode="normal" in="SourceGraphic" in2="effect1_dropShadow" result="shape"/>
</filter>
<filter id="filter1_d" x="53.8121" y="0.0721436" width="230.511" height="477.979" filterUnits="userSpaceOnUse" color-interpolation-filters="sRGB">
<feFlood flood-opacity="0" result="BackgroundImageFix"/>
<feColorMatrix in="SourceAlpha" type="matrix" values="0 0 0 0 0 0 0 0 0 0 0 0 0 0 0 0 0 0 127 0"/>
<feOffset dx="30" dy="4"/>
<feGaussianBlur stdDeviation="15"/>
<feColorMatrix type="matrix" values="0 0 0 0 0 0 0 0 0 0 0 0 0 0 0 0 0 0 0.15 0"/>
<feBlend mode="normal" in2="BackgroundImageFix" result="effect1_dropShadow"/>
<feBlend mode="normal" in="SourceGraphic" in2="effect1_dropShadow" result="shape"/>
</filter>
<linearGradient id="paint0_linear" x1="201.946" y1="172.567" x2="53.8121" y2="304.495" gradientUnits="userSpaceOnUse">
<stop stop-color="#19184B"/>
<stop offset="1" stop-color="#110F38"/>
</linearGradient>
<linearGradient id="paint1_linear" x1="54.3307" y1="10.3539" x2="-67.7294" y2="464.777" gradientUnits="userSpaceOnUse">
<stop stop-color="#553FBE"/>
<stop offset="1" stop-color="#101245"/>
</linearGradient>
<linearGradient id="paint2_linear" x1="218.296" y1="179.85" x2="217.21" y2="227.065" gradientUnits="userSpaceOnUse">
<stop stop-color="white"/>
<stop offset="1" stop-opacity="0.33"/>
</linearGradient>
<linearGradient id="paint3_linear" x1="218.295" y1="150.003" x2="217.212" y2="197.182" gradientUnits="userSpaceOnUse">
<stop stop-color="white"/>
<stop offset="1" stop-opacity="0.33"/>
</linearGradient>
<linearGradient id="paint4_linear" x1="218.575" y1="210.814" x2="214.897" y2="297.796" gradientUnits="userSpaceOnUse">
<stop stop-color="white"/>
<stop offset="1" stop-opacity="0.33"/>
</linearGradient>
<linearGradient id="paint5_linear" x1="195.626" y1="254.26" x2="-21.6532" y2="125.527" gradientUnits="userSpaceOnUse">
<stop stop-color="#42E8E0" stop-opacity="0.17"/>
<stop offset="1" stop-color="#2258BB" stop-opacity="0.05"/>
</linearGradient>
<linearGradient id="paint6_linear" x1="195.355" y1="322.946" x2="-22.3967" y2="193.987" gradientUnits="userSpaceOnUse">
<stop stop-color="#42E8E0" stop-opacity="0.17"/>
<stop offset="1" stop-color="#2258BB" stop-opacity="0.05"/>
</linearGradient>
<linearGradient id="paint7_linear" x1="99.0447" y1="147.031" x2="-7.14633" y2="108.899" gradientUnits="userSpaceOnUse">
<stop stop-color="#42E8E0" stop-opacity="0.25"/>
<stop offset="1" stop-color="#2258BB" stop-opacity="0.24"/>
</linearGradient>
<linearGradient id="paint8_linear" x1="193.459" y1="191.707" x2="34.8105" y2="114.854" gradientUnits="userSpaceOnUse">
<stop stop-color="#42E8E0" stop-opacity="0.24"/>
<stop offset="1" stop-color="#2258BB" stop-opacity="0.05"/>
</linearGradient>
<linearGradient id="paint9_linear" x1="253.306" y1="229.489" x2="147.33" y2="191.607" gradientUnits="userSpaceOnUse">
<stop stop-color="#42E8E0" stop-opacity="0.41"/>
<stop offset="1" stop-color="#2258BB" stop-opacity="0.4"/>
</linearGradient>
<linearGradient id="paint10_linear" x1="120.208" y1="261.277" x2="60.4988" y2="347.145" gradientUnits="userSpaceOnUse">
<stop stop-color="#FF0478"/>
<stop offset="1" stop-color="#FF0478" stop-opacity="0"/>
</linearGradient>
<linearGradient id="paint11_linear" x1="214.036" y1="303.927" x2="160.782" y2="392.008" gradientUnits="userSpaceOnUse">
<stop stop-color="#187CE4"/>
<stop offset="1" stop-color="#187CE4" stop-opacity="0"/>
</linearGradient>
</defs>
</svg>
