<svg width="648" height="805" viewBox="0 0 648 805" fill="none" xmlns="http://www.w3.org/2000/svg">
<g opacity="0.5" filter="url(#filter0_d)">
<ellipse rx="321.317" ry="15.4115" transform="matrix(0.881416 0.47234 -0.529491 0.848316 323.802 612.947)" fill="black" fill-opacity="0.01"/>
</g>
<path d="M56.6599 31.5492C56.6599 0.647053 85.3427 0.111174 85.3427 0.111174C89.1927 -0.246076 93.8127 0.825674 98.4328 3.32642L553.33 250.764C569.308 259.338 582.205 282.023 582.205 301.494V693.933C582.205 695.362 582.205 696.612 582.013 697.863C582.013 697.863 583.938 722.691 557.18 726.264C554.485 727.157 551.212 727.336 547.94 726.621C545.63 726.085 543.127 725.192 540.432 723.763L85.5351 476.326C69.5574 467.752 56.6599 445.066 56.6599 425.596V33.1568C56.6599 32.7996 56.6599 32.4423 56.6599 32.2637C56.6599 32.0851 56.6599 31.9064 56.6599 31.5492Z" fill="url(#paint0_linear)"/>
<path opacity="0.1" fill-rule="evenodd" clip-rule="evenodd" d="M88.5323 17.0345C149.65 49.8825 483.06 231.559 540.255 262.301C554.23 269.812 559.361 284.934 559.315 297.104C559.065 362.667 559.013 437.703 558.76 503.569C558.508 569.653 559.016 630.134 558.76 696.607C558.76 709.262 542.929 719.865 529.082 712.426C470.67 681.044 142.344 500.413 82.486 468.254C73.6024 463.482 61.8317 449.362 61.7179 429.315C60.9292 290.346 60.1412 165.047 61.192 31.3938C61.2744 21.0911 71.6743 7.97414 88.5323 17.0345Z" fill="white"/>
<path d="M69.1801 37.6222V430.776C69.1801 443.458 78.9977 458.82 90.9329 465.251L527.732 705.164C539.667 711.594 549.484 706.593 549.484 693.91V300.756C549.484 288.074 539.667 272.712 527.732 266.282C477.938 239.728 140.727 52.9234 90.9329 26.3689C78.9977 19.9384 69.1801 24.9399 69.1801 37.6222Z" fill="url(#paint1_linear)"/>
<path opacity="0.2" fill-rule="evenodd" clip-rule="evenodd" d="M519.62 280.549C521.905 281.772 523.688 285.144 523.664 288.062C523.644 290.981 521.876 292.398 519.542 291.161C517.306 289.952 515.522 286.595 515.547 283.682C515.566 280.763 517.335 279.331 519.62 280.554V280.549Z" fill="white"/>
<path opacity="0.2" fill-rule="evenodd" clip-rule="evenodd" d="M503.429 271.799C505.665 273.008 507.448 276.384 507.429 279.302C507.409 282.221 505.592 283.61 503.361 282.401C501.124 281.193 499.292 277.816 499.312 274.903C499.331 271.989 501.192 270.596 503.429 271.799Z" fill="white"/>
<path opacity="0.2" fill-rule="evenodd" clip-rule="evenodd" d="M487.244 263.063C489.504 264.281 491.214 267.618 491.195 270.532C491.175 273.445 489.412 274.863 487.175 273.66C484.89 272.427 483.107 269.08 483.127 266.166C483.146 263.253 484.983 261.845 487.244 263.063Z" fill="white"/>
<path opacity="0.6" fill-rule="evenodd" clip-rule="evenodd" d="M419.724 303.931C450.414 320.619 481.192 337.389 512.072 354.193C518.187 357.521 523.098 366.725 523.04 374.686C522.708 421.026 522.377 467.322 522.046 513.487C521.714 559.563 521.388 605.635 521.057 651.581C520.998 659.542 516.024 663.177 509.938 659.761C479.204 642.509 448.572 625.3 418.028 608.169C411.991 604.783 407.095 595.642 407.134 587.725C407.382 542.028 407.626 496.2 407.874 450.376C408.123 404.46 408.371 358.413 408.62 312.321C408.664 304.404 413.653 300.633 419.719 303.931H419.724Z" fill="url(#paint2_linear)"/>
<g opacity="0.1">
<path fill-rule="evenodd" clip-rule="evenodd" d="M430.453 335.557C435.427 338.271 439.354 345.73 439.315 352.206C439.276 358.681 435.267 361.784 430.321 359.066C425.322 356.347 421.327 348.863 421.361 342.398C421.395 335.927 425.478 332.848 430.453 335.557Z" fill="white"/>
<path fill-rule="evenodd" clip-rule="evenodd" d="M446.122 353.497C466.742 364.742 487.317 376.007 508.044 387.315C509.057 387.866 509.88 389.381 509.871 390.75C509.861 392.075 509.023 392.684 508.01 392.134C487.283 380.825 466.712 369.551 446.093 358.306C445.07 357.745 444.256 356.225 444.261 354.905C444.271 353.541 445.094 352.946 446.117 353.507L446.122 353.497Z" fill="white"/>
<path fill-rule="evenodd" clip-rule="evenodd" d="M446.078 361.341C459.565 368.708 473.109 376.089 486.645 383.505C487.619 384.041 488.481 385.61 488.472 386.935C488.462 388.26 487.585 388.894 486.61 388.363C473.08 380.942 459.535 373.561 446.049 366.189C445.026 365.629 444.212 364.065 444.222 362.739C444.232 361.419 445.06 360.781 446.078 361.341Z" fill="white"/>
<path fill-rule="evenodd" clip-rule="evenodd" d="M446.171 345.653C466.796 356.888 487.371 368.148 508.103 379.447C509.116 379.997 509.939 381.556 509.93 382.881C509.92 384.207 509.082 384.86 508.069 384.309C487.342 373.005 466.766 361.746 446.142 350.5C445.119 349.945 444.305 348.376 444.31 347.056C444.32 345.735 445.148 345.097 446.167 345.657L446.171 345.653Z" fill="white"/>
</g>
<g opacity="0.1">
<path fill-rule="evenodd" clip-rule="evenodd" d="M430.194 381.21C435.164 383.934 439.086 391.403 439.047 397.878C439.008 404.353 435.003 407.403 430.057 404.675C425.063 401.947 421.068 394.497 421.107 388.031C421.141 381.561 425.224 378.487 430.194 381.21Z" fill="white"/>
<path fill-rule="evenodd" clip-rule="evenodd" d="M445.849 399.184C466.453 410.473 487.014 421.781 507.726 433.134C508.74 433.689 509.563 435.243 509.553 436.574C509.543 437.899 508.705 438.508 507.692 437.952C486.98 426.595 466.424 415.282 445.819 403.988C444.796 403.428 443.982 401.903 443.992 400.582C444.002 399.262 444.825 398.628 445.849 399.189V399.184Z" fill="white"/>
<path fill-rule="evenodd" clip-rule="evenodd" d="M445.804 406.984C459.281 414.38 472.816 421.791 486.342 429.235C487.316 429.771 488.178 431.345 488.169 432.67C488.159 433.996 487.282 434.629 486.312 434.093C472.787 426.643 459.257 419.233 445.78 411.832C444.757 411.271 443.943 409.703 443.953 408.382C443.963 407.062 444.786 406.428 445.809 406.989L445.804 406.984Z" fill="white"/>
<path fill-rule="evenodd" clip-rule="evenodd" d="M445.898 391.344C466.507 402.623 487.068 413.971 507.785 425.314C508.799 425.869 509.622 427.379 509.612 428.705C509.602 430.03 508.764 430.683 507.751 430.127C487.039 418.78 466.478 407.471 445.869 396.187C444.845 395.627 444.032 394.058 444.041 392.738C444.051 391.373 444.875 390.784 445.898 391.339V391.344Z" fill="white"/>
</g>
<g opacity="0.1">
<path fill-rule="evenodd" clip-rule="evenodd" d="M429.931 426.78C434.9 429.513 438.818 436.948 438.779 443.424C438.74 449.899 434.735 452.944 429.794 450.201C424.805 447.463 420.81 440.003 420.849 433.538C420.883 427.068 424.961 424.047 429.931 426.78Z" fill="white"/>
<path fill-rule="evenodd" clip-rule="evenodd" d="M445.575 444.744C466.165 456.077 486.711 467.429 507.408 478.825C508.422 479.381 509.24 480.94 509.236 482.265C509.226 483.59 508.388 484.243 507.379 483.683C486.682 472.282 466.141 460.925 445.55 449.587C444.527 449.027 443.714 447.453 443.723 446.132C443.733 444.812 444.556 444.179 445.58 444.739L445.575 444.744Z" fill="white"/>
<path fill-rule="evenodd" clip-rule="evenodd" d="M445.531 452.583C458.998 460.009 472.524 467.449 486.039 474.923C487.014 475.458 487.871 476.988 487.866 478.314C487.857 479.639 486.98 480.272 486.01 479.731C472.494 472.253 458.969 464.813 445.507 457.382C444.484 456.817 443.67 455.248 443.68 453.928C443.69 452.608 444.513 452.018 445.536 452.583H445.531Z" fill="white"/>
<path fill-rule="evenodd" clip-rule="evenodd" d="M445.624 436.944C466.219 448.272 486.765 459.614 507.463 471.006C508.476 471.561 509.295 473.076 509.29 474.445C509.28 475.771 508.442 476.38 507.433 475.819C486.736 464.428 466.19 453.076 445.6 441.748C444.576 441.187 443.763 439.658 443.773 438.337C443.782 436.973 444.606 436.383 445.629 436.944H445.624Z" fill="white"/>
</g>
<g opacity="0.1">
<path fill-rule="evenodd" clip-rule="evenodd" d="M429.668 472.302C434.633 475.045 438.55 482.489 438.511 488.921C438.472 495.396 434.472 498.431 429.537 495.679C424.552 492.931 420.562 485.462 420.596 478.996C420.63 472.57 424.703 469.559 429.668 472.302Z" fill="white"/>
<path fill-rule="evenodd" clip-rule="evenodd" d="M445.309 490.3C465.885 501.677 486.426 513.054 507.148 524.518C508.122 525.054 508.931 526.637 508.921 527.963C508.911 529.288 508.088 529.916 507.114 529.376C486.397 517.867 465.855 506.486 445.28 495.099C444.257 494.534 443.448 492.96 443.453 491.64C443.463 490.363 444.286 489.73 445.309 490.295V490.3Z" fill="white"/>
<path fill-rule="evenodd" clip-rule="evenodd" d="M445.26 498.095C458.717 505.545 472.233 513.019 485.739 520.522C486.713 521.063 487.571 522.593 487.561 523.918C487.551 525.244 486.679 525.872 485.704 525.331C472.199 517.828 458.683 510.354 445.231 502.9C444.212 502.334 443.399 500.761 443.404 499.44C443.413 498.12 444.237 497.53 445.26 498.095Z" fill="white"/>
<path fill-rule="evenodd" clip-rule="evenodd" d="M445.353 482.499C465.933 493.871 486.474 505.238 507.196 516.693C508.17 517.229 508.979 518.812 508.969 520.138C508.96 521.463 508.136 522.047 507.162 521.507C486.44 510.047 465.899 498.675 445.323 487.299C444.3 486.733 443.491 485.208 443.496 483.883C443.506 482.563 444.329 481.929 445.353 482.495V482.499Z" fill="white"/>
</g>
<g opacity="0.1">
<path fill-rule="evenodd" clip-rule="evenodd" d="M429.409 517.691C434.369 520.444 438.282 527.899 438.248 534.374C438.209 540.805 434.213 543.831 429.278 541.068C424.294 538.311 420.308 530.832 420.342 524.41C420.376 517.94 424.449 514.939 429.409 517.691Z" fill="white"/>
<path fill-rule="evenodd" clip-rule="evenodd" d="M445.035 535.767C465.595 547.188 486.122 558.613 506.829 570.116C507.804 570.657 508.613 572.197 508.603 573.522C508.593 574.847 507.77 575.476 506.795 574.935C486.093 563.427 465.566 552.001 445.005 540.571C443.987 540.006 443.173 538.432 443.183 537.107C443.193 535.786 444.016 535.202 445.035 535.767Z" fill="white"/>
<path fill-rule="evenodd" clip-rule="evenodd" d="M444.986 543.568C458.433 551.047 471.939 558.545 485.435 566.078C486.405 566.618 487.267 568.153 487.257 569.478C487.247 570.804 486.375 571.388 485.401 570.847C471.905 563.31 458.399 555.812 444.956 548.328C443.938 547.758 443.124 546.228 443.134 544.908C443.144 543.587 443.967 543.003 444.986 543.568Z" fill="white"/>
<path fill-rule="evenodd" clip-rule="evenodd" d="M445.079 527.923C465.645 539.338 486.172 550.749 506.879 562.248C507.853 562.789 508.662 564.372 508.652 565.697C508.642 567.023 507.819 567.651 506.845 567.11C486.137 555.607 465.611 544.191 445.05 532.771C444.031 532.205 443.218 530.632 443.228 529.306C443.237 527.986 444.061 527.358 445.079 527.923Z" fill="white"/>
</g>
<g opacity="0.1">
<path fill-rule="evenodd" clip-rule="evenodd" d="M118.608 287.877C153.966 307.439 189.617 327.108 225.32 346.841C226.914 347.723 228.224 350.13 228.219 352.225C228.215 354.32 226.899 355.309 225.301 354.427C189.602 334.68 153.952 314.952 118.599 295.38C117.044 294.523 115.744 292.116 115.744 290.079C115.744 287.999 117.054 287.019 118.604 287.877H118.608Z" fill="white"/>
<path fill-rule="evenodd" clip-rule="evenodd" d="M118.599 300.111C134.628 308.989 150.76 317.89 166.931 326.831C168.486 327.688 169.787 330.11 169.782 332.195C169.777 334.281 168.471 335.255 166.917 334.393C150.751 325.447 134.614 316.541 118.589 307.654C117.035 306.791 115.734 304.389 115.734 302.304C115.734 300.224 117.04 299.244 118.594 300.107L118.599 300.111Z" fill="white"/>
<path fill-rule="evenodd" clip-rule="evenodd" d="M100.787 275.044C106.141 277.996 110.473 286.143 110.468 293.256C110.463 300.365 106.151 303.746 100.772 300.789C95.4468 297.826 91.1398 289.685 91.1398 282.581C91.1446 275.477 95.4322 272.091 100.787 275.044Z" fill="white"/>
</g>
<path opacity="0.6" fill-rule="evenodd" clip-rule="evenodd" d="M100.821 130.445C124.802 143.503 148.9 156.595 173.072 169.73C197.257 182.876 221.58 196.133 245.951 209.395C251.344 212.328 255.739 220.533 255.72 227.691C255.612 263.887 255.5 300.083 255.393 336.191C255.374 343.309 250.989 346.71 245.566 343.723C221.239 330.32 196.975 316.892 172.843 303.591C148.72 290.299 124.676 277.051 100.748 263.838C95.4615 260.919 91.1544 252.778 91.1593 245.718C91.1739 209.848 91.1885 173.984 91.2032 138.075C91.208 130.972 95.5248 127.561 100.821 130.445Z" fill="url(#paint3_linear)"/>
<path opacity="0.1" fill-rule="evenodd" clip-rule="evenodd" d="M186.148 243.978C181.739 238.258 177.334 232.504 172.973 226.745C168.564 220.947 164.203 215.178 159.891 209.415C159.882 216.153 159.921 222.872 159.96 229.634C159.901 236.3 159.843 242.97 159.833 249.659C164.155 248.651 168.525 247.642 172.944 246.663C177.315 245.766 181.734 244.87 186.153 243.978H186.148Z" fill="white"/>
<path opacity="0.5" fill-rule="evenodd" clip-rule="evenodd" d="M98.774 323.912C123.354 337.569 148.008 351.221 172.735 364.956C197.476 378.696 222.393 392.548 247.373 406.399C251.675 408.787 255.154 415.355 255.134 420.987C255.047 449.806 254.959 478.577 254.876 507.308C254.861 512.941 251.358 515.655 247.066 513.248C222.125 499.269 197.252 485.291 172.554 471.424C147.872 457.563 123.257 443.789 98.7204 430.005C94.5546 427.667 91.0856 421.079 91.0905 415.491C91.1002 386.988 91.1148 358.442 91.1246 329.851C91.1246 324.263 94.6034 321.603 98.7789 323.922L98.774 323.912Z" fill="url(#paint4_linear)"/>
<g opacity="0.1">
<path fill-rule="evenodd" clip-rule="evenodd" d="M101.956 341.491C118.658 350.773 135.389 360.098 152.14 369.414C153.246 370.028 154.074 371.67 154.074 373.107C154.074 374.54 153.241 375.246 152.135 374.632C135.389 365.312 118.658 355.981 101.956 346.695C100.85 346.081 100.021 344.444 100.021 343.016C100.021 341.584 100.85 340.877 101.961 341.496L101.956 341.491Z" fill="white"/>
<path fill-rule="evenodd" clip-rule="evenodd" d="M160.077 373.809C168.647 378.564 177.208 383.354 185.822 388.124C186.933 388.738 187.756 390.389 187.751 391.822C187.746 393.259 186.923 393.961 185.812 393.342C177.198 388.567 168.637 383.782 160.072 379.022C158.961 378.408 158.089 376.762 158.094 375.329C158.094 373.897 158.971 373.19 160.082 373.809H160.077Z" fill="white"/>
<path fill-rule="evenodd" clip-rule="evenodd" d="M193.711 392.533C208.464 400.738 223.227 408.933 238.039 417.172C239.101 417.762 239.973 419.418 239.968 420.86C239.963 422.303 239.086 422.999 238.024 422.41C223.217 414.166 208.449 405.966 193.701 397.761C192.629 397.167 191.767 395.495 191.772 394.058C191.776 392.621 192.639 391.939 193.711 392.533Z" fill="white"/>
<path fill-rule="evenodd" clip-rule="evenodd" d="M101.951 353.234C133.016 370.521 164.169 387.895 195.474 405.308C196.536 405.898 197.408 407.53 197.403 408.967C197.398 410.405 196.521 411.082 195.464 410.488C164.16 393.064 133.011 375.68 101.946 358.389C100.84 357.775 100.012 356.138 100.012 354.71C100.012 353.278 100.84 352.615 101.951 353.234Z" fill="white"/>
<path fill-rule="evenodd" clip-rule="evenodd" d="M206.553 411.486C217.004 417.294 227.499 423.14 238.003 428.992C239.065 429.582 239.937 431.194 239.933 432.636C239.928 434.079 239.051 434.775 237.989 434.186C227.489 428.334 216.994 422.483 206.543 416.675C205.432 416.056 204.609 414.405 204.614 412.967C204.619 411.53 205.447 410.872 206.553 411.491V411.486Z" fill="white"/>
<path fill-rule="evenodd" clip-rule="evenodd" d="M101.946 364.937C117.625 373.682 133.387 382.496 149.207 391.305C150.269 391.895 151.141 393.566 151.137 394.998C151.137 396.431 150.26 397.064 149.197 396.475C133.377 387.666 117.62 378.847 101.941 370.096C100.835 369.478 100.007 367.889 100.007 366.457C100.007 365.024 100.835 364.318 101.941 364.937H101.946Z" fill="white"/>
<path fill-rule="evenodd" clip-rule="evenodd" d="M156.028 395.091C178.333 407.505 200.672 419.973 223.075 432.456C224.185 433.075 225.009 434.726 225.004 436.169C224.999 437.606 224.171 438.264 223.065 437.645C200.667 425.157 178.328 412.684 156.023 400.265C154.912 399.646 154.04 398.048 154.045 396.616C154.045 395.183 154.922 394.477 156.032 395.096L156.028 395.091Z" fill="white"/>
<path fill-rule="evenodd" clip-rule="evenodd" d="M101.937 376.64C123.272 388.538 144.652 400.475 166.114 412.456C167.186 413.055 168.048 414.717 168.043 416.154C168.043 417.587 167.176 418.274 166.104 417.674C144.642 405.689 123.262 393.747 101.932 381.844C100.826 381.225 99.9974 379.593 99.9974 378.16C99.9974 376.728 100.826 376.026 101.932 376.64H101.937Z" fill="white"/>
<path fill-rule="evenodd" clip-rule="evenodd" d="M174.82 417.318C188.267 424.817 201.71 432.344 215.206 439.867C216.317 440.486 217.184 442.138 217.184 443.58C217.179 445.017 216.307 445.719 215.196 445.1C201.7 437.572 188.262 430.04 174.815 422.542C173.709 421.923 172.881 420.276 172.886 418.843C172.891 417.406 173.714 416.705 174.825 417.323L174.82 417.318Z" fill="white"/>
</g>
<path opacity="0.6" fill-rule="evenodd" clip-rule="evenodd" d="M280.567 228.245C314.741 246.843 349.022 265.484 383.455 284.223C386.217 285.728 388.439 289.884 388.424 293.49C388.332 311.727 388.239 329.915 388.147 348.108C388.127 351.708 385.886 353.409 383.167 351.918C348.735 333.047 314.488 314.294 280.392 295.609C277.727 294.147 275.505 290.006 275.515 286.42C275.573 268.329 275.637 250.234 275.695 232.051C275.705 228.508 277.941 226.813 280.572 228.245H280.567Z" fill="url(#paint5_linear)"/>
<path opacity="0.6" fill-rule="evenodd" clip-rule="evenodd" d="M280.348 306.84C314.439 325.545 348.681 344.317 383.109 363.251C385.827 364.747 388.039 368.932 388.02 372.538C387.927 390.726 387.883 408.875 387.791 427.019C387.771 430.576 385.486 432.271 382.768 430.766C348.379 411.764 314.176 392.884 280.119 374.072C277.459 372.601 275.237 368.45 275.247 364.908C275.305 346.856 275.369 328.809 275.427 310.714C275.437 307.089 277.683 305.374 280.348 306.835V306.84Z" fill="url(#paint6_linear)"/>
<g opacity="0.1">
<path fill-rule="evenodd" clip-rule="evenodd" d="M287.33 339.47C297.947 345.302 308.563 351.139 319.175 356.981C320.242 357.57 321.158 359.261 321.153 360.703C321.148 362.107 320.223 362.779 319.156 362.189C308.544 356.343 297.927 350.501 287.311 344.669C286.244 344.084 285.328 342.398 285.333 341C285.337 339.558 286.263 338.881 287.33 339.465V339.47Z" fill="white"/>
<path fill-rule="evenodd" clip-rule="evenodd" d="M325.767 360.62C330.955 363.48 336.188 366.34 341.372 369.205C342.439 369.794 343.355 371.485 343.351 372.932C343.346 374.335 342.42 375.008 341.353 374.423C336.169 371.558 330.931 368.693 325.747 365.833C324.631 365.219 323.764 363.553 323.769 362.155C323.774 360.708 324.651 360.006 325.767 360.62Z" fill="white"/>
<path fill-rule="evenodd" clip-rule="evenodd" d="M348.013 372.845C357.222 377.912 366.474 383.028 375.741 388.114C376.896 388.748 377.773 390.4 377.763 391.851C377.758 393.255 376.872 393.976 375.717 393.342C366.45 388.251 357.202 383.14 347.994 378.068C346.878 377.454 346.011 375.788 346.021 374.384C346.025 372.937 346.902 372.236 348.018 372.85L348.013 372.845Z" fill="white"/>
<path fill-rule="evenodd" clip-rule="evenodd" d="M287.286 350.71C307.399 361.775 327.511 372.864 347.721 383.983C348.788 384.572 349.704 386.268 349.694 387.715C349.69 389.162 348.764 389.79 347.697 389.201C327.492 378.078 307.379 366.983 287.266 355.914C286.199 355.329 285.283 353.687 285.288 352.24C285.293 350.798 286.219 350.121 287.286 350.71Z" fill="white"/>
<path fill-rule="evenodd" clip-rule="evenodd" d="M356.448 388.787C362.845 392.304 369.281 395.871 375.688 399.403C376.843 400.042 377.72 401.693 377.71 403.14C377.705 404.587 376.814 405.265 375.664 404.626C369.257 401.094 362.82 397.528 356.423 394.01C355.307 393.396 354.44 391.769 354.45 390.321C354.455 388.874 355.332 388.178 356.448 388.792V388.787Z" fill="white"/>
<path fill-rule="evenodd" clip-rule="evenodd" d="M287.247 361.945C293.644 365.468 300.041 368.991 306.434 372.513C307.501 373.103 308.417 374.794 308.412 376.236C308.407 377.678 307.481 378.355 306.414 377.766C300.017 374.238 293.624 370.716 287.227 367.193C286.16 366.608 285.244 364.918 285.249 363.475C285.254 362.033 286.18 361.356 287.247 361.945Z" fill="white"/>
<path fill-rule="evenodd" clip-rule="evenodd" d="M288.698 322.349C307.997 332.936 327.345 343.572 346.785 354.233C348.534 355.193 349.928 357.814 349.918 360.094C349.908 362.418 348.495 363.48 346.746 362.52C327.306 351.85 307.963 341.209 288.669 330.612C286.925 329.652 285.526 327.05 285.531 324.731C285.541 322.456 286.954 321.389 288.698 322.349Z" fill="white"/>
</g>
<g opacity="0.6">
<path fill-rule="evenodd" clip-rule="evenodd" d="M280.081 385.351C314.133 404.183 348.331 423.082 382.715 442.098C385.433 443.604 387.689 447.799 387.67 451.356C387.577 469.5 387.485 487.605 387.392 505.706C387.372 509.306 385.092 510.948 382.374 509.438C348.029 490.309 313.865 471.298 279.852 452.359C277.191 450.878 274.975 446.761 274.984 443.18C275.043 425.172 275.106 407.169 275.165 389.074C275.174 385.575 277.416 383.875 280.076 385.346L280.081 385.351Z" fill="url(#paint7_linear)"/>
<g opacity="0.1">
<path fill-rule="evenodd" clip-rule="evenodd" d="M287.053 417.873C297.655 423.744 308.257 429.62 318.859 435.506C319.926 436.095 320.837 437.791 320.832 439.238C320.827 440.685 319.902 441.353 318.835 440.763C308.232 434.877 297.635 428.992 287.028 423.077C285.966 422.482 285.045 420.84 285.055 419.398C285.06 417.956 285.986 417.284 287.048 417.873H287.053Z" fill="white"/>
<path fill-rule="evenodd" clip-rule="evenodd" d="M325.44 439.165C330.62 442.045 335.848 444.924 341.027 447.809C342.094 448.403 343.005 450.099 343 451.546C342.995 452.993 342.069 453.665 341.002 453.071C335.823 450.186 330.595 447.302 325.416 444.422C324.305 443.804 323.438 442.137 323.443 440.69C323.448 439.243 324.325 438.546 325.44 439.165Z" fill="white"/>
<path fill-rule="evenodd" clip-rule="evenodd" d="M347.663 451.477C356.862 456.578 366.1 461.728 375.357 466.849C376.512 467.487 377.384 469.144 377.379 470.591C377.374 472.038 376.487 472.754 375.332 472.116C366.08 466.99 356.837 461.84 347.644 456.734C346.528 456.115 345.665 454.444 345.67 452.997C345.675 451.55 346.552 450.853 347.668 451.472L347.663 451.477Z" fill="white"/>
<path fill-rule="evenodd" clip-rule="evenodd" d="M287.014 429.113C307.102 440.256 327.19 451.418 347.371 462.615C348.438 463.204 349.349 464.861 349.344 466.308C349.339 467.755 348.414 468.422 347.347 467.833C327.166 456.637 307.078 445.464 286.994 434.317C285.932 433.727 285.016 432.037 285.021 430.594C285.026 429.152 285.952 428.524 287.014 429.113Z" fill="white"/>
<path fill-rule="evenodd" clip-rule="evenodd" d="M356.082 467.448C362.47 470.99 368.901 474.576 375.298 478.133C376.448 478.771 377.325 480.384 377.32 481.836C377.315 483.283 376.429 483.999 375.274 483.361C368.877 479.804 362.445 476.213 356.058 472.671C354.942 472.052 354.08 470.376 354.085 468.929C354.089 467.482 354.966 466.829 356.082 467.448Z" fill="white"/>
<path fill-rule="evenodd" clip-rule="evenodd" d="M286.974 440.31C293.362 443.852 299.749 447.404 306.137 450.951C307.204 451.54 308.115 453.236 308.11 454.639C308.105 456.086 307.179 456.754 306.117 456.159C299.73 452.607 293.342 449.06 286.955 445.513C285.893 444.924 284.977 443.233 284.981 441.791C284.986 440.393 285.912 439.72 286.974 440.31Z" fill="white"/>
<path fill-rule="evenodd" clip-rule="evenodd" d="M288.421 400.757C307.696 411.418 327.019 422.122 346.435 432.86C348.179 433.825 349.573 436.495 349.563 438.775C349.553 441.056 348.141 442.157 346.396 441.192C326.98 430.449 307.662 419.735 288.392 409.064C286.648 408.1 285.25 405.444 285.259 403.174C285.269 400.898 286.677 399.792 288.421 400.757Z" fill="white"/>
</g>
</g>
<g opacity="0.7">
<path opacity="0.6" fill-rule="evenodd" clip-rule="evenodd" d="M280.081 462.334C314.133 481.165 348.331 500.064 382.715 519.081C385.433 520.586 387.689 524.781 387.67 528.338C387.577 546.482 387.485 564.587 387.392 582.688C387.372 586.288 385.092 587.93 382.374 586.42C348.029 567.292 313.865 548.28 279.852 529.342C277.191 527.86 274.975 523.743 274.984 520.162C275.043 502.154 275.106 484.151 275.165 466.056C275.174 462.558 277.416 460.857 280.076 462.329L280.081 462.334Z" fill="url(#paint8_linear)"/>
<g opacity="0.1">
<path fill-rule="evenodd" clip-rule="evenodd" d="M287.053 494.856C297.655 500.727 308.257 506.603 318.859 512.488C319.926 513.078 320.837 514.773 320.832 516.22C320.827 517.668 319.902 518.335 318.835 517.745C308.232 511.86 297.635 505.974 287.028 500.059C285.966 499.465 285.045 497.823 285.055 496.381C285.06 494.938 285.986 494.266 287.048 494.856H287.053Z" fill="white"/>
<path fill-rule="evenodd" clip-rule="evenodd" d="M325.44 516.148C330.62 519.027 335.848 521.907 341.027 524.791C342.094 525.385 343.005 527.081 343 528.528C342.995 529.975 342.069 530.647 341.002 530.053C335.823 527.169 330.595 524.284 325.416 521.405C324.305 520.786 323.438 519.12 323.443 517.673C323.448 516.226 324.325 515.529 325.44 516.148Z" fill="white"/>
<path fill-rule="evenodd" clip-rule="evenodd" d="M347.663 528.459C356.862 533.56 366.1 538.71 375.357 543.831C376.512 544.469 377.384 546.126 377.379 547.573C377.374 549.02 376.487 549.736 375.332 549.098C366.08 543.972 356.837 538.822 347.644 533.716C346.528 533.098 345.665 531.426 345.67 529.979C345.675 528.532 346.552 527.836 347.668 528.454L347.663 528.459Z" fill="white"/>
<path fill-rule="evenodd" clip-rule="evenodd" d="M287.014 506.096C307.102 517.238 327.19 528.401 347.371 539.597C348.438 540.187 349.349 541.843 349.344 543.29C349.339 544.737 348.414 545.405 347.347 544.815C327.166 533.619 307.078 522.447 286.994 511.299C285.932 510.71 285.016 509.019 285.021 507.577C285.026 506.135 285.952 505.506 287.014 506.096Z" fill="white"/>
<path fill-rule="evenodd" clip-rule="evenodd" d="M356.082 544.43C362.47 547.973 368.901 551.559 375.298 555.115C376.448 555.754 377.325 557.366 377.32 558.818C377.315 560.265 376.429 560.982 375.274 560.343C368.877 556.786 362.445 553.196 356.058 549.654C354.942 549.035 354.08 547.359 354.085 545.912C354.089 544.465 354.966 543.812 356.082 544.43Z" fill="white"/>
<path fill-rule="evenodd" clip-rule="evenodd" d="M286.974 517.292C293.362 520.834 299.749 524.386 306.137 527.933C307.204 528.523 308.115 530.218 308.11 531.622C308.105 533.069 307.179 533.736 306.117 533.142C299.73 529.59 293.342 526.043 286.955 522.496C285.893 521.906 284.977 520.216 284.981 518.773C284.986 517.375 285.912 516.703 286.974 517.292Z" fill="white"/>
<path fill-rule="evenodd" clip-rule="evenodd" d="M288.421 477.74C307.696 488.4 327.019 499.104 346.435 509.843C348.179 510.808 349.573 513.478 349.563 515.758C349.553 518.038 348.141 519.139 346.396 518.174C326.98 507.431 307.662 496.717 288.392 486.047C286.648 485.082 285.25 482.427 285.259 480.156C285.269 477.881 286.677 476.775 288.421 477.74Z" fill="white"/>
</g>
</g>
<g opacity="0.2">
<path fill-rule="evenodd" clip-rule="evenodd" d="M287.604 260.846C298.23 266.639 308.861 272.437 319.488 278.24C320.555 278.825 321.471 280.511 321.466 281.958C321.461 283.405 320.535 284.082 319.463 283.497C308.837 277.69 298.206 271.892 287.579 266.094C286.512 265.514 285.596 263.828 285.601 262.386C285.606 260.944 286.532 260.262 287.599 260.846H287.604Z" fill="white"/>
<path fill-rule="evenodd" clip-rule="evenodd" d="M326.089 281.851C331.283 284.691 336.525 287.532 341.714 290.377C342.781 290.962 343.697 292.653 343.692 294.1C343.688 295.547 342.757 296.224 341.69 295.639C336.496 292.794 331.259 289.948 326.065 287.108C324.949 286.499 324.082 284.837 324.087 283.39C324.091 281.943 324.973 281.242 326.089 281.851Z" fill="white"/>
<path fill-rule="evenodd" clip-rule="evenodd" d="M348.369 293.998C357.588 299.031 366.85 304.107 376.131 309.165C377.286 309.793 378.163 311.445 378.158 312.892C378.153 314.339 377.262 315.06 376.107 314.432C366.83 309.374 357.568 304.297 348.35 299.26C347.234 298.651 346.367 296.984 346.372 295.537C346.377 294.09 347.258 293.388 348.374 293.998H348.369Z" fill="white"/>
<path fill-rule="evenodd" clip-rule="evenodd" d="M287.565 272.087C307.702 283.079 327.839 294.09 348.073 305.135C349.14 305.72 350.056 307.411 350.051 308.902C350.046 310.349 349.121 311.026 348.049 310.441C327.819 299.396 307.682 288.375 287.545 277.378C286.478 276.793 285.562 275.112 285.567 273.67C285.572 272.184 286.498 271.507 287.565 272.087Z" fill="white"/>
<path fill-rule="evenodd" clip-rule="evenodd" d="M356.809 309.905C363.212 313.398 369.614 316.936 376.074 320.449C377.229 321.077 378.106 322.729 378.101 324.225C378.096 325.672 377.205 326.393 376.05 325.764C369.589 322.251 363.192 318.714 356.79 315.216C355.674 314.607 354.807 312.936 354.812 311.489C354.817 309.998 355.694 309.296 356.814 309.905H356.809Z" fill="white"/>
<path fill-rule="evenodd" clip-rule="evenodd" d="M287.525 283.41C293.927 286.908 300.334 290.406 306.737 293.909C307.804 294.494 308.72 296.18 308.715 297.578C308.71 299.064 307.784 299.741 306.717 299.157C300.315 295.654 293.908 292.155 287.506 288.652C286.439 288.067 285.523 286.343 285.528 284.9C285.532 283.502 286.458 282.825 287.525 283.405V283.41Z" fill="white"/>
<path fill-rule="evenodd" clip-rule="evenodd" d="M288.977 243.676C308.3 254.191 327.672 264.754 347.137 275.346C348.886 276.296 350.284 278.956 350.274 281.237C350.265 283.517 348.852 284.628 347.102 283.678C327.638 273.08 308.271 262.508 288.952 251.988C287.208 251.038 285.805 248.393 285.81 246.117C285.819 243.842 287.232 242.726 288.981 243.676H288.977Z" fill="white"/>
</g>
<path opacity="0.1" fill-rule="evenodd" clip-rule="evenodd" d="M100.022 78.5409C112.124 85.0892 124.266 91.6619 136.418 98.2589C141.275 100.895 145.256 108.335 145.246 114.805C145.236 121.275 141.246 124.433 136.388 121.792C124.242 115.185 112.105 108.593 100.002 102.035C95.1495 99.4039 91.2128 91.9883 91.2128 85.5374C91.2176 79.0817 95.1593 75.9196 100.012 78.5506L100.022 78.5409Z" fill="white"/>
<path opacity="0.1" fill-rule="evenodd" clip-rule="evenodd" d="M320.472 203.675C326.742 207.076 333.013 210.472 339.322 213.887C341.851 215.257 343.927 219.115 343.912 222.448C343.897 225.781 341.797 227.354 339.269 225.985C332.959 222.57 326.689 219.169 320.418 215.763C317.894 214.389 315.814 210.545 315.828 207.217C315.843 203.89 317.943 202.306 320.467 203.675H320.472Z" fill="white"/>
<g opacity="0.1">
<path fill-rule="evenodd" clip-rule="evenodd" d="M278.141 183.709C285.907 187.923 293.688 192.109 301.464 196.318C302.726 197 303.793 198.978 303.783 200.689C303.778 202.394 302.702 203.217 301.44 202.535C293.669 198.326 285.883 194.14 278.121 189.921C276.898 189.253 275.841 187.261 275.846 185.555C275.851 183.85 276.918 183.046 278.141 183.714V183.709Z" fill="white"/>
<path fill-rule="evenodd" clip-rule="evenodd" d="M358.406 227.164C366.226 231.403 374.051 235.637 381.876 239.886C383.143 240.573 384.249 242.565 384.239 244.28C384.229 245.995 383.109 246.809 381.842 246.122C374.022 241.873 366.197 237.635 358.377 233.396C357.066 232.684 356.053 230.721 356.058 229.011C356.068 227.301 357.091 226.453 358.406 227.164Z" fill="white"/>
<path fill-rule="evenodd" clip-rule="evenodd" d="M398.733 249.026C406.602 253.29 414.471 257.553 422.349 261.806C423.704 262.537 424.722 264.496 424.712 266.211C424.702 267.926 423.67 268.788 422.315 268.057C414.437 263.804 406.573 259.536 398.704 255.268C397.437 254.581 396.38 252.583 396.39 250.868C396.4 249.153 397.471 248.339 398.738 249.026H398.733Z" fill="white"/>
</g>
<path fill-rule="evenodd" clip-rule="evenodd" d="M158.094 425.422C159.59 450.096 161.118 474.719 162.653 499.342C164.181 523.913 165.773 548.575 167.391 573.185C181.54 586.318 195.818 599.56 210.089 612.763C224.252 615.436 238.484 618.051 252.781 620.768C254.424 597.859 256.1 574.892 257.711 551.97C259.322 529.054 261.004 506.049 262.711 483.05C227.73 463.76 192.883 444.559 158.094 425.422Z" fill="url(#paint9_linear)"/>
<path fill-rule="evenodd" clip-rule="evenodd" d="M242.135 518.594C241.674 524.291 241.348 530.084 240.952 535.876C239.641 553.178 238.394 570.403 237.154 587.629C228.132 585.921 219.104 584.214 210.146 582.507C210.082 582.526 210.082 582.526 210.082 582.526C201.073 574.201 192.058 565.889 183.049 557.52C182.429 547.878 181.808 538.178 181.182 528.421C185.568 530.851 189.948 533.274 194.398 535.736C194.705 540.761 195.018 545.781 195.389 550.838C200.274 555.314 205.165 559.796 210.114 564.259C214.942 565.256 219.903 566.235 224.859 567.219C225.511 559.457 226.227 551.727 226.937 544.061C211.431 535.538 195.997 527.021 180.491 518.466C180.057 512.75 179.679 506.976 179.244 501.145C195.511 509.917 211.783 518.696 228.049 527.436C228.382 521.669 228.708 515.902 229.04 510.192C212.007 500.819 194.973 491.464 177.998 482.091C177.691 476.503 177.377 470.799 177.128 465.128C188.19 471.202 199.187 477.283 210.312 483.402C221.31 489.495 232.307 495.588 243.369 501.695C242.909 507.34 242.519 512.961 242.122 518.581L242.135 518.594Z" fill="#FAFAFA"/>
<path fill-rule="evenodd" clip-rule="evenodd" d="M343.912 72.5351C345.468 97.7423 347.019 122.913 348.575 148.042C350.126 173.14 351.677 198.242 353.223 223.302C367.879 236.938 382.53 250.555 397.269 264.264C412.149 267.059 427.029 269.901 442.005 272.733C443.766 249.384 445.574 225.993 447.335 202.593C449.101 179.152 450.913 155.665 452.68 132.133C416.239 112.169 379.986 92.2927 343.912 72.5305V72.5351ZM430.899 167.997C413.471 158.402 396.083 148.829 378.788 139.298C379.126 145.626 379.51 151.982 379.895 158.296C396.408 167.416 412.972 176.553 429.577 185.732C428.214 203.458 426.85 221.138 425.487 238.777C416.244 237.02 406.955 235.19 397.717 233.396C397.717 233.438 397.717 233.479 397.717 233.479C397.58 233.401 397.488 233.351 397.397 233.3C388.094 224.753 378.838 216.256 369.623 207.754C369.069 198.095 368.515 188.39 368.003 178.672C372.459 181.143 376.962 183.636 381.464 186.135C381.762 191.044 382.064 195.949 382.407 200.882C387.399 205.471 392.441 210.065 397.479 214.645C402.576 215.684 407.632 216.686 412.734 217.688C413.315 210.285 413.896 202.886 414.523 195.551C398.742 186.825 383.002 178.123 367.358 169.456C366.2 150.769 365.083 132.073 363.972 113.377C386.598 125.837 409.403 138.351 432.213 150.902C431.773 156.613 431.334 162.327 430.895 167.997H430.899Z" fill="url(#paint10_linear)"/>
<path fill-rule="evenodd" clip-rule="evenodd" d="M430.899 167.997C413.471 158.402 396.083 148.829 378.787 139.298C379.126 145.626 379.51 151.982 379.895 158.296C396.408 167.416 412.972 176.553 429.577 185.732C428.214 203.458 426.85 221.138 425.486 238.777C416.244 237.02 406.955 235.19 397.717 233.396C397.717 233.437 397.717 233.479 397.717 233.479C397.58 233.401 397.488 233.35 397.397 233.3C388.094 224.753 378.838 216.256 369.622 207.754C369.069 198.095 368.515 188.39 368.003 178.672C372.459 181.142 376.962 183.636 381.464 186.134C381.762 191.044 382.064 195.949 382.407 200.882C387.399 205.471 392.441 210.065 397.479 214.645C402.576 215.684 407.632 216.686 412.734 217.688C413.315 210.285 413.896 202.886 414.523 195.551C398.742 186.825 383.002 178.123 367.357 169.456C366.2 150.769 365.083 132.073 363.971 113.377C386.598 125.837 409.403 138.351 432.213 150.902C431.773 156.612 431.334 162.327 430.895 167.997H430.899Z" fill="white"/>
<path fill-rule="evenodd" clip-rule="evenodd" d="M160.701 22.1075L209.214 48.2072C212.874 50.1726 215.87 57.2041 215.87 63.8164V118.619C215.87 125.231 212.874 129.039 209.214 127.065L192.749 118.208L184.957 128.096L177.166 109.823L160.701 100.966C157.041 99.0003 154.045 91.9688 154.045 85.3565V30.5541C154.045 23.9418 157.041 20.1334 160.701 22.1075Z" fill="url(#paint11_linear)"/>
<path d="M177.506 76.2024C177.419 79.9321 176.825 82.4652 175.75 83.8191C174.667 85.173 173.147 85.3303 171.173 84.2646C169.103 83.1466 167.522 81.0677 166.413 78.0105C165.312 74.9533 164.762 71.1449 164.762 66.5853V61.0125C164.762 56.4704 165.33 53.2734 166.465 51.4129C167.61 49.5698 169.191 49.1855 171.217 50.2774C173.209 51.3517 174.728 53.1773 175.759 55.7366C176.79 58.3047 177.384 61.5191 177.524 65.3624L173.82 63.3709C173.785 61.0212 173.584 59.3092 173.226 58.2173C172.859 57.1342 172.195 56.3393 171.226 55.8152C170.239 55.2824 169.54 55.5357 169.121 56.5577C168.71 57.5971 168.492 59.5275 168.466 62.3838V68.638C168.466 71.9223 168.666 74.2982 169.077 75.7394C169.488 77.1894 170.178 78.1764 171.173 78.7093C172.143 79.2334 172.815 79.1635 173.182 78.5084C173.549 77.8532 173.759 76.412 173.811 74.2021L177.506 76.1849V76.2024ZM187.516 83.9152C187.516 82.5701 187.324 81.4433 186.948 80.5523C186.564 79.6526 185.874 78.5608 184.87 77.2855C183.035 75.0406 181.716 72.8569 180.913 70.7344C180.109 68.6118 179.707 66.3931 179.707 64.0959C179.707 61.3095 180.258 59.3703 181.349 58.261C182.441 57.1604 183.83 57.0643 185.516 57.9727C186.634 58.5755 187.639 59.545 188.521 60.8727C189.403 62.2091 190.076 63.7814 190.547 65.5895C191.019 67.4064 191.255 69.3018 191.255 71.2934L187.577 69.3106C187.577 67.7645 187.394 66.4892 187.036 65.4934C186.669 64.4802 186.145 63.7989 185.455 63.4233C184.808 63.0739 184.302 63.1438 183.944 63.6417C183.586 64.1395 183.402 64.9694 183.402 66.1311C183.402 67.0395 183.603 67.9654 184.005 68.9262C184.407 69.8696 185.123 71.0226 186.145 72.359C187.927 74.4816 189.228 76.6129 190.032 78.7442C190.835 80.8755 191.246 83.2514 191.246 85.8806C191.246 88.7543 190.739 90.7284 189.726 91.8115C188.713 92.8859 187.333 92.9558 185.595 92.0212C184.415 91.3835 183.341 90.3615 182.363 88.964C181.393 87.5577 180.633 85.8893 180.083 83.9589C179.533 82.0285 179.262 79.9496 179.262 77.7222L182.965 79.7138C182.965 81.618 183.175 83.1204 183.577 84.2035C183.987 85.2866 184.66 86.0815 185.586 86.5794C186.879 87.2781 187.516 86.3872 187.516 83.924V83.9152ZM201.413 91.3923C201.413 90.0471 201.221 88.9203 200.846 88.0293C200.461 87.1297 199.771 86.0378 198.767 84.7625C196.932 82.5177 195.613 80.3339 194.81 78.2114C194.006 76.0888 193.604 73.8702 193.604 71.5729C193.604 68.7865 194.155 66.8473 195.247 65.738C196.338 64.6374 197.727 64.5414 199.413 65.441C200.531 66.0437 201.536 67.0133 202.418 68.341C203.3 69.6774 203.973 71.2497 204.444 73.0578C204.916 74.8747 205.152 76.7701 205.152 78.7617L201.475 76.7789C201.475 75.2328 201.291 73.9575 200.933 72.9617C200.566 71.9485 200.042 71.2672 199.352 70.8916C198.706 70.5422 198.199 70.6121 197.841 71.1099C197.483 71.6078 197.299 72.4376 197.299 73.5994C197.299 74.5078 197.5 75.4337 197.902 76.3945C198.304 77.3379 199.02 78.4909 200.042 79.8273C201.824 81.9499 203.125 84.0812 203.929 86.2125C204.733 88.3438 205.143 90.7197 205.143 93.3489C205.143 96.2226 204.637 98.1967 203.623 99.2798C202.61 100.354 201.23 100.424 199.492 99.4895C198.312 98.8518 197.238 97.8298 196.26 96.4323C195.29 95.026 194.53 93.3576 193.98 91.4185C193.43 89.4881 193.159 87.4092 193.159 85.1818L196.863 87.1733C196.863 89.0775 197.072 90.5799 197.474 91.663C197.884 92.7462 198.557 93.541 199.483 94.0389C200.776 94.7377 201.413 93.8467 201.413 91.3835V91.3923Z" fill="white"/>
<path fill-rule="evenodd" clip-rule="evenodd" d="M48.3746 272.921L74.9967 287.244C77.0051 288.322 78.6493 292.181 78.6493 295.809V325.883C78.6493 329.511 77.0051 331.601 74.9967 330.518L65.9613 325.657L61.6857 331.083L57.41 321.056L48.3746 316.195C46.3662 315.117 44.722 311.258 44.722 307.63V277.556C44.722 273.928 46.3662 271.838 48.3746 272.921Z" fill="url(#paint12_linear)"/>
<path d="M54.6968 304.917L53.1582 304.087V298.177L50.8766 296.95V302.86L49.3331 302.031V288.212L50.8766 289.041V294.64L53.1582 295.867V290.268L54.6968 291.098V304.917ZM60.7364 296.677L58.8479 295.661V307.146L57.2996 306.312V294.827L55.4398 293.825V291.491L60.7364 294.338V296.672V296.677ZM63.6412 295.905L65.084 306.676L66.522 297.458L68.54 298.542V312.361L66.9917 311.527V307.788L67.1355 302.103L65.6065 310.784L64.5567 310.218L63.0276 299.893L63.1714 305.732V309.47L61.628 308.641V294.822L63.646 295.905H63.6412ZM71.3201 311.541L74.0284 312.998V315.313L69.7767 313.027V299.208L71.3201 300.037V311.541Z" fill="#FF0478"/>
<path fill-rule="evenodd" clip-rule="evenodd" d="M591.78 436.18C590.255 431.388 588.621 426.614 586.897 421.713C585.209 416.921 583.466 412.184 581.615 407.392C587.042 411.458 592.197 415.76 597.135 420.025C595.701 425.416 593.904 430.898 591.78 436.18ZM591.689 462.627C590.128 465.568 588.458 468.527 586.716 471.449C585.009 474.299 583.212 477.094 581.343 479.653C586.788 481.814 591.961 483.538 596.899 484.936C595.501 477.82 593.74 470.305 591.689 462.627ZM553.516 449.522C531.008 436.616 531.226 392.634 553.716 405.522C576.115 418.374 575.933 462.373 553.516 449.522ZM605.212 486.733C607.935 487.15 610.549 487.495 613.035 487.677C620.351 488.13 626.322 486.969 630.243 484.627C637.486 480.071 637.504 471.195 630.316 458.362C626.431 451.446 620.496 443.641 613.217 435.636C610.73 432.967 608.134 430.335 605.43 427.722C603.234 435.926 600.275 444.185 596.735 452.208C600.202 464.243 603.088 475.951 605.23 486.733H605.212ZM616.158 499.802C613.344 499.62 610.422 499.294 607.39 498.785C608.134 503.124 608.661 507.462 609.097 511.437C611.892 538.011 608.171 553.567 598.587 555.255C589.003 556.834 575.371 544.346 560.196 519.95C557.873 516.138 555.513 512.199 553.28 508.025C550.902 509.549 548.506 510.765 546.165 511.909C530.845 518.807 517.177 515.666 507.647 503.124C498.117 490.49 494.56 470.741 497.573 447.489C498.027 444.022 498.607 440.337 499.37 436.852C496.338 433.875 493.434 430.862 490.639 427.831C453.319 387.298 453.537 352.792 491.056 355.242C493.87 355.424 496.792 355.841 499.824 356.349C499.097 352.011 498.571 347.782 498.154 343.716C495.413 317.36 499.188 302.003 508.736 300.406C518.302 298.718 531.843 311.279 546.963 335.457C549.269 339.178 551.628 343.099 553.97 347.31C556.221 345.749 558.599 344.533 560.94 343.48C576.188 336.727 589.783 339.741 599.276 352.374C608.77 364.899 612.382 384.466 609.423 407.555C608.969 411.131 608.407 414.725 607.644 418.21C610.676 421.187 613.58 424.109 616.375 427.141C653.641 467.564 653.568 502.143 616.139 499.802H616.158ZM476.753 396.628C480.637 403.453 486.555 411.44 493.834 419.354C496.32 422.022 498.916 424.654 501.621 427.359C503.853 419.063 506.812 410.714 510.388 402.727C506.939 390.692 504.071 379.111 501.965 368.42C499.243 367.912 496.629 367.567 494.142 367.386C486.827 367.023 480.855 367.985 476.916 370.417C469.656 374.955 469.583 383.831 476.753 396.646V396.628ZM519.845 408.154C522.186 415.905 524.782 423.91 527.596 431.933C530.445 440.065 533.404 447.997 536.508 455.512C541.99 459.324 547.635 462.845 553.425 466.149C559.107 469.434 564.752 472.375 570.234 474.861C573.374 470.923 576.405 466.439 579.31 461.593C582.178 456.819 584.846 451.845 587.224 446.817C584.882 439.066 582.268 431.152 579.455 423.129C576.605 414.997 573.628 407.265 570.542 399.55C565.061 395.829 559.434 392.326 553.77 389.04C547.98 385.737 542.335 382.796 536.871 380.219C533.731 384.357 530.7 388.641 527.795 393.488C524.927 398.243 522.241 403.126 519.845 408.172V408.154ZM599.077 496.916C591.526 494.883 583.43 492.069 574.935 488.239C569.925 494.266 564.679 499.493 559.307 503.686C561.394 507.371 563.463 510.947 565.514 514.232C571.686 524.18 577.64 531.985 582.722 536.922C584.9 539.118 586.897 540.661 588.73 541.696C590.818 542.894 592.687 543.384 594.267 543.057C597.189 542.64 599.258 539.518 600.402 533.854C601.618 527.846 601.673 518.897 600.565 508.224C600.184 504.648 599.676 500.927 599.059 496.934L599.077 496.916ZM515.289 418.827C513.165 424.109 511.35 429.591 509.898 435.073C514.817 439.339 519.99 443.532 525.417 447.616C523.584 442.933 521.823 438.086 520.153 433.294C518.447 428.393 516.795 423.529 515.289 418.827ZM547.127 496.698C541.826 486.388 536.653 475.188 531.734 463.462C523.257 457.545 515.125 451.065 507.647 444.476C506.993 447.743 506.467 450.883 506.05 453.987C504.852 463.353 504.797 472.32 505.995 479.69C507.066 486.624 509.099 492.087 512.003 495.863C513.583 498.005 515.434 499.638 517.521 500.855C519.337 501.889 521.351 502.67 523.53 502.96C528.63 503.886 534.62 502.906 540.864 500.074C542.934 499.148 545.039 497.968 547.145 496.68L547.127 496.698ZM543.043 471.013C546.364 478.383 549.777 485.589 553.244 492.36C556.783 489.601 560.232 486.315 563.608 482.812C560.214 481.051 556.783 479.182 553.389 477.221C549.868 475.224 546.437 473.173 543.043 471.031V471.013ZM599.385 410.605C591.871 403.997 583.793 397.644 575.334 391.654C570.415 380.019 565.242 368.838 559.96 358.528C562.066 357.239 564.153 356.15 566.204 355.224C572.412 352.465 578.366 351.485 583.448 352.392C585.608 352.773 587.623 353.536 589.438 354.589C591.526 355.787 593.377 357.42 594.938 359.471C597.842 363.338 599.875 368.711 600.946 375.554C602.108 382.814 602.108 391.727 600.928 401.093C600.529 404.215 600.003 407.355 599.349 410.623L599.385 410.605ZM515.434 392.507C513.383 384.72 511.64 377.224 510.261 370.199C515.198 371.597 520.371 373.212 525.799 375.39C523.929 378.041 522.132 380.745 520.426 383.595C518.665 386.517 516.995 389.385 515.434 392.507ZM547.798 351.557C542.444 355.768 537.216 360.978 532.206 366.914C523.729 363.193 515.616 360.27 508.119 358.255C507.502 354.262 507.012 350.541 506.649 346.983C505.559 336.31 505.614 327.434 506.866 321.553C508.01 315.98 510.079 312.967 513.002 312.44C514.581 312.204 516.432 312.695 518.52 313.893C520.335 314.927 522.332 316.47 524.492 318.558C529.556 323.477 535.473 331.282 541.627 341.12C543.66 344.387 545.747 347.873 547.817 351.557H547.798ZM543.515 372.359C546.891 368.838 550.34 365.552 553.825 362.866C557.31 369.546 560.704 376.77 564.044 384.121C560.65 381.979 557.237 379.928 553.843 377.968C550.34 375.971 546.909 374.102 543.515 372.359Z" fill="url(#paint13_linear)"/>
<g opacity="0.1">
<path d="M35.4312 222.396C33.8867 224.072 31.4653 224.301 28.7878 222.714C26.1102 221.127 23.7625 218.085 22.2841 214.631" stroke="white" stroke-width="3" stroke-miterlimit="22.9256"/>
<path d="M48.78 230.278C47.2433 226.762 44.8336 223.665 42.1172 222.07C39.4047 220.475 36.9833 220.72 35.4272 222.396" stroke="white" stroke-width="3" stroke-miterlimit="22.9256"/>
<path d="M62.2997 238.26C60.7126 239.952 58.233 240.165 55.4778 238.535C52.7266 236.905 50.3013 233.793 48.7801 230.278" stroke="white" stroke-width="3" stroke-miterlimit="22.9256"/>
<path d="M76.0366 246.366C74.4495 242.784 71.9659 239.618 69.1759 237.976C66.3858 236.335 63.8984 236.568 62.3035 238.259" stroke="white" stroke-width="3" stroke-miterlimit="22.9256"/>
<path d="M35.5864 205.815C34.042 207.507 31.6283 207.767 28.9546 206.203C26.281 204.643 23.9372 201.612 22.4626 198.174" stroke="white" stroke-width="3" stroke-miterlimit="22.9256"/>
<path d="M48.9159 213.568C47.3792 210.084 44.9733 207.018 42.2648 205.446C39.5562 203.879 37.1386 204.139 35.5826 205.815" stroke="white" stroke-width="3" stroke-miterlimit="22.9256"/>
<path d="M62.4121 221.422C60.8327 223.13 58.3531 223.366 55.6018 221.76C52.8544 220.153 50.433 217.068 48.9157 213.568" stroke="white" stroke-width="3" stroke-miterlimit="22.9256"/>
<path d="M76.1218 229.393C74.5386 225.842 72.0551 222.699 69.2728 221.088C66.4904 219.474 64.0069 219.73 62.412 221.422" stroke="white" stroke-width="3" stroke-miterlimit="22.9256"/>
<path d="M35.7377 189.311C34.1972 190.995 31.7874 191.271 29.1176 189.734C26.4479 188.197 24.1079 185.202 22.6333 181.798" stroke="white" stroke-width="3" stroke-miterlimit="22.9256"/>
<path d="M49.0478 196.929C47.5189 193.467 45.113 190.421 42.4083 188.881C39.7036 187.336 37.29 187.619 35.7378 189.315" stroke="white" stroke-width="3" stroke-miterlimit="22.9256"/>
<path d="M62.5208 204.651C60.9453 206.351 58.4657 206.618 55.7222 205.039C52.9787 203.46 50.5612 200.398 49.0439 196.925" stroke="white" stroke-width="3" stroke-miterlimit="22.9256"/>
<path d="M76.2112 212.489C74.628 208.954 72.1522 205.846 69.3738 204.267C66.5954 202.683 64.1157 202.943 62.5247 204.651" stroke="white" stroke-width="3" stroke-miterlimit="22.9256"/>
<path d="M35.893 172.842C34.3563 174.534 31.9465 174.829 29.2845 173.32C26.6186 171.81 24.2826 168.834 22.8119 165.454" stroke="white" stroke-width="3" stroke-miterlimit="22.9256"/>
<path d="M49.1797 180.339C47.6546 176.897 45.2526 173.882 42.5518 172.369C39.851 170.856 37.4412 171.15 35.8929 172.842" stroke="white" stroke-width="3" stroke-miterlimit="22.9256"/>
<path d="M62.6296 187.933C61.0541 189.641 58.5822 189.92 55.8426 188.372C53.103 186.824 50.6971 183.781 49.1759 180.339" stroke="white" stroke-width="3" stroke-miterlimit="22.9256"/>
<path d="M76.2966 195.64C74.7173 192.136 72.2454 189.051 69.4708 187.491C66.6963 185.931 64.2205 186.226 62.6295 187.934" stroke="white" stroke-width="3" stroke-miterlimit="22.9256"/>
<path d="M36.0481 156.443C34.5114 158.135 32.1094 158.446 29.4474 156.963C26.7854 155.481 24.4532 152.532 22.9864 149.183" stroke="white" stroke-width="3" stroke-miterlimit="22.9256"/>
<path d="M49.3117 163.813C47.7905 160.386 45.3924 157.398 42.6993 155.908C40.0063 154.418 37.5926 154.74 36.0482 156.448" stroke="white" stroke-width="3" stroke-miterlimit="22.9256"/>
<path d="M62.742 171.275C61.1704 172.982 58.7024 173.281 55.9666 171.756C53.2309 170.231 50.8289 167.223 49.3116 163.809" stroke="white" stroke-width="3" stroke-miterlimit="22.9256"/>
<path d="M76.382 178.854C74.8104 175.365 72.3385 172.311 69.5678 170.778C66.7972 169.245 64.3253 169.556 62.7421 171.279" stroke="white" stroke-width="3" stroke-miterlimit="22.9256"/>
</g>
<g opacity="0.1">
<path fill-rule="evenodd" clip-rule="evenodd" d="M562.88 561.084C564.718 562.146 566.188 564.866 566.188 567.137C566.188 569.4 564.71 570.397 562.88 569.335C561.05 568.273 559.579 565.569 559.579 563.298C559.579 561.026 561.05 560.022 562.888 561.084H562.88ZM623.422 699.961C625.203 700.965 626.657 703.588 626.649 705.81C626.641 708.032 625.178 708.996 623.397 707.991C621.616 706.986 620.162 704.38 620.171 702.158C620.179 699.936 621.641 698.948 623.422 699.952V699.961ZM623.479 682.781C625.268 683.794 626.714 686.432 626.706 688.654C626.698 690.876 625.235 691.873 623.446 690.86C621.657 689.847 620.211 687.208 620.22 684.986C620.228 682.764 621.69 681.768 623.479 682.781ZM608.382 691.481C610.171 692.494 611.626 695.124 611.617 697.355C611.609 699.577 610.155 700.549 608.358 699.544C606.569 698.539 605.115 695.925 605.123 693.695C605.131 691.465 606.585 690.476 608.382 691.481ZM608.423 674.252C610.212 675.265 611.666 677.92 611.658 680.142C611.65 682.364 610.188 683.369 608.399 682.348C606.61 681.335 605.155 678.688 605.164 676.458C605.172 674.228 606.634 673.231 608.423 674.244V674.252ZM593.286 682.969C595.091 683.982 596.537 686.62 596.529 688.859C596.521 691.089 595.066 692.061 593.269 691.048C591.472 690.035 590.002 687.413 590.002 685.182C590.002 682.952 591.48 681.956 593.286 682.977V682.969ZM593.318 665.691C595.124 666.712 596.57 669.367 596.57 671.597C596.561 673.827 595.107 674.832 593.31 673.811C591.505 672.79 590.034 670.135 590.042 667.896C590.042 665.666 591.521 664.661 593.326 665.683L593.318 665.691ZM578.107 674.407C579.921 675.428 581.383 678.075 581.375 680.314C581.375 682.552 579.904 683.524 578.099 682.511C576.285 681.49 574.815 678.859 574.815 676.621C574.815 674.383 576.294 673.386 578.107 674.407ZM578.123 657.08C579.937 658.11 581.399 660.773 581.399 663.011C581.399 665.25 579.929 666.254 578.115 665.233C576.302 664.212 574.831 661.541 574.831 659.302C574.831 657.064 576.31 656.067 578.123 657.088V657.08ZM562.855 665.805C564.677 666.834 566.147 669.489 566.147 671.736C566.147 673.982 564.677 674.955 562.855 673.933C561.033 672.912 559.571 670.274 559.571 668.027C559.571 665.781 561.033 664.784 562.855 665.805ZM562.855 648.429C564.685 649.458 566.147 652.138 566.147 654.384C566.147 656.631 564.677 657.636 562.847 656.598C561.017 655.569 559.555 652.898 559.555 650.651C559.555 648.405 561.017 647.4 562.847 648.429H562.855ZM623.528 665.593C625.317 666.614 626.771 669.228 626.763 671.466C626.755 673.705 625.293 674.677 623.504 673.664C621.715 672.643 620.26 670.02 620.269 667.782C620.277 665.544 621.739 664.58 623.528 665.601V665.593ZM623.585 648.356C625.374 649.385 626.828 651.999 626.82 654.237C626.812 656.476 625.35 657.464 623.561 656.443C621.772 655.422 620.318 652.767 620.326 650.529C620.334 648.29 621.796 647.334 623.585 648.356ZM623.642 631.069C625.432 632.099 626.886 634.762 626.877 636.992C626.869 639.231 625.399 640.211 623.61 639.182C621.821 638.152 620.367 635.505 620.375 633.267C620.383 631.029 621.845 630.04 623.642 631.069ZM623.7 613.775C625.489 614.813 626.951 617.468 626.943 619.714C626.935 621.953 625.464 622.933 623.675 621.904C621.886 620.866 620.424 618.211 620.432 615.965C620.44 613.718 621.911 612.746 623.7 613.783V613.775ZM623.757 596.424C625.554 597.469 627.008 600.149 627 602.395C626.992 604.634 625.521 605.622 623.732 604.585C621.935 603.547 620.481 600.868 620.489 598.629C620.497 596.383 621.968 595.386 623.757 596.432V596.424ZM608.464 657.007C610.261 658.028 611.715 660.658 611.707 662.897C611.699 665.135 610.237 666.115 608.448 665.094C606.65 664.073 605.196 661.443 605.204 659.196C605.213 656.95 606.675 655.986 608.464 657.007ZM608.505 639.721C610.302 640.75 611.756 643.38 611.748 645.619C611.74 647.857 610.278 648.854 608.48 647.833C606.683 646.803 605.229 644.14 605.237 641.902C605.245 639.655 606.708 638.691 608.505 639.721ZM608.546 622.386C610.343 623.423 611.797 626.086 611.797 628.333C611.789 630.571 610.327 631.551 608.529 630.522C606.732 629.493 605.278 626.838 605.278 624.591C605.286 622.345 606.748 621.356 608.546 622.386ZM608.587 605.042C610.384 606.08 611.846 608.751 611.838 610.998C611.83 613.244 610.367 614.225 608.57 613.187C606.773 612.15 605.311 609.486 605.319 607.232C605.327 604.985 606.789 603.997 608.595 605.042H608.587ZM593.335 648.388C595.14 649.418 596.594 652.048 596.586 654.295C596.578 656.541 595.124 657.521 593.318 656.5C591.513 655.479 590.042 652.824 590.042 650.578C590.042 648.323 591.521 647.359 593.326 648.388H593.335ZM593.367 631.053C595.173 632.082 596.627 634.721 596.619 636.968C596.61 639.214 595.156 640.219 593.351 639.182C591.546 638.152 590.075 635.473 590.075 633.226C590.075 630.971 591.562 630.016 593.367 631.045V631.053ZM593.4 613.669C595.205 614.706 596.659 617.386 596.659 619.633C596.651 621.879 595.197 622.868 593.384 621.83C591.578 620.793 590.1 618.121 590.108 615.875C590.108 613.62 591.595 612.632 593.4 613.677V613.669ZM593.433 596.277C595.246 597.322 596.7 599.994 596.692 602.248C596.684 604.503 595.23 605.483 593.416 604.446C591.611 603.4 590.132 600.721 590.132 598.466C590.132 596.211 591.619 595.231 593.424 596.277H593.433ZM578.132 639.729C579.945 640.758 581.408 643.405 581.408 645.66C581.408 647.914 579.937 648.895 578.123 647.865C576.31 646.836 574.831 644.181 574.831 641.918C574.831 639.663 576.31 638.691 578.132 639.729ZM578.148 622.345C579.962 623.382 581.432 626.029 581.424 628.284C581.424 630.538 579.953 631.535 578.14 630.506C576.326 629.468 574.848 626.789 574.848 624.526C574.848 622.271 576.334 621.307 578.148 622.345ZM578.164 604.912C579.986 605.957 581.448 608.637 581.448 610.891C581.448 613.146 579.978 614.135 578.156 613.089C576.343 612.051 574.856 609.372 574.864 607.109C574.864 604.854 576.351 603.858 578.164 604.903V604.912ZM578.181 587.47C580.002 588.524 581.465 591.212 581.465 593.466C581.465 595.721 579.994 596.71 578.172 595.664C576.351 594.618 574.872 591.922 574.872 589.668C574.872 587.413 576.359 586.425 578.181 587.478V587.47ZM562.855 631.029C564.685 632.066 566.156 634.721 566.156 636.984C566.156 639.247 564.685 640.227 562.855 639.19C561.025 638.152 559.563 635.489 559.563 633.226C559.563 630.963 561.025 629.991 562.855 631.029ZM562.855 613.595C564.685 614.641 566.156 617.296 566.156 619.559C566.156 621.822 564.685 622.819 562.855 621.781C561.025 620.735 559.563 618.048 559.563 615.785C559.563 613.522 561.033 612.55 562.855 613.595ZM562.855 596.113C564.685 597.167 566.164 599.863 566.164 602.118C566.164 604.381 564.685 605.361 562.855 604.315C561.025 603.27 559.555 600.582 559.555 598.319C559.555 596.056 561.025 595.059 562.855 596.105V596.113ZM562.855 578.623C564.685 579.677 566.164 582.381 566.164 584.644C566.164 586.907 564.685 587.895 562.855 586.841C561.025 585.787 559.555 583.1 559.555 580.837C559.555 578.574 561.025 577.569 562.855 578.623ZM608.636 587.642C610.433 588.687 611.895 591.383 611.887 593.63C611.879 595.876 610.416 596.865 608.611 595.819C606.814 594.774 605.352 592.094 605.36 589.839C605.368 587.593 606.83 586.588 608.636 587.634V587.642ZM593.457 578.835C595.271 579.889 596.725 582.585 596.725 584.84C596.717 587.094 595.254 588.083 593.449 587.037C591.635 585.992 590.165 583.296 590.165 581.033C590.165 578.778 591.652 577.782 593.465 578.827L593.457 578.835ZM578.189 569.98C580.011 571.034 581.481 573.746 581.473 576.009C581.473 578.272 579.994 579.26 578.181 578.206C576.359 577.153 574.88 574.449 574.88 572.186C574.88 569.923 576.367 568.926 578.189 569.98Z" fill="white"/>
</g>
<g opacity="0.45">
<path fill-rule="evenodd" clip-rule="evenodd" d="M99.7711 501.087C101.349 501.998 102.612 504.334 102.612 506.284C102.612 508.226 101.342 509.082 99.7711 508.17C98.2001 507.258 96.9377 504.937 96.9377 502.987C96.9377 501.038 98.2001 500.175 99.7781 501.087H99.7711ZM112.844 598.377C114.401 599.254 115.657 601.527 115.65 603.448C115.65 605.37 114.387 606.205 112.837 605.335C111.28 604.458 110.018 602.2 110.018 600.278C110.018 598.356 111.287 597.501 112.844 598.377ZM112.858 583.502C114.415 584.386 115.671 586.672 115.671 588.594C115.671 590.515 114.408 591.378 112.851 590.501C111.294 589.625 110.032 587.331 110.032 585.41C110.032 583.488 111.301 582.632 112.858 583.509V583.502ZM99.7501 590.992C101.314 591.876 102.576 594.155 102.576 596.084C102.576 598.013 101.314 598.847 99.7501 597.971C98.1861 597.094 96.9307 594.829 96.9307 592.9C96.9307 590.971 98.1861 590.116 99.7501 590.992ZM99.7501 576.075C101.321 576.958 102.576 579.259 102.576 581.187C102.576 583.116 101.314 583.979 99.7431 583.088C98.172 582.204 96.9166 579.911 96.9166 577.982C96.9166 576.054 98.172 575.191 99.7431 576.075H99.7501ZM112.865 568.605C114.422 569.489 115.678 571.761 115.678 573.697C115.678 575.633 114.415 576.474 112.858 575.591C111.301 574.707 110.032 572.428 110.032 570.485C110.032 568.549 111.301 567.715 112.865 568.605ZM112.879 553.681C114.436 554.571 115.699 556.844 115.692 558.779C115.692 560.715 114.429 561.571 112.872 560.687C111.315 559.796 110.046 557.496 110.046 555.553C110.046 553.618 111.322 552.79 112.879 553.681ZM112.893 538.714C114.457 539.612 115.713 541.912 115.713 543.848C115.713 545.783 114.45 546.632 112.886 545.734C111.329 544.844 110.053 542.543 110.06 540.601C110.06 538.665 111.336 537.809 112.893 538.707V538.714ZM112.907 523.74C114.471 524.645 115.727 526.952 115.727 528.888C115.727 530.824 114.464 531.672 112.9 530.775C111.336 529.877 110.067 527.562 110.067 525.627C110.067 523.691 111.343 522.842 112.907 523.747V523.74ZM99.7501 561.136C101.321 562.027 102.584 564.306 102.584 566.249C102.584 568.192 101.321 569.033 99.7501 568.142C98.1791 567.252 96.9236 564.965 96.9236 563.023C96.9236 561.08 98.1791 560.245 99.7501 561.136ZM99.7501 546.169C101.321 547.067 102.584 549.346 102.584 551.289C102.584 553.232 101.321 554.087 99.7501 553.197C98.1791 552.299 96.9236 549.992 96.9236 548.049C96.9236 546.106 98.1861 545.271 99.7501 546.169ZM99.7501 531.16C101.321 532.065 102.591 534.38 102.591 536.315C102.591 538.258 101.321 539.1 99.7501 538.202C98.1791 537.304 96.9166 534.997 96.9166 533.054C96.9166 531.111 98.1791 530.256 99.7501 531.153V531.16ZM99.7501 516.145C101.321 517.049 102.591 519.371 102.591 521.313C102.591 523.256 101.321 524.105 99.7501 523.2C98.1791 522.295 96.9166 519.988 96.9166 518.045C96.9166 516.102 98.1791 515.24 99.7501 516.145ZM112.914 508.724C114.478 509.629 115.741 511.958 115.734 513.9C115.734 515.843 114.464 516.692 112.907 515.787C111.343 514.882 110.074 512.561 110.074 510.618C110.074 508.675 111.35 507.82 112.914 508.724Z" fill="#FF0478"/>
</g>
<defs>
<filter id="filter0_d" x="0.467712" y="424.605" width="646.668" height="384.684" filterUnits="userSpaceOnUse" color-interpolation-filters="sRGB">
<feFlood flood-opacity="0" result="BackgroundImageFix"/>
<feColorMatrix in="SourceAlpha" type="matrix" values="0 0 0 0 0 0 0 0 0 0 0 0 0 0 0 0 0 0 127 0"/>
<feOffset dy="4"/>
<feGaussianBlur stdDeviation="20"/>
<feColorMatrix type="matrix" values="0 0 0 0 0 0 0 0 0 0 0 0 0 0 0 0 0 0 1 0"/>
<feBlend mode="normal" in2="BackgroundImageFix" result="effect1_dropShadow"/>
<feBlend mode="normal" in="SourceGraphic" in2="effect1_dropShadow" result="shape"/>
</filter>
<linearGradient id="paint0_linear" x1="257.02" y1="198.18" x2="56.6671" y2="376.615" gradientUnits="userSpaceOnUse">
<stop stop-color="#19184B"/>
<stop offset="1" stop-color="#110F38"/>
</linearGradient>
<linearGradient id="paint1_linear" x1="57.3691" y1="-21.2149" x2="-107.718" y2="593.396" gradientUnits="userSpaceOnUse">
<stop stop-color="#553FBE"/>
<stop offset="1" stop-color="#101245"/>
</linearGradient>
<linearGradient id="paint2_linear" x1="528.457" y1="551.677" x2="257.398" y2="500.645" gradientUnits="userSpaceOnUse">
<stop stop-color="#42E8E0" stop-opacity="0.24"/>
<stop offset="1" stop-color="#2258BB" stop-opacity="0.05"/>
</linearGradient>
<linearGradient id="paint3_linear" x1="263.411" y1="279.064" x2="-69.2865" y2="131.125" gradientUnits="userSpaceOnUse">
<stop stop-color="#42E8E0" stop-opacity="0.24"/>
<stop offset="1" stop-color="#2258BB" stop-opacity="0.05"/>
</linearGradient>
<linearGradient id="paint4_linear" x1="262.801" y1="455.815" x2="-55.0453" y2="296.969" gradientUnits="userSpaceOnUse">
<stop stop-color="#42E8E0" stop-opacity="0.24"/>
<stop offset="1" stop-color="#2258BB" stop-opacity="0.05"/>
</linearGradient>
<linearGradient id="paint5_linear" x1="393.701" y1="314.389" x2="179.702" y2="201.634" gradientUnits="userSpaceOnUse">
<stop stop-color="#42E8E0" stop-opacity="0.24"/>
<stop offset="1" stop-color="#2258BB" stop-opacity="0.05"/>
</linearGradient>
<linearGradient id="paint6_linear" x1="393.291" y1="393.161" x2="179.229" y2="280.763" gradientUnits="userSpaceOnUse">
<stop stop-color="#42E8E0" stop-opacity="0.24"/>
<stop offset="1" stop-color="#2258BB" stop-opacity="0.05"/>
</linearGradient>
<linearGradient id="paint7_linear" x1="392.936" y1="471.789" x2="178.836" y2="359.62" gradientUnits="userSpaceOnUse">
<stop stop-color="#42E8E0" stop-opacity="0.24"/>
<stop offset="1" stop-color="#2258BB" stop-opacity="0.05"/>
</linearGradient>
<linearGradient id="paint8_linear" x1="392.936" y1="548.771" x2="178.836" y2="436.602" gradientUnits="userSpaceOnUse">
<stop stop-color="#42E8E0" stop-opacity="0.24"/>
<stop offset="1" stop-color="#2258BB" stop-opacity="0.05"/>
</linearGradient>
<linearGradient id="paint9_linear" x1="332" y1="493.912" x2="143" y2="493.912" gradientUnits="userSpaceOnUse">
<stop stop-color="#02B0EF"/>
<stop offset="1" stop-color="#02B0EF" stop-opacity="0"/>
</linearGradient>
<linearGradient id="paint10_linear" x1="499.83" y1="118.862" x2="334.504" y2="120.959" gradientUnits="userSpaceOnUse">
<stop stop-color="#FFA408"/>
<stop offset="1" stop-color="#FFA408" stop-opacity="0"/>
</linearGradient>
<linearGradient id="paint11_linear" x1="294" y1="95.5858" x2="165.601" y2="148.251" gradientUnits="userSpaceOnUse">
<stop stop-color="#02B0EF"/>
<stop offset="1" stop-color="#02B0EF" stop-opacity="0"/>
</linearGradient>
<linearGradient id="paint12_linear" x1="121.524" y1="313.243" x2="51.064" y2="342.143" gradientUnits="userSpaceOnUse">
<stop stop-color="#02B0EF"/>
<stop offset="1" stop-color="#02B0EF" stop-opacity="0"/>
</linearGradient>
<linearGradient id="paint13_linear" x1="633.663" y1="409.099" x2="456.554" y2="409.099" gradientUnits="userSpaceOnUse">
<stop stop-color="#02B0EF"/>
<stop offset="1" stop-color="#02B0EF" stop-opacity="0"/>
</linearGradient>
</defs>
</svg>
