<svg width="648" height="801" viewBox="0 0 648 801" fill="none" xmlns="http://www.w3.org/2000/svg">
<g opacity="0.5" filter="url(#filter0_d)">
<ellipse rx="321.317" ry="15.4115" transform="matrix(0.881416 0.47234 -0.529491 0.848316 323.965 613.65)" fill="black" fill-opacity="0.01"/>
</g>
<path d="M56.8231 32.2521C56.8231 1.34993 85.5059 0.814055 85.5059 0.814055C89.3559 0.456805 93.9759 1.52855 98.596 4.02931L553.493 251.467C569.471 260.041 582.369 282.726 582.369 302.196V694.636C582.369 696.065 582.369 697.315 582.176 698.565C582.176 698.565 584.101 723.394 557.343 726.967C554.648 727.86 551.376 728.039 548.103 727.324C545.793 726.788 543.291 725.895 540.596 724.466L85.6983 477.028C69.7206 468.454 56.8231 445.769 56.8231 426.299V33.8597C56.8231 33.5024 56.8231 33.1452 56.8231 32.9666C56.8231 32.7879 56.8231 32.6093 56.8231 32.2521Z" fill="url(#paint0_linear)"/>
<path opacity="0.1" fill-rule="evenodd" clip-rule="evenodd" d="M88.6956 17.7374C149.814 50.5854 483.223 232.262 540.418 263.004C554.394 270.515 559.524 285.637 559.478 297.807C559.228 363.37 559.177 438.406 558.924 504.272C558.671 570.356 559.179 630.837 558.924 697.31C558.924 709.965 543.092 720.568 529.246 713.129C470.834 681.747 142.507 501.115 82.6492 468.957C73.7656 464.185 61.9949 450.065 61.8811 430.017C61.0924 291.049 60.3044 165.749 61.3552 32.0966C61.4376 21.7939 71.8375 8.67699 88.6956 17.7374Z" fill="white"/>
<path d="M69.3433 38.3252V431.479C69.3433 444.161 79.1609 459.523 91.0961 465.953L527.895 705.867C539.83 712.297 549.648 707.296 549.648 694.613V301.459C549.648 288.777 539.83 273.415 527.895 266.985C478.101 240.431 140.891 53.6264 91.0961 27.0718C79.1609 20.6413 69.3433 25.6428 69.3433 38.3252Z" fill="url(#paint1_linear)"/>
<path fill-rule="evenodd" clip-rule="evenodd" d="M217.442 144.925C245.175 160.298 272.912 175.687 300.596 191.046C328.278 206.403 356.066 221.806 383.801 237.18C388.422 239.743 392.203 246.728 392.176 252.69C392.044 282.793 391.909 312.854 391.776 342.784C391.75 348.657 387.946 351.359 383.345 348.812C355.738 333.528 328.079 318.214 300.525 302.945C272.969 287.675 245.361 272.374 217.756 257.09C213.153 254.543 209.356 247.619 209.338 241.716C209.243 211.628 209.148 181.41 209.053 151.106C209.035 145.113 212.819 142.365 217.442 144.928V144.925Z" fill="url(#paint2_linear)"/>
<path opacity="0.2" d="M255.582 189.468C262.612 193.368 268.978 200.581 273.597 209.081C278.267 217.563 281.088 227.317 281.091 236.371C281.093 245.384 278.278 251.925 273.621 255.235C269.018 258.576 262.674 258.742 255.664 254.855C248.602 250.939 242.251 243.732 237.632 235.277C233.011 226.821 230.125 217.072 230.105 208.09C230.085 199.022 232.938 192.413 237.541 189.074C242.147 185.693 248.502 185.539 255.585 189.468H255.582ZM272.418 209.943C268.107 202.049 262.152 195.323 255.585 191.681C248.967 188.008 243.021 188.132 238.722 191.25C234.426 194.412 231.777 200.57 231.795 209.03C231.812 217.404 234.492 226.518 238.804 234.412C243.114 242.306 249.057 249.026 255.66 252.688C262.209 256.319 268.144 256.186 272.441 253.066C276.739 249.948 279.399 243.797 279.399 235.434C279.397 226.985 276.728 217.879 272.418 209.943Z" fill="white"/>
<path d="M255.587 193.282C254.406 192.628 253.431 190.872 253.429 189.397C253.427 187.88 254.4 187.206 255.581 187.863C262.97 191.962 269.644 199.52 274.522 208.464C279.344 217.335 282.371 227.549 282.371 237.079C282.373 246.523 279.353 253.384 274.541 256.869C269.681 260.372 263.032 260.54 255.665 256.456C252.39 254.64 249.268 252.17 246.349 249.165C243.326 246.017 240.56 242.401 238.201 238.492C235.275 233.663 232.914 228.365 231.315 222.93C229.716 217.753 228.836 212.453 228.823 207.376C228.819 205.857 229.789 205.183 230.917 205.809C232.096 206.463 233.073 208.216 233.075 209.736C233.084 213.988 233.809 218.463 235.098 222.819C236.489 227.403 238.493 231.852 240.905 235.92C242.957 239.268 245.263 242.324 247.773 244.931C250.232 247.421 252.843 249.475 255.658 251.038C261.851 254.472 267.479 254.428 271.57 251.456C275.612 248.498 278.17 242.682 278.168 234.753C278.166 226.737 275.601 218.078 271.545 210.587C267.439 203.111 261.792 196.729 255.585 193.284L255.587 193.282Z" fill="#FF0478"/>
<path d="M252.587 211.42C252.589 212.418 252.589 213.371 252.591 214.326C252.49 214.268 252.388 214.211 252.335 214.184C251.105 213.543 250.093 213.388 249.363 213.793C248.607 214.213 248.136 215.062 247.983 216.409C248.7 215.854 249.673 215.916 250.749 216.513C251.979 217.196 252.954 218.255 253.622 219.71C254.34 221.278 254.701 222.91 254.703 224.688C254.705 225.815 254.537 226.804 254.144 227.54C253.77 228.243 253.175 228.623 252.507 228.756C251.795 228.898 250.97 228.683 250.048 228.172C248.613 227.376 247.41 226.085 246.511 224.303C245.615 222.529 245.173 220.484 245.171 218.359C245.171 217.97 245.168 217.534 245.168 217.101C245.166 215.149 245.469 213.627 246.031 212.466C246.592 211.305 247.406 210.613 248.434 210.377C249.504 210.131 250.738 210.399 252.123 211.166C252.277 211.25 252.43 211.336 252.585 211.423L252.587 211.42ZM249.933 218.919C249.474 218.662 249.122 218.633 248.755 218.697C248.35 218.77 248.089 218.978 247.937 219.37C247.937 219.761 247.939 220.106 247.939 220.453C247.941 221.623 248.087 222.625 248.456 223.469C248.859 224.393 249.33 224.951 249.995 225.32C250.61 225.66 251.081 225.623 251.428 225.249C251.797 224.851 251.99 224.175 251.988 223.219C251.985 222.264 251.771 221.375 251.422 220.608C251.055 219.805 250.548 219.257 249.933 218.916V218.919ZM264.487 229.289C265 229.572 265.511 229.857 266.024 230.143C266.024 231.096 266.026 232.051 266.026 233.004C265.513 232.721 265.003 232.436 264.49 232.153C264.492 233.408 264.492 234.667 264.494 235.923C263.572 235.412 262.65 234.901 261.728 234.388C261.726 233.13 261.726 231.874 261.723 230.616C259.828 229.565 257.931 228.513 256.036 227.463C255.983 226.653 255.932 225.888 255.93 225.152C257.821 222.302 259.714 219.451 261.657 216.63C262.579 217.141 263.503 217.654 264.476 218.193C264.479 221.921 264.483 225.605 264.485 229.291L264.487 229.289ZM258.646 226.05C259.669 226.618 260.695 227.186 261.719 227.754C261.717 225.718 261.715 223.593 261.712 221.512C261.611 221.585 261.56 221.687 261.507 221.789C260.536 223.199 259.563 224.654 258.643 226.05H258.646Z" fill="white"/>
<path fill-rule="evenodd" clip-rule="evenodd" d="M302.727 225.758C325.706 238.499 348.685 251.235 371.661 263.967C372.842 264.621 373.759 266.342 373.755 267.854C373.751 269.322 372.822 270.021 371.643 269.369C348.671 256.639 325.697 243.909 302.725 231.171C301.547 230.516 300.625 228.791 300.625 227.319C300.627 225.804 301.549 225.103 302.73 225.758H302.727Z" fill="white"/>
<path fill-rule="evenodd" clip-rule="evenodd" d="M302.72 239.007C325.686 251.739 348.651 264.467 371.616 277.19C372.795 277.842 373.715 279.565 373.708 281.033C373.704 282.503 372.775 283.244 371.596 282.592C348.635 269.871 325.677 257.148 302.716 244.42C301.537 243.766 300.615 241.999 300.617 240.526C300.617 239.053 301.542 238.353 302.72 239.007Z" fill="white"/>
<path fill-rule="evenodd" clip-rule="evenodd" d="M302.712 252.215C325.664 264.938 348.616 277.659 371.57 290.415C372.747 291.07 373.667 292.788 373.66 294.258C373.656 295.727 372.729 296.47 371.55 295.817C348.603 283.105 325.655 270.391 302.708 257.672C301.529 257.02 300.609 255.251 300.609 253.78C300.609 252.308 301.533 251.565 302.712 252.217V252.215Z" fill="white"/>
<path fill-rule="evenodd" clip-rule="evenodd" d="M302.701 265.464C315.707 272.674 328.713 279.881 341.77 287.116C342.896 287.739 343.866 289.446 343.864 290.961C343.86 292.431 342.885 293.104 341.759 292.48C328.704 285.249 315.7 278.043 302.698 270.835C301.522 270.182 300.6 268.458 300.602 266.987C300.602 265.473 301.527 264.814 302.703 265.466L302.701 265.464Z" fill="white"/>
<path fill-rule="evenodd" clip-rule="evenodd" d="M375.341 243.356C375.958 243.697 376.415 244.559 376.413 245.338C376.411 246.116 375.947 246.552 375.33 246.209C374.713 245.868 374.202 244.891 374.206 244.113C374.209 243.334 374.726 243.014 375.341 243.356Z" fill="white"/>
<path fill-rule="evenodd" clip-rule="evenodd" d="M379.447 245.634C380.064 245.975 380.575 246.866 380.57 247.642C380.568 248.42 380.051 248.827 379.436 248.485C378.819 248.144 378.308 247.167 378.313 246.391C378.315 245.612 378.832 245.292 379.447 245.634Z" fill="white"/>
<path fill-rule="evenodd" clip-rule="evenodd" d="M383.606 247.938C384.223 248.279 384.68 249.141 384.678 249.917C384.674 250.695 384.209 251.129 383.595 250.788C382.978 250.448 382.469 249.47 382.471 248.694C382.476 247.916 382.991 247.597 383.606 247.938Z" fill="white"/>
<path fill-rule="evenodd" clip-rule="evenodd" d="M419.762 255.794C441.542 267.883 463.318 279.978 485.144 292.06C489.458 294.448 492.864 300.905 492.817 306.375C492.563 336.916 492.311 367.413 492.059 397.825C492.015 403.296 488.552 405.768 484.258 403.393C462.531 391.38 440.854 379.355 419.176 367.335C414.884 364.956 411.375 358.601 411.404 353.119C411.554 322.638 411.704 292.069 411.855 261.415C411.881 255.976 415.45 253.402 419.762 255.796V255.794Z" fill="url(#paint3_linear)"/>
<path fill-rule="evenodd" clip-rule="evenodd" d="M452.107 298.306C458.955 302.112 452.671 298.618 452.928 298.76C452.855 309.064 452.784 319.412 452.713 329.674C460.552 334.01 468.391 338.349 476.231 342.685C476.231 342.727 476.298 334.218 476.231 342.771C476.163 351.324 465.061 367.724 451.681 360.308C438.301 352.891 427.508 332.984 427.61 315.834C427.711 298.684 445.262 294.501 452.11 298.306H452.107Z" fill="#FF0478"/>
<path fill-rule="evenodd" clip-rule="evenodd" d="M452.739 329.597C460.577 333.933 468.416 338.271 476.257 342.607C476.257 342.649 476.266 341.422 476.257 342.694C476.222 347.659 473.385 352.548 470.25 356.188C463.997 346.799 459.001 339.076 452.741 329.597H452.739Z" fill="white"/>
<path fill-rule="evenodd" clip-rule="evenodd" d="M457.68 296.055C470.757 303.856 481.064 323.235 480.982 339.98C473.143 335.642 465.304 331.306 457.464 326.97C457.534 316.708 457.607 306.362 457.678 296.055H457.68Z" fill="#02B0EF"/>
<path fill-rule="evenodd" clip-rule="evenodd" d="M520.795 310.364C542.524 322.435 564.297 334.519 586.126 346.594C590.44 348.98 593.929 355.452 593.863 360.907C593.492 391.366 593.12 421.783 592.751 452.114C592.685 457.569 589.102 460.003 584.808 457.631C563.081 445.626 541.407 433.613 519.78 421.611C515.49 419.229 511.996 412.894 512.045 407.426C512.313 377.024 512.58 346.537 512.848 316.007C512.896 310.539 516.483 307.971 520.795 310.366V310.364Z" fill="url(#paint4_linear)"/>
<path fill-rule="evenodd" clip-rule="evenodd" d="M571.621 388.266C570.666 387.532 569.743 386.805 568.811 386.087C568.566 384.658 568.227 383.229 567.817 381.801C568.409 381.058 569.001 380.301 569.585 379.559C570.351 378.619 570.303 376.733 569.474 375.098C568.677 373.512 567.872 371.949 567.075 370.362C566.64 369.47 566.025 368.791 565.377 368.428C564.848 368.144 564.335 368.081 563.909 368.254C563.088 368.594 562.267 368.917 561.47 369.233C560.578 368.096 559.662 367.047 558.691 366.115C558.565 364.765 558.438 363.423 558.344 362.089C558.186 360.337 557.191 358.592 555.96 357.929C554.76 357.274 553.576 356.634 552.399 355.995C551.168 355.332 550.094 355.955 549.85 357.479C549.637 358.679 549.423 359.879 549.21 361.063C548.255 360.952 547.324 360.992 546.416 361.142C545.674 359.989 544.924 358.821 544.182 357.629C543.763 356.982 543.266 356.508 542.737 356.224C542.09 355.869 541.427 355.861 540.945 356.263C540.069 356.942 539.185 357.597 538.309 358.276C537.409 358.979 537.227 360.723 537.906 362.46C538.427 363.818 538.94 365.199 539.485 366.549C538.987 367.489 538.561 368.523 538.238 369.636C537.29 369.344 536.351 369.052 535.435 368.76C534.227 368.365 533.32 369.296 533.264 370.954C533.209 372.533 533.162 374.135 533.114 375.714C533.059 377.332 533.88 379.203 535.072 380.135C535.996 380.877 536.951 381.611 537.906 382.345C538.151 383.774 538.498 385.203 538.94 386.632C538.356 387.374 537.772 388.1 537.188 388.826C536.422 389.766 536.485 391.629 537.314 393.263C538.119 394.834 538.916 396.397 539.722 397.983C540.156 398.86 540.764 399.554 541.435 399.917C541.964 400.202 542.469 400.257 542.895 400.067C543.708 399.759 544.521 399.412 545.342 399.088C546.163 400.138 547.055 401.109 547.947 402.017C548.05 403.351 548.176 404.701 548.295 406.043C548.429 407.748 549.423 409.469 550.639 410.124C551.807 410.756 552.984 411.395 554.176 412.043C555.399 412.706 556.489 412.106 556.733 410.614C556.923 409.438 557.136 408.269 557.341 407.109C558.312 407.211 559.244 407.204 560.151 407.054C560.893 408.222 561.628 409.39 562.393 410.551C562.788 411.166 563.277 411.656 563.806 411.94C564.454 412.303 565.085 412.295 565.59 411.932C566.443 411.245 567.319 410.582 568.203 409.927C569.111 409.232 569.293 407.48 568.645 405.798C568.109 404.449 567.596 403.107 567.082 401.757C567.58 400.817 568.03 399.823 568.345 398.694C569.285 399.002 570.232 399.294 571.195 399.602C572.427 399.996 573.342 399.065 573.406 397.454C573.461 395.86 573.524 394.265 573.579 392.671C573.666 391.068 572.829 389.189 571.637 388.274L571.621 388.266ZM553.047 392.765C549.502 390.847 546.755 385.424 546.913 380.672C547.071 375.896 550.087 373.599 553.639 375.525C557.191 377.451 559.938 382.866 559.773 387.642C559.607 392.394 556.591 394.691 553.047 392.773V392.765Z" fill="white"/>
<path fill-rule="evenodd" clip-rule="evenodd" d="M215.406 291.06C264.054 317.997 312.702 344.953 361.304 371.852C409.899 398.749 458.45 425.653 507.049 452.538C510.315 454.345 512.887 459.254 512.847 463.386C512.549 494.761 512.248 526.093 511.952 557.253C511.655 588.369 511.359 619.445 511.065 650.432C511.027 654.479 508.411 656.385 505.172 654.598C456.984 627.996 408.8 601.364 360.66 574.764C312.476 548.137 264.233 521.521 215.996 494.867C212.757 493.076 210.114 488.231 210.101 484.107C210.004 452.89 209.904 421.544 209.805 390.154C209.705 358.72 209.606 327.069 209.506 295.418C209.493 291.25 212.135 289.251 215.403 291.06H215.406Z" fill="url(#paint5_linear)"/>
<path fill-rule="evenodd" clip-rule="evenodd" d="M495.801 465.709C496.235 465.947 496.562 466.562 496.557 467.122C496.553 467.681 496.193 467.915 495.784 467.69C495.324 467.436 494.972 466.808 494.976 466.248C494.981 465.689 495.368 465.47 495.801 465.709Z" fill="white"/>
<path fill-rule="evenodd" clip-rule="evenodd" d="M498.709 467.316C499.143 467.555 499.47 468.17 499.465 468.729C499.461 469.289 499.101 469.523 498.692 469.297C498.232 469.043 497.931 468.444 497.935 467.884C497.94 467.325 498.276 467.077 498.709 467.316Z" fill="white"/>
<path fill-rule="evenodd" clip-rule="evenodd" d="M501.617 468.922C502.05 469.16 502.377 469.775 502.373 470.335C502.369 470.894 502.006 471.128 501.599 470.903C501.139 470.649 500.838 470.049 500.843 469.49C500.847 468.93 501.183 468.683 501.617 468.922Z" fill="white"/>
<path fill-rule="evenodd" clip-rule="evenodd" d="M226.581 316.644C247.952 328.487 269.326 340.328 290.75 352.195C291.922 352.846 292.892 354.595 292.89 356.111C292.89 357.584 291.919 358.303 290.747 357.655C269.33 345.792 247.961 333.953 226.594 322.115C225.423 321.464 224.399 319.669 224.394 318.194C224.39 316.675 225.407 315.998 226.581 316.648V316.644Z" fill="white"/>
<path fill-rule="evenodd" clip-rule="evenodd" d="M225.889 325.564C230.875 328.35 235.934 331.13 240.983 333.927C241.798 334.378 242.464 335.614 242.464 336.655C242.466 337.697 241.805 338.152 240.989 337.701C235.943 334.904 230.884 332.127 225.898 329.341C225.124 328.907 224.416 327.698 224.414 326.656C224.412 325.615 225.113 325.133 225.887 325.566L225.889 325.564Z" fill="white"/>
<path opacity="0.2" fill-rule="evenodd" clip-rule="evenodd" d="M512.044 547.486C478.841 490.931 451.106 465.038 427.027 455.992C402.912 446.935 382.348 454.676 363.247 465.166C338.263 478.887 314.756 453.263 290.068 427.934C265.338 402.563 239.384 377.458 209.811 392.412C209.86 408.129 209.911 423.802 209.959 439.388C260.281 467.209 310.555 495.011 360.824 522.803C411.046 550.571 461.265 578.335 511.485 606.103C511.671 586.649 511.856 567.066 512.044 547.484V547.486Z" fill="url(#paint6_linear)"/>
<path opacity="0.3" fill-rule="evenodd" clip-rule="evenodd" d="M512.044 576.406C512.044 576.406 503.848 551.723 481.598 528.061C459.348 504.399 433.232 511.707 400.348 499.311C370.345 488.001 359.348 428.811 295.848 443.311C232.348 457.811 239.384 406.377 209.811 421.331C209.86 437.048 209.911 452.721 209.959 468.308C260.281 496.129 310.555 523.93 360.824 551.723C411.046 579.491 461.265 607.254 511.485 635.022C511.671 615.568 511.856 595.986 512.044 576.404V576.406Z" fill="url(#paint7_linear)"/>
<path d="M208.811 421.331C238.384 406.377 231.348 457.81 294.848 443.31C358.348 428.811 369.345 488 399.348 499.311C432.232 511.707 458.348 504.399 480.598 528.061C502.848 551.722 511.044 576.406 511.044 576.406V576.403" stroke="#FF0478" stroke-width="3" stroke-linecap="round" stroke-linejoin="round"/>
<path d="M294.555 404.295C294.546 424.954 294.54 445.613 294.531 466.272C294.524 486.845 294.515 507.418 294.507 527.946" stroke="white" stroke-width="0.499922" stroke-miterlimit="22.9256" stroke-linecap="round"/>
<path fill-rule="evenodd" clip-rule="evenodd" d="M299.442 406.132C308.298 411.034 317.207 415.965 326.116 420.894C327.54 421.683 328.709 423.802 328.705 425.619C328.7 427.479 327.529 428.346 326.105 427.559C317.198 422.632 308.293 417.701 299.438 412.801C298.014 412.012 296.844 409.849 296.844 407.987C296.844 406.168 298.016 405.345 299.442 406.132Z" fill="white"/>
<path fill-rule="evenodd" clip-rule="evenodd" d="M294.558 438.943C296.944 440.263 298.848 443.756 298.848 446.681C298.848 449.689 296.94 451.07 294.554 449.751C292.169 448.432 290.265 444.938 290.265 441.931C290.265 439.006 292.173 437.624 294.558 438.943Z" fill="white"/>
<path fill-rule="evenodd" clip-rule="evenodd" d="M294.546 441.467C295.818 442.17 296.833 444.032 296.833 445.591C296.833 447.194 295.815 447.93 294.544 447.227C293.273 446.524 292.258 444.662 292.258 443.059C292.258 441.5 293.275 440.764 294.546 441.467Z" fill="#FF0478"/>
<path opacity="0.2" d="M170.457 118.864C173.244 120.41 176.031 121.957 178.819 123.503C182.006 125.27 184.637 130.073 184.655 134.157C184.792 167.046 184.927 199.805 185.062 232.521C185.079 236.561 182.486 238.458 179.315 236.7C152.732 221.974 126.209 207.261 99.6657 192.572C96.4551 190.794 93.8614 186.038 93.8304 181.987C93.8181 180.428 93.8058 178.869 93.7935 177.309" stroke="white" stroke-width="1.5" stroke-miterlimit="22.9256" stroke-linecap="round" stroke-dasharray="6 6"/>
<path fill-rule="evenodd" clip-rule="evenodd" d="M88.812 47.9767C113.066 61.4442 137.368 74.9204 161.583 88.3575C166.424 91.0449 170.351 98.2295 170.38 104.336C170.551 139.188 170.723 173.827 170.892 208.422C170.923 214.486 167.067 217.354 162.25 214.686C138.161 201.336 113.989 187.907 89.8635 174.529C85.1361 171.909 81.2234 164.744 81.1712 158.663C80.8714 124.02 80.5694 89.2482 80.2653 54.3487C80.2131 48.2243 84.0585 45.3414 88.8098 47.9788L88.812 47.9767Z" fill="url(#paint8_linear)"/>
<path fill-rule="evenodd" clip-rule="evenodd" d="M101.535 143.642C117.694 152.595 133.86 161.543 150.069 170.52C151.883 171.524 153.302 174.19 153.315 176.456C153.328 178.763 151.931 179.817 150.117 178.813C133.912 169.838 117.753 160.896 101.598 151.945C99.8356 150.968 98.3627 148.315 98.3431 146.003C98.3257 143.735 99.7683 142.666 101.532 143.642H101.535Z" fill="white"/>
<path fill-rule="evenodd" clip-rule="evenodd" d="M114.934 165.886C122.23 169.94 129.577 173.99 136.972 178.072C138.13 178.711 139.143 180.555 139.154 182.052C139.162 183.59 138.167 184.27 137.007 183.629C129.614 179.547 122.269 175.498 114.973 171.446C113.765 170.775 112.801 169.004 112.79 167.464C112.779 165.923 113.726 165.215 114.934 165.884V165.886Z" fill="#FF0478"/>
<path opacity="0.2" fill-rule="evenodd" clip-rule="evenodd" d="M125.376 87.1739C138.908 94.6691 149.897 114.791 149.997 132.141C150.097 149.449 139.299 157.425 125.804 149.953C112.306 142.482 101.267 122.399 101.132 105.067C100.995 87.6909 111.843 79.6765 125.376 87.1717V87.1739Z" fill="white"/>
<path fill-rule="evenodd" clip-rule="evenodd" d="M125.593 119.078C121.608 116.892 118.402 111.039 118.367 105.971C118.332 100.902 121.48 98.5841 125.469 100.774C129.356 102.933 132.56 108.784 132.593 113.853C132.625 118.919 129.475 121.237 125.593 119.078ZM125.71 136.397C128.934 138.189 132.16 139.982 135.437 141.774C136.949 142.615 139.588 142.137 137.765 136.934C137.44 136.002 137.34 135.691 136.949 134.776C134.433 128.88 130.244 123.625 125.606 121.046C120.918 118.467 116.827 119.138 114.365 122.282C113.989 122.762 113.844 122.929 113.52 123.518C111.762 126.716 114.472 130.184 115.984 131.022C119.208 132.814 122.434 134.607 125.71 136.399V136.397Z" fill="#4A38AA"/>
<path fill-rule="evenodd" clip-rule="evenodd" d="M545.841 468.619C559.338 475.936 572.814 483.264 586.321 490.581C599.818 497.898 613.294 505.215 626.802 512.543C632.123 515.429 636.275 523.658 635.986 530.804C634.569 566.671 635.642 607.399 634.215 643.266C633.936 650.24 629.398 653.619 624.14 650.776C610.815 643.556 597.522 636.346 584.197 629.136C570.871 621.926 557.578 614.716 544.253 607.506C538.996 604.663 534.876 596.584 535.08 589.578C536.142 553.486 534.715 512.554 535.778 476.462C535.992 469.273 540.509 465.733 545.831 468.619H545.841Z" fill="url(#paint9_linear)"/>
<path opacity="0.2" d="M582.32 516.962C591.693 522.147 599.995 531.643 606.023 542.823C612.045 553.941 615.721 566.799 615.587 578.69C615.449 590.525 611.529 599.123 605.341 603.491C599.155 607.861 590.768 607.999 581.421 602.832C572.138 597.7 563.853 588.274 557.832 577.153C551.804 566.032 548.177 553.218 548.288 541.365C548.4 529.457 552.235 520.788 558.42 516.421C564.609 511.997 573.013 511.813 582.32 516.962ZM604.439 543.95C598.816 533.567 591.052 524.714 582.29 519.866C573.596 515.057 565.671 515.2 559.963 519.278C554.19 523.417 550.633 531.494 550.528 542.604C550.422 553.657 553.786 565.578 559.41 575.961C564.963 586.342 572.779 595.244 581.45 600.039C590.191 604.87 598.031 604.662 603.804 600.578C609.58 596.497 613.218 588.488 613.347 577.449C613.473 566.354 610.06 554.386 604.439 543.947V543.95Z" fill="white"/>
<path d="M582.305 518.558C600.305 528.552 614.697 555.121 614.433 578.052C614.41 580.157 614.249 582.188 613.956 584.03" stroke="#FF0478" stroke-width="5" stroke-miterlimit="22.9256" stroke-linecap="round"/>
<path d="M577.204 569.059C575.984 568.383 574.763 567.709 573.61 567.071C573.671 561.149 573.73 555.224 573.791 549.302C572.292 549.047 570.861 548.828 569.432 548.608C569.444 547.411 569.456 546.102 569.47 544.849C571.994 545.157 574.514 545.406 577.038 545.599C577.172 545.675 577.31 545.748 577.445 545.824C577.366 553.626 577.284 561.313 577.204 569.059ZM593.191 554.302C593.176 555.61 593.165 556.863 593.15 558.116C593.015 558.04 592.881 557.961 592.743 557.891C591.116 557.045 589.784 556.773 588.791 557.308C587.787 557.85 587.205 559.006 586.979 560.774C587.942 560.048 589.172 560.095 590.662 560.921C592.222 561.784 593.425 563.242 594.301 565.148C595.226 567.159 595.688 569.293 595.665 571.571C595.647 573.163 595.384 574.337 594.874 575.256C594.339 576.222 593.569 576.796 592.74 576.96C591.789 577.15 590.694 576.861 589.541 576.222C587.641 575.171 586.095 573.453 584.889 571.017C583.756 568.728 583.168 566.17 583.197 563.266C583.203 562.753 583.209 562.241 583.214 561.67C583.241 559.109 583.695 557.124 584.438 555.646C585.229 554.077 586.233 553.178 587.676 552.911C589.107 552.648 590.75 553.002 592.579 553.962C592.784 554.071 592.986 554.188 593.191 554.299V554.302ZM589.538 564.08C588.929 563.743 588.39 563.64 587.904 563.749C587.43 563.854 587.082 564.153 586.871 564.665C586.865 565.122 586.862 565.575 586.856 566.032C586.839 567.628 587.032 568.933 587.497 570.051C587.963 571.167 588.636 571.943 589.517 572.429C590.264 572.841 590.893 572.794 591.361 572.303C591.859 571.782 592.126 570.95 592.14 569.642C592.152 568.447 591.883 567.276 591.426 566.269C590.949 565.215 590.351 564.53 589.538 564.08Z" fill="white"/>
<defs>
<filter id="filter0_d" x="0.63092" y="425.308" width="646.668" height="384.684" filterUnits="userSpaceOnUse" color-interpolation-filters="sRGB">
<feFlood flood-opacity="0" result="BackgroundImageFix"/>
<feColorMatrix in="SourceAlpha" type="matrix" values="0 0 0 0 0 0 0 0 0 0 0 0 0 0 0 0 0 0 127 0"/>
<feOffset dy="4"/>
<feGaussianBlur stdDeviation="20"/>
<feColorMatrix type="matrix" values="0 0 0 0 0 0 0 0 0 0 0 0 0 0 0 0 0 0 1 0"/>
<feBlend mode="normal" in2="BackgroundImageFix" result="effect1_dropShadow"/>
<feBlend mode="normal" in="SourceGraphic" in2="effect1_dropShadow" result="shape"/>
</filter>
<linearGradient id="paint0_linear" x1="257.183" y1="198.883" x2="56.8303" y2="377.318" gradientUnits="userSpaceOnUse">
<stop stop-color="#19184B"/>
<stop offset="1" stop-color="#110F38"/>
</linearGradient>
<linearGradient id="paint1_linear" x1="57.5323" y1="-20.512" x2="-107.555" y2="594.099" gradientUnits="userSpaceOnUse">
<stop stop-color="#553FBE"/>
<stop offset="1" stop-color="#101245"/>
</linearGradient>
<linearGradient id="paint2_linear" x1="400.735" y1="286.954" x2="51.079" y2="105.876" gradientUnits="userSpaceOnUse">
<stop stop-color="#42E8E0" stop-opacity="0.24"/>
<stop offset="1" stop-color="#2258BB" stop-opacity="0.05"/>
</linearGradient>
<linearGradient id="paint3_linear" x1="496.623" y1="358.694" x2="317.499" y2="301.882" gradientUnits="userSpaceOnUse">
<stop stop-color="#42E8E0" stop-opacity="0.24"/>
<stop offset="1" stop-color="#2258BB" stop-opacity="0.05"/>
</linearGradient>
<linearGradient id="paint4_linear" x1="597.688" y1="413.037" x2="478.99" y2="378.462" gradientUnits="userSpaceOnUse">
<stop stop-color="#42E8E0" stop-opacity="0.41"/>
<stop offset="1" stop-color="#2258BB" stop-opacity="0.4"/>
</linearGradient>
<linearGradient id="paint5_linear" x1="527.025" y1="543.898" x2="-68.1701" y2="255.911" gradientUnits="userSpaceOnUse">
<stop stop-color="#42E8E0" stop-opacity="0.24"/>
<stop offset="1" stop-color="#2258BB" stop-opacity="0.05"/>
</linearGradient>
<linearGradient id="paint6_linear" x1="467" y1="310" x2="360.928" y2="519.811" gradientUnits="userSpaceOnUse">
<stop stop-color="#57FFFD"/>
<stop offset="1" stop-color="#42E8E0" stop-opacity="0"/>
</linearGradient>
<linearGradient id="paint7_linear" x1="476" y1="353" x2="360.928" y2="548.73" gradientUnits="userSpaceOnUse">
<stop stop-color="white"/>
<stop offset="1" stop-color="white" stop-opacity="0"/>
</linearGradient>
<linearGradient id="paint8_linear" x1="175.128" y1="164.197" x2="43.2204" y2="126.587" gradientUnits="userSpaceOnUse">
<stop stop-color="#42E8E0" stop-opacity="0.41"/>
<stop offset="1" stop-color="#2258BB" stop-opacity="0.4"/>
</linearGradient>
<linearGradient id="paint9_linear" x1="640.717" y1="595.569" x2="494.263" y2="552.976" gradientUnits="userSpaceOnUse">
<stop stop-color="#42E8E0" stop-opacity="0.41"/>
<stop offset="1" stop-color="#2258BB" stop-opacity="0.4"/>
</linearGradient>
</defs>
</svg>
