<svg width="649" height="810" viewBox="0 0 649 810" fill="none" xmlns="http://www.w3.org/2000/svg">
<g opacity="0.1">
<path fill-rule="evenodd" clip-rule="evenodd" d="M407.923 18.7101C410.01 19.9155 411.679 23.0033 411.679 25.581C411.679 28.1495 410 29.2807 407.923 28.0753C405.846 26.8699 404.177 23.8007 404.177 21.223C404.177 18.6452 405.846 17.5047 407.933 18.7101H407.923ZM476.642 176.342C478.663 177.483 480.314 180.459 480.304 182.981C480.295 185.503 478.635 186.598 476.614 185.457C474.593 184.317 472.942 181.359 472.951 178.837C472.961 176.314 474.62 175.192 476.642 176.333V176.342ZM476.707 156.842C478.737 157.992 480.379 160.987 480.369 163.509C480.36 166.031 478.7 167.163 476.67 166.013C474.639 164.863 472.998 161.868 473.007 159.346C473.016 156.824 474.676 155.692 476.707 156.842ZM459.571 166.717C461.602 167.867 463.252 170.853 463.243 173.384C463.234 175.906 461.583 177.01 459.543 175.869C457.513 174.729 455.862 171.762 455.871 169.23C455.881 166.699 457.531 165.577 459.571 166.717ZM459.618 147.162C461.648 148.312 463.299 151.325 463.289 153.847C463.28 156.369 461.62 157.51 459.59 156.351C457.559 155.201 455.909 152.197 455.918 149.665C455.927 147.134 457.587 146.003 459.618 147.152V147.162ZM442.436 157.056C444.485 158.205 446.126 161.2 446.117 163.741C446.108 166.272 444.457 167.376 442.417 166.226C440.377 165.076 438.708 162.1 438.708 159.568C438.708 157.037 440.386 155.906 442.436 157.065V157.056ZM442.473 137.444C444.522 138.603 446.163 141.617 446.163 144.148C446.154 146.68 444.503 147.82 442.463 146.661C440.414 145.502 438.745 142.488 438.754 139.948C438.754 137.416 440.433 136.276 442.482 137.435L442.473 137.444ZM425.207 147.338C427.266 148.497 428.926 151.501 428.916 154.042C428.916 156.583 427.247 157.686 425.198 156.536C423.14 155.377 421.471 152.391 421.471 149.851C421.471 147.31 423.149 146.179 425.207 147.338ZM425.226 127.671C427.284 128.839 428.944 131.862 428.944 134.403C428.944 136.943 427.275 138.084 425.217 136.925C423.158 135.766 421.489 132.734 421.489 130.193C421.489 127.652 423.167 126.521 425.226 127.68V127.671ZM407.896 137.574C409.963 138.742 411.632 141.756 411.632 144.306C411.632 146.856 409.963 147.959 407.896 146.8C405.828 145.641 404.168 142.646 404.168 140.096C404.168 137.546 405.828 136.415 407.896 137.574ZM407.896 117.851C409.973 119.02 411.632 122.061 411.632 124.611C411.632 127.161 409.963 128.302 407.886 127.124C405.809 125.956 404.15 122.924 404.15 120.374C404.15 117.824 405.809 116.683 407.886 117.851H407.896ZM476.762 137.333C478.793 138.492 480.443 141.459 480.434 144C480.425 146.541 478.765 147.644 476.735 146.494C474.704 145.335 473.053 142.359 473.063 139.818C473.072 137.277 474.732 136.183 476.762 137.342V137.333ZM476.827 117.768C478.858 118.936 480.508 121.904 480.499 124.444C480.49 126.985 478.83 128.107 476.799 126.948C474.769 125.789 473.118 122.775 473.128 120.234C473.137 117.694 474.797 116.609 476.827 117.768ZM476.892 98.1474C478.923 99.3158 480.573 102.339 480.564 104.87C480.555 107.411 478.886 108.523 476.855 107.355C474.824 106.187 473.174 103.182 473.183 100.642C473.192 98.1011 474.852 96.9791 476.892 98.1474ZM476.957 78.5176C478.988 79.6952 480.647 82.7088 480.638 85.2587C480.629 87.7994 478.96 88.9121 476.929 87.7437C474.899 86.5661 473.239 83.5526 473.248 81.0026C473.257 78.4527 474.926 77.3493 476.957 78.5269V78.5176ZM477.022 58.8229C479.062 60.0097 480.712 63.0511 480.703 65.601C480.694 68.1417 479.025 69.2637 476.994 68.0861C474.954 66.9085 473.304 63.8671 473.313 61.3264C473.322 58.7765 474.991 57.6453 477.022 58.8321V58.8229ZM459.664 127.588C461.704 128.747 463.354 131.732 463.345 134.273C463.336 136.814 461.676 137.926 459.645 136.767C457.605 135.608 455.955 132.623 455.964 130.073C455.973 127.523 457.633 126.429 459.664 127.588ZM459.71 107.967C461.75 109.135 463.401 112.121 463.391 114.662C463.382 117.202 461.722 118.334 459.682 117.175C457.642 116.006 455.992 112.983 456.001 110.443C456.011 107.893 457.67 106.799 459.71 107.967ZM459.757 88.2908C461.797 89.4684 463.447 92.4912 463.447 95.0412C463.438 97.5818 461.778 98.6945 459.738 97.5262C457.698 96.3578 456.048 93.3443 456.048 90.7944C456.057 88.2444 457.717 87.1225 459.757 88.2908ZM459.803 68.6053C461.843 69.7829 463.503 72.815 463.493 75.365C463.484 77.9149 461.824 79.0276 459.784 77.85C457.744 76.6724 456.085 73.6496 456.094 71.0903C456.103 68.5404 457.763 67.4184 459.812 68.6053H459.803ZM442.491 117.805C444.54 118.973 446.191 121.959 446.182 124.509C446.172 127.059 444.522 128.172 442.473 127.013C440.423 125.854 438.754 122.84 438.754 120.29C438.754 117.731 440.433 116.637 442.482 117.805H442.491ZM442.528 98.1289C444.578 99.2972 446.228 102.292 446.219 104.842C446.21 107.392 444.559 108.533 442.51 107.355C440.461 106.187 438.792 103.145 438.792 100.595C438.792 98.0362 440.479 96.9513 442.528 98.1196V98.1289ZM442.565 78.3971C444.615 79.5747 446.265 82.616 446.265 85.166C446.256 87.7159 444.605 88.8379 442.547 87.6603C440.498 86.4827 438.819 83.4506 438.829 80.9006C438.829 78.3414 440.516 77.2195 442.565 78.4063V78.3971ZM442.603 58.656C444.661 59.8428 446.312 62.8749 446.302 65.4341C446.293 67.9933 444.642 69.106 442.584 67.9284C440.535 66.7416 438.856 63.7002 438.856 61.141C438.856 58.5818 440.544 57.4691 442.593 58.656H442.603ZM425.235 107.976C427.294 109.145 428.953 112.149 428.953 114.708C428.953 117.267 427.284 118.38 425.226 117.212C423.167 116.043 421.489 113.03 421.489 110.461C421.489 107.902 423.167 106.799 425.235 107.976ZM425.254 88.2444C427.312 89.422 428.981 92.4263 428.972 94.9855C428.972 97.5447 427.303 98.676 425.244 97.5076C423.186 96.33 421.508 93.2887 421.508 90.7202C421.508 88.161 423.195 87.0668 425.254 88.2444ZM425.272 68.457C427.34 69.6438 429 72.6852 429 75.2444C429 77.8036 427.331 78.9256 425.263 77.7387C423.204 76.5611 421.517 73.5197 421.526 70.9513C421.526 68.3921 423.214 67.2608 425.272 68.4477V68.457ZM425.291 48.6602C427.359 49.8564 429.018 52.907 429.018 55.4662C429.018 58.0254 427.349 59.1474 425.282 57.9605C423.214 56.7736 421.535 53.7137 421.535 51.1545C421.535 48.5953 423.223 47.4733 425.291 48.6695V48.6602ZM407.896 98.1011C409.973 99.2787 411.642 102.292 411.642 104.861C411.642 107.429 409.973 108.542 407.896 107.364C405.819 106.187 404.159 103.164 404.159 100.595C404.159 98.0269 405.819 96.9235 407.896 98.1011ZM407.896 78.3136C409.973 79.5005 411.642 82.514 411.642 85.0825C411.642 87.651 409.973 88.7822 407.896 87.6046C405.819 86.4178 404.159 83.3671 404.159 80.7986C404.159 78.2302 405.828 77.1267 407.896 78.3136ZM407.896 58.4705C409.973 59.6667 411.651 62.7266 411.651 65.2858C411.651 67.8543 409.973 68.9669 407.896 67.7801C405.819 66.5932 404.15 63.5425 404.15 60.9741C404.15 58.4056 405.819 57.2744 407.896 58.4612V58.4705ZM407.896 38.6181C409.973 39.8143 411.651 42.8835 411.651 45.4519C411.651 48.0204 409.973 49.1424 407.896 47.9462C405.819 46.7501 404.15 43.6994 404.15 41.131C404.15 38.5625 405.819 37.422 407.896 38.6181ZM459.859 48.8549C461.899 50.0418 463.558 53.1017 463.549 55.6517C463.54 58.2016 461.88 59.3236 459.831 58.1367C457.791 56.9498 456.131 53.9084 456.14 51.3492C456.15 48.7993 457.809 47.6588 459.859 48.8457V48.8549ZM442.63 38.8592C444.689 40.0554 446.339 43.1153 446.339 45.6745C446.33 48.2337 444.67 49.3557 442.621 48.1688C440.563 46.9819 438.894 43.922 438.894 41.3535C438.894 38.7943 440.581 37.6631 442.64 38.8499L442.63 38.8592ZM425.3 28.8078C427.368 30.004 429.037 33.0825 429.028 35.6509C429.028 38.2194 427.349 39.3414 425.291 38.1452C423.223 36.9491 421.545 33.8799 421.545 31.3114C421.545 28.7429 423.232 27.6117 425.3 28.8078Z" fill="white"/>
</g>
<g opacity="0.45">
<path fill-rule="evenodd" clip-rule="evenodd" d="M3.13097 97.4908C4.709 98.4026 5.97143 100.738 5.97143 102.688C5.97143 104.631 4.70199 105.486 3.13097 104.574C1.55995 103.663 0.29753 101.341 0.29753 99.3915C0.29753 97.4417 1.55995 96.5791 3.13798 97.4908H3.13097ZM16.2041 194.782C17.7611 195.658 19.0165 197.931 19.0095 199.852C19.0095 201.774 17.747 202.609 16.1971 201.739C14.6401 200.862 13.3776 198.604 13.3776 196.682C13.3776 194.761 14.6471 193.905 16.2041 194.782ZM16.2181 179.906C17.7751 180.79 19.0305 183.076 19.0305 184.998C19.0305 186.92 17.7681 187.782 16.2111 186.906C14.6541 186.029 13.3917 183.735 13.3917 181.814C13.3917 179.892 14.6611 179.036 16.2181 179.913V179.906ZM3.10993 187.396C4.67393 188.28 5.93636 190.56 5.93636 192.488C5.93636 194.417 4.67393 195.252 3.10993 194.375C1.54593 193.498 0.290516 191.233 0.290516 189.304C0.290516 187.375 1.54593 186.52 3.10993 187.396ZM3.10993 172.479C4.68095 173.363 5.93636 175.663 5.93636 177.592C5.93636 179.52 4.67393 180.383 3.10292 179.492C1.5319 178.609 0.276489 176.315 0.276489 174.386C0.276489 172.458 1.5319 171.595 3.10292 172.479H3.10993ZM16.2251 165.009C17.7821 165.893 19.0375 168.166 19.0375 170.101C19.0375 172.037 17.7751 172.879 16.2181 171.995C14.6611 171.111 13.3917 168.832 13.3917 166.889C13.3917 164.953 14.6611 164.119 16.2251 165.009ZM16.2391 150.085C17.7961 150.976 19.0586 153.248 19.0515 155.184C19.0515 157.119 17.7891 157.975 16.2321 157.091C14.6751 156.201 13.4057 153.9 13.4057 151.957C13.4057 150.022 14.6822 149.194 16.2391 150.085ZM16.2532 135.118C17.8172 136.016 19.0726 138.316 19.0726 140.252C19.0726 142.188 17.8102 143.036 16.2462 142.139C14.6892 141.248 13.4127 138.947 13.4197 137.005C13.4197 135.069 14.6962 134.213 16.2532 135.111V135.118ZM16.2672 120.144C17.8312 121.049 19.0866 123.356 19.0866 125.292C19.0866 127.228 17.8242 128.077 16.2602 127.179C14.6962 126.281 13.4267 123.967 13.4267 122.031C13.4267 120.095 14.7032 119.247 16.2672 120.151V120.144ZM3.10993 157.54C4.68095 158.431 5.94337 160.71 5.94337 162.653C5.94337 164.596 4.68095 165.437 3.10993 164.547C1.53891 163.656 0.283503 161.369 0.283503 159.427C0.283503 157.484 1.53891 156.649 3.10993 157.54ZM3.10993 142.573C4.68095 143.471 5.94337 145.75 5.94337 147.693C5.94337 149.636 4.68095 150.492 3.10993 149.601C1.53891 148.703 0.283503 146.396 0.283503 144.453C0.283503 142.51 1.54593 141.676 3.10993 142.573ZM3.10993 127.565C4.68095 128.469 5.95039 130.784 5.95039 132.719C5.95039 134.662 4.68095 135.504 3.10993 134.606C1.53891 133.708 0.276489 131.401 0.276489 129.458C0.276489 127.515 1.53891 126.66 3.10993 127.558V127.565ZM3.10993 112.549C4.68095 113.453 5.95039 115.775 5.95039 117.718C5.95039 119.66 4.68095 120.509 3.10993 119.604C1.53891 118.7 0.276489 116.392 0.276489 114.449C0.276489 112.507 1.53891 111.644 3.10993 112.549ZM16.2742 105.128C17.8382 106.033 19.1006 108.362 19.0936 110.304C19.0936 112.247 17.8242 113.096 16.2672 112.191C14.7032 111.286 13.4338 108.965 13.4338 107.022C13.4338 105.079 14.7102 104.224 16.2742 105.128Z" fill="#FF0478"/>
</g>
<g opacity="0.5" filter="url(#filter0_d)">
<ellipse rx="321.317" ry="15.4115" transform="matrix(0.881416 0.47234 -0.529491 0.848316 325.34 613.029)" fill="black" fill-opacity="0.01"/>
</g>
<path d="M58.1979 31.6311C58.1979 0.728962 86.8807 0.193083 86.8807 0.193083C90.7308 -0.164167 95.3508 0.907583 99.9709 3.40833L554.868 250.846C570.846 259.42 583.743 282.105 583.743 301.576V694.015C583.743 695.444 583.743 696.694 583.551 697.944C583.551 697.944 585.476 722.773 558.718 726.346C556.023 727.239 552.751 727.418 549.478 726.703C547.168 726.167 544.665 725.274 541.97 723.845L87.0732 476.407C71.0955 467.833 58.1979 445.148 58.1979 425.678V33.2387C58.1979 32.8815 58.1979 32.5242 58.1979 32.3456C58.1979 32.167 58.1979 31.9883 58.1979 31.6311Z" fill="url(#paint0_linear)"/>
<path opacity="0.1" fill-rule="evenodd" clip-rule="evenodd" d="M90.0704 17.1164C151.188 49.9644 484.598 231.641 541.793 262.383C555.768 269.894 560.899 285.016 560.853 297.186C560.603 362.749 560.551 437.785 560.299 503.651C560.046 569.735 560.554 630.216 560.299 696.689C560.299 709.344 544.467 719.947 530.621 712.508C472.208 681.126 143.882 500.495 84.0241 468.336C75.1405 463.564 63.3697 449.444 63.256 429.396C62.4672 290.428 61.6793 165.129 62.7301 31.4757C62.8125 21.173 73.2124 8.05605 90.0704 17.1164Z" fill="white"/>
<path d="M70.7182 37.7042V430.858C70.7182 443.54 80.5358 458.902 92.4709 465.333L529.27 705.246C541.205 711.676 551.023 706.675 551.023 693.992V300.838C551.023 288.156 541.205 272.794 529.27 266.364C479.476 239.81 142.265 53.0054 92.4709 26.4508C80.5358 20.0203 70.7182 25.0218 70.7182 37.7042Z" fill="url(#paint1_linear)"/>
<path opacity="0.1" fill-rule="evenodd" clip-rule="evenodd" d="M96.4356 58.3264C128.085 75.4403 159.904 92.6021 191.774 109.859C195.242 111.735 198.045 116.903 198.03 121.298C198.012 125.693 195.18 127.746 191.715 125.866C159.86 108.59 128.056 91.4104 96.4209 74.2744C93.004 72.4243 90.194 67.2825 90.1976 62.9056C90.2013 58.5287 93.0187 56.4801 96.4393 58.3301L96.4356 58.3264Z" fill="white"/>
<path fill-rule="evenodd" clip-rule="evenodd" d="M100.684 319.886C131.701 337.133 162.927 354.405 194.176 371.743C225.49 389.118 257 406.64 288.635 424.17C294.656 427.506 299.511 436.425 299.459 443.979C299.25 474.404 299.062 504.777 298.882 535.051C298.698 565.222 298.463 595.393 298.253 625.461C298.202 632.917 293.247 636.208 287.307 632.843C255.878 615.034 224.494 597.273 193.37 579.64C162.313 562.048 131.296 544.482 100.5 527.015C94.6701 523.708 89.8666 514.955 89.8702 507.562C89.896 477.74 89.9217 447.819 89.9475 417.847C89.9732 387.875 89.999 357.7 90.0247 327.577C90.0321 320.085 94.8025 316.613 100.687 319.886H100.684Z" fill="url(#paint2_linear)"/>
<g opacity="0.3">
<path fill-rule="evenodd" clip-rule="evenodd" d="M116.945 353.084C148.984 370.908 181.185 388.817 213.541 406.806C215.965 408.156 217.936 411.786 217.922 414.868C217.907 417.95 215.913 419.322 213.49 417.972C181.145 399.968 148.951 382.045 116.926 364.207C114.51 362.861 112.524 359.234 112.527 356.214C112.531 353.143 114.525 351.738 116.945 353.081V353.084Z" fill="white"/>
<path fill-rule="evenodd" clip-rule="evenodd" d="M114.822 368.881C122.51 373.144 130.233 377.47 137.924 381.765C139.208 382.483 140.23 384.336 140.227 385.9C140.223 387.511 139.193 388.279 137.909 387.562C130.222 383.266 122.498 378.933 114.811 374.671C113.528 373.957 112.505 372.074 112.505 370.463C112.509 368.852 113.535 368.168 114.819 368.881H114.822Z" fill="white"/>
</g>
<path fill-rule="evenodd" clip-rule="evenodd" d="M113.115 498.654C113.145 480.33 113.171 462.009 113.2 443.638C113.204 440.015 115.569 438.367 118.357 439.956C121.251 441.574 123.605 445.867 123.598 449.493C123.565 467.872 123.532 486.204 123.495 504.535C123.487 508.161 121.126 509.802 118.239 508.176C115.458 506.58 113.108 502.28 113.112 498.657L113.115 498.654Z" fill="white"/>
<path fill-rule="evenodd" clip-rule="evenodd" d="M134.525 510.739C134.584 483.688 134.643 456.58 134.702 429.425C134.709 425.799 137.078 424.1 139.976 425.714C142.819 427.303 145.173 431.651 145.166 435.281C145.1 462.447 145.03 489.561 144.964 516.628C144.956 520.255 142.591 521.895 139.756 520.299C136.865 518.669 134.518 514.366 134.525 510.739Z" fill="#FF0478"/>
<path fill-rule="evenodd" clip-rule="evenodd" d="M155.986 522.855C156.023 509.493 156.06 496.079 156.1 482.669C156.112 479.039 158.476 477.391 161.371 479.02C164.211 480.617 166.561 484.927 166.55 488.558C166.509 501.975 166.465 515.392 166.425 528.762C166.414 532.392 164.049 534.033 161.213 532.429C158.322 530.796 155.979 526.485 155.986 522.855Z" fill="white"/>
<path fill-rule="evenodd" clip-rule="evenodd" d="M177.499 535.026C177.598 505.756 177.701 476.486 177.801 447.165C177.812 443.48 180.184 441.854 183.082 443.48C185.981 445.105 188.276 449.331 188.265 453.017C188.154 482.349 188.044 511.63 187.937 540.914C187.923 544.548 185.613 546.218 182.722 544.581C179.831 542.945 177.488 538.656 177.499 535.026Z" fill="#FF0478"/>
<path fill-rule="evenodd" clip-rule="evenodd" d="M199.071 547.2C199.089 542.452 199.108 537.652 199.13 532.856C199.144 529.218 201.513 527.548 204.404 529.185C207.295 530.822 209.638 535.114 209.623 538.752C209.601 543.552 209.583 548.351 209.561 553.103C209.546 556.741 207.177 558.411 204.286 556.77C201.395 555.13 199.056 550.838 199.071 547.204V547.2Z" fill="white"/>
<path fill-rule="evenodd" clip-rule="evenodd" d="M220.694 559.4C220.86 524.013 221.025 488.524 221.195 452.987C221.213 449.346 223.64 447.698 226.487 449.298C229.386 450.931 231.787 455.249 231.769 458.89C231.592 494.442 231.416 529.946 231.236 565.347C231.217 568.988 228.849 570.625 225.906 568.981C223.07 567.366 220.676 563.041 220.694 559.4Z" fill="#FF0478"/>
<path fill-rule="evenodd" clip-rule="evenodd" d="M242.369 571.629C242.435 559.385 242.498 547.141 242.564 534.897C242.582 531.255 244.958 529.563 247.905 531.204C250.744 532.818 253.138 537.199 253.12 540.844C253.05 553.092 252.98 565.343 252.914 577.591C252.892 581.236 250.523 582.873 247.632 581.255C244.69 579.607 242.351 575.27 242.369 571.629Z" fill="white"/>
<path fill-rule="evenodd" clip-rule="evenodd" d="M264.099 583.888C264.239 560.444 264.378 536.997 264.518 513.45C264.54 509.753 266.92 508.109 269.87 509.75C272.768 511.361 275.162 515.693 275.14 519.394C274.993 542.951 274.846 566.406 274.699 589.861C274.677 593.51 272.249 595.146 269.358 593.524C266.468 591.873 264.08 587.533 264.099 583.888Z" fill="#FF0478"/>
<path fill-rule="evenodd" clip-rule="evenodd" d="M397.465 221.039C405.49 225.372 413.505 229.734 421.53 234.078C425.101 236.009 427.941 241.239 427.893 245.671C427.845 250.103 424.932 252.211 421.361 250.276C413.339 245.929 405.328 241.563 397.307 237.223C393.735 235.292 390.896 230.073 390.936 225.648C390.977 221.22 393.89 219.112 397.461 221.039H397.465Z" fill="#FF0478"/>
<path opacity="0.1" fill-rule="evenodd" clip-rule="evenodd" d="M343.883 196.322C354.071 201.847 364.314 207.371 374.558 212.91C376.239 213.819 377.577 216.287 377.559 218.424C377.541 220.509 376.172 221.55 374.488 220.638C364.248 215.095 354.009 209.567 343.82 204.043C342.14 203.13 340.801 200.622 340.819 198.54C340.838 196.407 342.206 195.414 343.887 196.322H343.883Z" fill="white"/>
<path opacity="0.1" fill-rule="evenodd" clip-rule="evenodd" d="M444.411 250.695C454.757 256.289 465.052 261.876 475.464 267.492C477.193 268.427 478.532 270.895 478.506 273.039C478.48 275.183 477.101 276.184 475.372 275.249C464.964 269.629 454.669 264.039 444.326 258.441C442.642 257.529 441.31 254.994 441.336 252.905C441.358 250.765 442.73 249.783 444.414 250.691L444.411 250.695Z" fill="white"/>
<path opacity="0.1" fill-rule="evenodd" clip-rule="evenodd" d="M495.139 278.137C505.536 283.764 515.905 289.355 526.354 295.001C528.042 295.913 529.418 298.417 529.392 300.565C529.363 302.713 527.939 303.688 526.251 302.776C515.802 297.126 505.437 291.532 495.043 285.905C493.358 284.993 491.924 282.466 491.95 280.322C491.975 278.177 493.454 277.228 495.142 278.14L495.139 278.137Z" fill="white"/>
<path fill-rule="evenodd" clip-rule="evenodd" d="M316.875 439.86C341.885 453.712 366.962 467.626 392.131 481.595C395.202 483.298 397.802 487.961 397.762 491.879C397.394 529.545 397.026 567.113 396.662 604.577C396.625 608.447 394.014 610.205 390.913 608.465C365.826 594.393 340.855 580.332 315.988 566.359C312.88 564.612 310.383 560.003 310.412 556.149C310.684 518.813 310.957 481.37 311.229 443.781C311.258 439.926 313.756 438.131 316.875 439.86Z" fill="url(#paint3_linear)"/>
<path opacity="0.3" d="M354.233 482.941C359.768 486.031 364.796 491.669 368.411 498.238C371.972 504.829 374.226 512.347 374.16 519.365C374.098 526.279 371.733 531.27 368.091 533.83C364.399 536.306 359.33 536.35 353.802 533.253C348.219 530.123 343.25 524.481 339.69 517.949C336.074 511.339 333.816 503.832 333.871 496.877C333.926 489.922 336.232 484.935 339.977 482.397C343.614 479.885 348.638 479.826 354.229 482.945L354.233 482.941ZM367.433 498.863C364.086 492.699 359.378 487.494 354.218 484.618C349.002 481.709 344.306 481.694 340.885 484.07C337.464 486.45 335.269 491.121 335.217 497.62C335.166 504.119 337.266 511.129 340.616 517.287C343.964 523.396 348.613 528.652 353.821 531.572C358.974 534.459 363.722 534.489 367.142 532.116C370.563 529.744 372.766 525.099 372.825 518.64C372.884 512.078 370.787 505.031 367.44 498.867L367.433 498.863Z" fill="white"/>
<path d="M354.225 483.857C364.976 489.83 373.531 505.546 373.41 518.971C373.399 520.141 373.333 521.332 373.164 522.461" stroke="#FF0478" stroke-width="2.80055" stroke-miterlimit="22.9256" stroke-linecap="round"/>
<path d="M350.621 514.263C349.76 513.781 348.903 513.303 348.098 512.851C348.131 508.735 348.168 504.619 348.201 500.555C347.178 500.39 346.152 500.228 345.13 500.011C345.137 499.147 345.144 498.282 345.152 497.422C346.932 497.65 348.712 497.826 350.492 498.006C350.548 498.036 350.654 498.095 350.761 498.157C350.717 503.542 350.669 508.879 350.625 514.263H350.621ZM361.824 504.241C361.817 505.156 361.81 506.021 361.802 506.885C361.696 506.826 361.589 506.764 361.534 506.734C360.405 506.102 359.5 505.966 358.783 506.319C358.087 506.661 357.639 507.415 357.466 508.647C358.172 508.172 359.036 508.198 360.055 508.768C361.184 509.401 362.074 510.372 362.781 511.795C363.454 513.156 363.726 514.624 363.715 516.249C363.708 517.264 363.52 518.133 363.152 518.795C362.806 519.42 362.229 519.795 361.523 519.905C360.875 520.008 360.121 519.835 359.316 519.383C357.973 518.633 356.866 517.382 356.054 515.771C355.219 514.112 354.843 512.336 354.858 510.353C354.862 509.997 354.866 509.592 354.869 509.184C354.884 507.507 355.138 506.069 355.66 505.031C356.182 503.998 356.969 503.369 357.944 503.192C358.974 503.005 360.103 503.277 361.394 503.998C361.501 504.057 361.663 504.149 361.824 504.237V504.241ZM359.283 510.938C358.853 510.699 358.477 510.589 358.15 510.662C357.826 510.736 357.554 510.942 357.389 511.31C357.385 511.667 357.381 511.972 357.381 512.277C357.374 513.344 357.543 514.241 357.896 515.069C358.231 515.852 358.639 516.404 359.287 516.764C359.824 517.066 360.246 516.992 360.581 516.672C360.953 516.316 361.129 515.701 361.137 514.888C361.144 513.973 360.964 513.186 360.618 512.454C360.276 511.725 359.82 511.24 359.283 510.938Z" fill="white"/>
<g opacity="0.1">
<path fill-rule="evenodd" clip-rule="evenodd" d="M332.874 534.514C346.714 542.245 360.566 550.006 374.513 557.796C376.396 558.848 377.93 561.61 377.908 564.001C377.886 566.34 376.315 567.341 374.436 566.289C360.492 558.495 346.659 550.708 332.859 542.996C330.939 541.922 329.442 539.222 329.461 536.886C329.479 534.499 330.994 533.466 332.874 534.514Z" fill="white"/>
<path fill-rule="evenodd" clip-rule="evenodd" d="M341.977 554.941C349.646 559.252 357.374 563.588 365.149 567.94C366.436 568.661 367.444 570.511 367.429 572.085C367.415 573.663 366.389 574.354 365.098 573.633C357.322 569.282 349.598 564.942 341.933 560.631C340.701 559.94 339.638 558.068 339.649 556.494C339.66 554.919 340.745 554.25 341.977 554.945V554.941Z" fill="white"/>
</g>
<path fill-rule="evenodd" clip-rule="evenodd" d="M414.24 493.876C439.46 507.889 464.806 521.947 490.247 536.059C493.421 537.821 495.962 542.47 495.914 546.402C495.44 584.212 494.965 621.971 494.491 659.527C494.443 663.463 491.828 665.188 488.669 663.411C463.32 649.174 438.07 634.991 412.942 620.853C409.826 619.102 407.347 614.453 407.384 610.584C407.763 573.105 408.087 535.522 408.465 497.841C408.506 493.92 411.114 492.14 414.24 493.876Z" fill="url(#paint4_linear)"/>
<g opacity="0.1">
<path fill-rule="evenodd" clip-rule="evenodd" d="M430.154 588.953C444.101 596.773 458.17 604.607 472.224 612.485C474.107 613.541 475.688 616.377 475.659 618.727C475.629 621.077 474.004 622.118 472.121 621.063C458.07 613.18 444.006 605.339 430.062 597.516C428.179 596.46 426.649 593.665 426.675 591.318C426.701 588.975 428.271 587.898 430.154 588.953Z" fill="white"/>
<path fill-rule="evenodd" clip-rule="evenodd" d="M439.268 609.495C447.095 613.886 454.933 618.311 462.76 622.71C463.996 623.405 465.051 625.218 465.033 626.8C465.015 628.381 463.93 629.121 462.694 628.425C454.867 624.027 447.033 619.65 439.206 615.254C437.97 614.559 436.97 612.65 436.984 611.069C437.003 609.487 438.033 608.8 439.268 609.491V609.495Z" fill="white"/>
</g>
<path opacity="0.3" d="M451.896 538.491C457.218 541.462 462.025 546.865 465.574 553.177C469.017 559.459 471.095 566.701 471.014 573.388C470.933 580.023 468.715 584.83 465.173 587.221C461.58 589.63 456.663 589.575 451.348 586.596C446.033 583.616 441.233 578.258 437.735 571.902C434.293 565.576 432.156 558.4 432.226 551.772C432.299 545.096 434.565 540.293 438.107 537.895C441.704 535.53 446.57 535.522 451.892 538.491H451.896ZM464.592 553.784C461.363 547.928 456.876 542.86 451.877 540.072C446.879 537.284 442.337 537.317 439.012 539.531C435.69 541.793 433.642 546.229 433.572 552.5C433.506 558.668 435.433 565.447 438.662 571.295C441.892 577.195 446.375 582.164 451.366 584.963C456.357 587.762 460.896 587.835 464.221 585.58C467.542 583.374 469.65 578.835 469.723 572.66C469.797 566.381 467.822 559.691 464.592 553.788V553.784Z" fill="white"/>
<path d="M451.862 541.297C451.002 540.811 450.259 539.469 450.274 538.347C450.285 537.277 451.05 536.784 451.91 537.266C457.501 540.388 462.573 546.067 466.229 552.673C469.885 559.334 472.011 566.859 471.93 573.903C471.845 580.847 469.568 585.875 465.813 588.398C462.054 590.869 456.923 590.895 451.34 587.761C448.817 586.364 446.515 584.492 444.271 582.226C442.027 579.879 439.898 577.217 438.147 574.226C435.97 570.666 434.23 566.708 433.031 562.751C431.832 558.823 431.225 554.891 431.265 551.22C431.276 550.098 431.986 549.576 432.954 550.091C433.814 550.577 434.502 551.886 434.491 553.008C434.458 556.116 434.962 559.43 435.955 562.707C437 566.087 438.423 569.353 440.225 572.373C441.763 574.907 443.521 577.18 445.444 579.162C447.261 581.064 449.24 582.649 451.388 583.833C456.111 586.478 460.381 586.452 463.54 584.311C466.7 582.219 468.748 577.956 468.818 572.137C468.888 566.216 466.961 559.812 463.89 554.203C460.818 548.594 456.6 543.93 451.866 541.293L451.862 541.297Z" fill="#FF0478"/>
<path d="M451.138 557.62C449.861 560.441 448.589 563.24 447.368 566.043C446.724 565.679 446.08 565.315 445.381 564.95C446.654 562.354 447.871 559.761 449.144 557.142C447.585 556.263 446.029 555.38 444.469 554.531C444.477 553.92 444.484 553.254 444.491 552.592C446.694 553.806 448.898 555.049 451.152 556.296C451.149 556.756 451.141 557.216 451.138 557.624V557.62ZM457.438 559.713C457.431 560.375 457.423 561.041 457.416 561.651C457.361 561.622 457.309 561.592 457.254 561.559C456.393 561.074 455.695 560.989 455.202 561.221C454.661 561.482 454.382 562.041 454.264 562.95C454.753 562.611 455.404 562.619 456.154 563.042C456.96 563.498 457.611 564.211 458.13 565.256C458.615 566.238 458.81 567.334 458.795 568.507C458.788 569.272 458.681 569.883 458.394 570.387C458.13 570.854 457.736 571.089 457.195 571.177C456.706 571.258 456.169 571.111 455.577 570.776C454.558 570.199 453.775 569.386 453.12 568.136C452.502 566.951 452.23 565.579 452.245 564.2C452.248 563.946 452.252 563.637 452.256 563.332C452.27 562.056 452.498 561.055 452.885 560.298C453.271 559.54 453.87 559.073 454.628 558.944C455.331 558.823 456.195 559.007 457.111 559.525C457.217 559.584 457.324 559.647 457.434 559.706L457.438 559.713ZM455.544 564.597C455.275 564.447 454.999 564.373 454.735 564.447C454.51 564.509 454.301 564.664 454.19 564.91C454.187 565.164 454.183 565.421 454.183 565.624C454.176 566.389 454.301 567.051 454.54 567.621C454.775 568.191 455.125 568.617 455.551 568.86C455.926 569.074 456.261 569.059 456.526 568.794C456.754 568.566 456.912 568.139 456.919 567.477C456.927 566.915 456.787 566.308 456.563 565.785C456.316 565.219 455.978 564.84 455.548 564.597H455.544Z" fill="white"/>
<path fill-rule="evenodd" clip-rule="evenodd" d="M515.905 550.297C541.401 564.458 567.004 578.658 592.72 592.922C595.946 594.709 598.587 599.41 598.528 603.36C597.94 641.321 597.355 679.227 596.77 716.93C596.707 720.881 593.975 722.58 590.764 720.778C565.143 706.389 539.683 692.067 514.231 677.778C511.064 676.001 508.538 671.382 508.589 667.446C509.075 629.871 509.567 592.091 510.057 554.258C510.108 550.323 512.731 548.535 515.905 550.301V550.297Z" fill="url(#paint5_linear)"/>
<path fill-rule="evenodd" clip-rule="evenodd" d="M554.001 589.762C560.265 593.253 554.487 590.038 554.7 590.16C554.572 599.377 554.439 608.495 554.31 617.609C561.508 621.599 568.655 625.597 575.908 629.625C575.908 629.676 575.908 629.676 575.908 629.676C575.683 644.9 565.517 651.583 553.222 644.709C540.93 637.834 531.113 620.04 531.319 604.842C531.525 589.645 547.741 586.268 554.005 589.759L554.001 589.762Z" fill="#FF0478"/>
<path fill-rule="evenodd" clip-rule="evenodd" d="M554.307 617.609C561.505 621.599 568.651 625.597 575.904 629.625C575.904 629.676 575.904 629.676 575.904 629.676C575.871 631.931 575.625 634.013 575.165 635.797C574.418 638.677 573.19 641.207 571.483 643.123C565.76 634.612 560.037 626.16 554.311 617.609H554.307Z" fill="white"/>
<path fill-rule="evenodd" clip-rule="evenodd" d="M559.45 586.66C571.433 593.876 580.875 611.313 580.654 626.125C573.401 622.097 566.258 618.099 559.057 614.109C559.185 604.995 559.318 595.877 559.447 586.66H559.45Z" fill="#02B0EF"/>
<g opacity="0.1">
<path fill-rule="evenodd" clip-rule="evenodd" d="M531.786 645.819C545.899 653.713 560.063 661.661 574.282 669.613C576.213 670.694 577.74 673.504 577.707 675.862C577.67 678.219 576.085 679.304 574.157 678.223C559.942 670.264 545.781 662.312 531.669 654.415C529.741 653.337 528.208 650.535 528.241 648.181C528.274 645.827 529.859 644.742 531.786 645.819Z" fill="white"/>
<path fill-rule="evenodd" clip-rule="evenodd" d="M540.959 666.53C548.797 670.922 556.734 675.358 564.664 679.808C565.959 680.536 567.007 682.416 566.981 683.953C566.959 685.542 565.874 686.274 564.58 685.546C556.65 681.092 548.713 676.656 540.878 672.261C539.543 671.511 538.535 669.605 538.557 668.02C538.58 666.435 539.62 665.78 540.956 666.527L540.959 666.53Z" fill="white"/>
</g>
<path fill-rule="evenodd" clip-rule="evenodd" d="M96.0122 99.5461C165.799 137.404 236.053 175.589 306.87 214.04C378.268 252.81 450.317 291.918 522.87 331.358C526.217 333.179 528.888 337.956 528.832 342.149C528.41 373.56 527.99 404.915 527.571 436.171C527.152 467.427 526.732 498.58 526.317 529.681C526.262 533.775 523.529 535.654 520.244 533.83C448.074 493.806 376.488 454.149 305.498 414.831C235.049 375.814 165.192 337.088 95.8099 298.682C92.6395 296.928 90.0538 292.168 90.0575 288.145C90.0832 257.569 90.1384 226.942 90.1384 196.216C90.1384 165.49 90.1384 134.712 90.1642 103.783C90.1678 99.6601 92.8307 97.81 96.0159 99.5387L96.0122 99.5461Z" fill="url(#paint6_linear)"/>
<path fill-rule="evenodd" clip-rule="evenodd" d="M499.993 338.843C500.832 339.292 501.553 340.502 501.538 341.572C501.523 342.595 500.81 343.021 499.945 342.573C499.132 342.124 498.496 340.943 498.507 339.925C498.522 338.851 499.154 338.394 499.993 338.843Z" fill="white"/>
<path fill-rule="evenodd" clip-rule="evenodd" d="M505.617 341.903C506.43 342.352 507.121 343.532 507.106 344.603C507.092 345.625 506.378 346.081 505.569 345.633C504.756 345.184 504.065 343.974 504.079 342.951C504.094 341.877 504.808 341.451 505.617 341.899V341.903Z" fill="white"/>
<path fill-rule="evenodd" clip-rule="evenodd" d="M511.193 344.934C512.006 345.383 512.697 346.593 512.682 347.667C512.668 348.689 511.954 349.116 511.145 348.667C510.332 348.219 509.641 347.038 509.655 346.015C509.67 344.941 510.384 344.485 511.196 344.934H511.193Z" fill="white"/>
<path fill-rule="evenodd" clip-rule="evenodd" d="M117.316 128.25C149.565 145.787 181.968 163.43 214.493 181.111C216.976 182.461 218.918 186.05 218.903 189.184C218.888 192.318 216.924 193.782 214.441 192.432C181.928 174.737 149.535 157.079 117.293 139.527C114.859 138.203 112.861 134.543 112.865 131.472C112.869 128.353 114.877 126.926 117.312 128.25H117.316Z" fill="white"/>
<path fill-rule="evenodd" clip-rule="evenodd" d="M115.178 144.267C122.866 148.457 130.641 152.716 138.435 156.946C139.726 157.648 140.704 159.494 140.7 161.109C140.697 162.772 139.715 163.544 138.424 162.842C130.634 158.612 122.858 154.349 115.171 150.16C113.88 149.457 112.847 147.585 112.85 145.923C112.854 144.312 113.887 143.565 115.178 144.271V144.267Z" fill="white"/>
<path d="M272.216 267.386C272.084 288.913 271.951 310.389 271.823 331.865C271.69 353.242 271.561 374.615 271.484 395.988" stroke="white" stroke-miterlimit="22.9256" stroke-linecap="round"/>
<path fill-rule="evenodd" clip-rule="evenodd" d="M280.711 270.58C294.184 277.949 307.807 285.383 321.36 292.806C323.564 294.013 325.361 297.29 325.34 300.025C325.318 302.835 323.489 304.144 321.285 302.937C307.737 295.509 294.189 288.075 280.641 280.701C278.437 279.499 276.715 276.147 276.737 273.417C276.753 270.682 278.507 269.373 280.706 270.58H280.711Z" fill="white"/>
<path d="M90.0983 239.822C101.912 240.499 113.781 241.257 125.713 242.018C137.571 251.522 149.535 261.067 161.5 270.567C173.428 274.201 185.407 277.82 197.449 281.443C209.337 295.854 221.378 310.316 233.361 324.741C246.213 317.503 259.075 310.209 272.003 302.838C283.361 313.593 294.715 324.307 306.12 335.084C318.24 337.228 330.465 339.453 342.698 341.682C354.851 353.496 366.999 365.398 379.254 377.215C391.583 369.628 403.975 361.988 416.432 354.419C428.665 363.838 441.001 373.353 453.337 382.824C465.681 386.87 478.08 390.898 490.533 394.988C502.671 424.147 514.794 453.362 526.953 482.51" stroke="#FF0478" stroke-width="3" stroke-miterlimit="22.9256"/>
<path fill-rule="evenodd" clip-rule="evenodd" d="M272.028 296.06C274.964 297.678 277.426 302.038 277.404 305.791C277.382 309.545 274.912 311.233 271.945 309.615C269.044 307.998 266.675 303.669 266.697 299.919C266.719 296.166 269.092 294.443 272.028 296.056V296.06Z" fill="white"/>
<path fill-rule="evenodd" clip-rule="evenodd" d="M272.017 299.852C273.342 300.573 274.382 302.464 274.375 304.134C274.364 305.803 273.33 306.565 271.981 305.829C270.686 305.123 269.667 303.218 269.678 301.548C269.689 299.878 270.693 299.135 272.017 299.852Z" fill="#FF0478"/>
<path fill-rule="evenodd" clip-rule="evenodd" d="M125.717 239.047C127.011 239.757 128.034 241.632 128.03 243.295C128.027 244.906 127.052 245.715 125.706 244.991C124.466 244.295 123.389 242.357 123.392 240.742C123.396 239.08 124.422 238.337 125.717 239.047Z" fill="white"/>
<path fill-rule="evenodd" clip-rule="evenodd" d="M160.915 266.82C162.235 267.533 163.283 269.494 163.28 271.108C163.276 272.774 162.246 273.503 160.896 272.771C159.602 272.072 158.583 270.178 158.587 268.515C158.59 266.901 159.594 266.106 160.915 266.823V266.82Z" fill="white"/>
<path fill-rule="evenodd" clip-rule="evenodd" d="M197.456 278.465C198.725 279.167 199.77 281.065 199.762 282.731C199.755 284.346 198.67 285.126 197.43 284.423C196.136 283.721 195.062 281.771 195.069 280.157C195.076 278.49 196.187 277.762 197.452 278.465H197.456Z" fill="white"/>
<path fill-rule="evenodd" clip-rule="evenodd" d="M379.276 374.219C380.597 374.951 381.638 376.852 381.623 378.533C381.608 380.21 380.516 380.938 379.221 380.221C377.871 379.475 376.753 377.555 376.768 375.878C376.783 374.2 377.956 373.487 379.276 374.219Z" fill="white"/>
<path fill-rule="evenodd" clip-rule="evenodd" d="M416.457 351.422C417.782 352.154 418.874 354.089 418.856 355.77C418.837 357.399 417.745 358.179 416.395 357.432C415.1 356.715 414.034 354.743 414.048 353.114C414.067 351.433 415.133 350.69 416.457 351.422Z" fill="white"/>
<path fill-rule="evenodd" clip-rule="evenodd" d="M453.363 379.824C454.713 380.56 455.78 382.498 455.758 384.183C455.739 385.816 454.643 386.592 453.293 385.841C451.944 385.12 450.881 383.145 450.899 381.512C450.917 379.828 452.013 379.088 453.363 379.82V379.824Z" fill="white"/>
<path fill-rule="evenodd" clip-rule="evenodd" d="M490.566 391.983C491.916 392.719 492.979 394.635 492.961 396.32C492.939 397.956 491.898 398.762 490.493 398.012C489.198 397.291 488.135 395.308 488.153 393.675C488.176 391.991 489.216 391.248 490.566 391.983Z" fill="white"/>
<path fill-rule="evenodd" clip-rule="evenodd" d="M342.72 338.641C344.044 339.365 345.085 341.267 345.07 342.995C345.056 344.621 343.967 345.349 342.672 344.636C341.322 343.893 340.256 341.98 340.267 340.354C340.282 338.629 341.396 337.916 342.72 338.641Z" fill="white"/>
<path fill-rule="evenodd" clip-rule="evenodd" d="M304.741 330.718C306.061 331.443 307.158 333.469 307.146 335.091C307.135 336.765 306.047 337.493 304.697 336.754C303.402 336.044 302.332 334.135 302.343 332.461C302.354 330.839 303.417 329.994 304.737 330.718H304.741Z" fill="white"/>
<path fill-rule="evenodd" clip-rule="evenodd" d="M233.372 321.758C234.667 322.479 235.737 324.366 235.73 326.036C235.723 327.654 234.638 328.43 233.343 327.728C232.048 326.992 231.033 325.069 231.04 323.45C231.048 321.78 232.081 321.041 233.372 321.758Z" fill="white"/>
<g opacity="0.1">
<path fill-rule="evenodd" clip-rule="evenodd" d="M113.567 171.014C178.672 206.592 244.229 242.39 310.265 278.465C376.786 314.804 443.847 351.407 511.339 388.316C511.773 388.556 512.196 389.229 512.193 389.791C512.185 390.354 511.748 390.601 511.314 390.361C443.825 353.449 376.767 316.79 310.25 280.443C244.218 244.362 178.665 208.56 113.563 172.978C113.174 172.765 112.806 172.092 112.809 171.54C112.809 171.036 113.177 170.805 113.567 171.018V171.014Z" fill="white"/>
<path fill-rule="evenodd" clip-rule="evenodd" d="M113.509 207.964C178.544 243.634 244.031 279.579 309.993 315.753C376.441 352.191 443.432 388.89 510.851 425.895C511.285 426.134 511.708 426.756 511.7 427.319C511.693 427.83 511.259 428.076 510.825 427.837C443.41 390.825 376.422 354.122 309.979 317.68C244.02 281.503 178.537 245.605 113.505 209.928C113.115 209.715 112.751 208.99 112.751 208.486C112.751 207.931 113.119 207.751 113.509 207.964Z" fill="white"/>
<path fill-rule="evenodd" clip-rule="evenodd" d="M113.454 244.858C178.419 280.623 243.836 316.664 309.728 352.93C376.106 389.464 443.009 426.281 510.369 463.363C510.843 463.624 511.226 464.275 511.219 464.79C511.211 465.353 510.818 465.57 510.343 465.309C442.991 428.223 376.088 391.398 309.714 354.861C243.825 318.588 178.412 282.595 113.45 246.771C113.064 246.557 112.696 245.932 112.696 245.38C112.696 244.877 113.064 244.645 113.454 244.858Z" fill="white"/>
<path fill-rule="evenodd" clip-rule="evenodd" d="M113.395 281.654C178.29 317.514 243.634 353.6 309.456 389.961C375.76 426.59 442.594 463.507 509.88 500.684C510.354 500.945 510.737 501.6 510.729 502.111C510.722 502.674 510.328 502.943 509.854 502.678C442.572 465.496 375.742 428.576 309.441 391.939C243.623 355.571 178.283 319.482 113.391 283.618C113.005 283.404 112.637 282.728 112.637 282.176C112.637 281.672 113.005 281.44 113.391 281.657L113.395 281.654Z" fill="white"/>
</g>
<defs>
<filter id="filter0_d" x="2.0058" y="424.687" width="646.668" height="384.684" filterUnits="userSpaceOnUse" color-interpolation-filters="sRGB">
<feFlood flood-opacity="0" result="BackgroundImageFix"/>
<feColorMatrix in="SourceAlpha" type="matrix" values="0 0 0 0 0 0 0 0 0 0 0 0 0 0 0 0 0 0 127 0"/>
<feOffset dy="4"/>
<feGaussianBlur stdDeviation="20"/>
<feColorMatrix type="matrix" values="0 0 0 0 0 0 0 0 0 0 0 0 0 0 0 0 0 0 1 0"/>
<feBlend mode="normal" in2="BackgroundImageFix" result="effect1_dropShadow"/>
<feBlend mode="normal" in="SourceGraphic" in2="effect1_dropShadow" result="shape"/>
</filter>
<linearGradient id="paint0_linear" x1="258.558" y1="198.262" x2="58.2052" y2="376.697" gradientUnits="userSpaceOnUse">
<stop stop-color="#19184B"/>
<stop offset="1" stop-color="#110F38"/>
</linearGradient>
<linearGradient id="paint1_linear" x1="58.9072" y1="-21.133" x2="-106.18" y2="593.478" gradientUnits="userSpaceOnUse">
<stop stop-color="#553FBE"/>
<stop offset="1" stop-color="#101245"/>
</linearGradient>
<linearGradient id="paint2_linear" x1="309.256" y1="537.859" x2="15.8644" y2="434.426" gradientUnits="userSpaceOnUse">
<stop stop-color="#42E8E0" stop-opacity="0.41"/>
<stop offset="1" stop-color="#2258BB" stop-opacity="0.4"/>
</linearGradient>
<linearGradient id="paint3_linear" x1="401.845" y1="557.267" x2="207.702" y2="499.187" gradientUnits="userSpaceOnUse">
<stop stop-color="#42E8E0" stop-opacity="0.24"/>
<stop offset="1" stop-color="#2258BB" stop-opacity="0.05"/>
</linearGradient>
<linearGradient id="paint4_linear" x1="500.053" y1="611.946" x2="303.539" y2="552.697" gradientUnits="userSpaceOnUse">
<stop stop-color="#42E8E0" stop-opacity="0.24"/>
<stop offset="1" stop-color="#2258BB" stop-opacity="0.05"/>
</linearGradient>
<linearGradient id="paint5_linear" x1="602.733" y1="669.034" x2="471.318" y2="632.539" gradientUnits="userSpaceOnUse">
<stop stop-color="#42E8E0" stop-opacity="0.41"/>
<stop offset="1" stop-color="#2258BB" stop-opacity="0.4"/>
</linearGradient>
<linearGradient id="paint6_linear" x1="549.34" y1="401.558" x2="-241.418" y2="-61.9877" gradientUnits="userSpaceOnUse">
<stop stop-color="#42E8E0" stop-opacity="0.24"/>
<stop offset="1" stop-color="#2258BB" stop-opacity="0.05"/>
</linearGradient>
</defs>
</svg>
